<svg xmlns="http://www.w3.org/2000/svg" width="512" height="512" viewBox="0 0 512 512">
<rect width="512" height="512" rx="80" fill="#0a0a0f"/>
<rect x="253" y="144" width="19" height="1" fill="#39ff14"/>
<rect x="249" y="145" width="27" height="1" fill="#39ff14"/>
<rect x="246" y="146" width="33" height="1" fill="#39ff14"/>
<rect x="244" y="147" width="38" height="1" fill="#39ff14"/>
<rect x="241" y="148" width="43" height="1" fill="#39ff14"/>
<rect x="239" y="149" width="47" height="1" fill="#39ff14"/>
<rect x="238" y="150" width="50" height="1" fill="#39ff14"/>
<rect x="236" y="151" width="53" height="1" fill="#39ff14"/>
<rect x="235" y="152" width="56" height="1" fill="#39ff14"/>
<rect x="233" y="153" width="59" height="1" fill="#39ff14"/>
<rect x="232" y="154" width="61" height="1" fill="#39ff14"/>
<rect x="231" y="155" width="64" height="1" fill="#39ff14"/>
<rect x="230" y="156" width="31" height="1" fill="#39ff14"/>
<rect x="265" y="156" width="31" height="1" fill="#39ff14"/>
<rect x="229" y="157" width="25" height="1" fill="#39ff14"/>
<rect x="271" y="157" width="26" height="1" fill="#39ff14"/>
<rect x="228" y="158" width="23" height="1" fill="#39ff14"/>
<rect x="275" y="158" width="23" height="1" fill="#39ff14"/>
<rect x="227" y="159" width="21" height="1" fill="#39ff14"/>
<rect x="277" y="159" width="22" height="1" fill="#39ff14"/>
<rect x="226" y="160" width="20" height="1" fill="#39ff14"/>
<rect x="279" y="160" width="20" height="1" fill="#39ff14"/>
<rect x="225" y="161" width="20" height="1" fill="#39ff14"/>
<rect x="281" y="161" width="19" height="1" fill="#39ff14"/>
<rect x="224" y="162" width="19" height="1" fill="#39ff14"/>
<rect x="282" y="162" width="19" height="1" fill="#39ff14"/>
<rect x="224" y="163" width="18" height="1" fill="#39ff14"/>
<rect x="284" y="163" width="18" height="1" fill="#39ff14"/>
<rect x="223" y="164" width="17" height="1" fill="#39ff14"/>
<rect x="285" y="164" width="18" height="1" fill="#39ff14"/>
<rect x="222" y="165" width="17" height="1" fill="#39ff14"/>
<rect x="286" y="165" width="17" height="1" fill="#39ff14"/>
<rect x="222" y="166" width="16" height="1" fill="#39ff14"/>
<rect x="287" y="166" width="17" height="1" fill="#39ff14"/>
<rect x="221" y="167" width="16" height="1" fill="#39ff14"/>
<rect x="288" y="167" width="16" height="1" fill="#39ff14"/>
<rect x="221" y="168" width="15" height="1" fill="#39ff14"/>
<rect x="289" y="168" width="16" height="1" fill="#39ff14"/>
<rect x="220" y="169" width="15" height="1" fill="#39ff14"/>
<rect x="290" y="169" width="15" height="1" fill="#39ff14"/>
<rect x="220" y="170" width="15" height="1" fill="#39ff14"/>
<rect x="291" y="170" width="15" height="1" fill="#39ff14"/>
<rect x="219" y="171" width="15" height="1" fill="#39ff14"/>
<rect x="291" y="171" width="15" height="1" fill="#39ff14"/>
<rect x="219" y="172" width="14" height="1" fill="#39ff14"/>
<rect x="292" y="172" width="15" height="1" fill="#39ff14"/>
<rect x="218" y="173" width="15" height="1" fill="#39ff14"/>
<rect x="293" y="173" width="14" height="1" fill="#39ff14"/>
<rect x="218" y="174" width="14" height="1" fill="#39ff14"/>
<rect x="293" y="174" width="15" height="1" fill="#39ff14"/>
<rect x="217" y="175" width="15" height="1" fill="#39ff14"/>
<rect x="259" y="175" width="8" height="1" fill="#39ff14"/>
<rect x="294" y="175" width="14" height="1" fill="#39ff14"/>
<rect x="217" y="176" width="14" height="1" fill="#39ff14"/>
<rect x="256" y="176" width="14" height="1" fill="#39ff14"/>
<rect x="294" y="176" width="14" height="1" fill="#39ff14"/>
<rect x="217" y="177" width="14" height="1" fill="#39ff14"/>
<rect x="254" y="177" width="17" height="1" fill="#39ff14"/>
<rect x="295" y="177" width="14" height="1" fill="#39ff14"/>
<rect x="217" y="178" width="13" height="1" fill="#39ff14"/>
<rect x="253" y="178" width="20" height="1" fill="#39ff14"/>
<rect x="295" y="178" width="14" height="1" fill="#39ff14"/>
<rect x="216" y="179" width="14" height="1" fill="#39ff14"/>
<rect x="252" y="179" width="22" height="1" fill="#39ff14"/>
<rect x="295" y="179" width="14" height="1" fill="#39ff14"/>
<rect x="216" y="180" width="14" height="1" fill="#39ff14"/>
<rect x="251" y="180" width="24" height="1" fill="#39ff14"/>
<rect x="296" y="180" width="13" height="1" fill="#39ff14"/>
<rect x="216" y="181" width="13" height="1" fill="#39ff14"/>
<rect x="250" y="181" width="26" height="1" fill="#39ff14"/>
<rect x="296" y="181" width="14" height="1" fill="#39ff14"/>
<rect x="216" y="182" width="13" height="1" fill="#39ff14"/>
<rect x="249" y="182" width="27" height="1" fill="#39ff14"/>
<rect x="296" y="182" width="14" height="1" fill="#39ff14"/>
<rect x="216" y="183" width="13" height="1" fill="#39ff14"/>
<rect x="249" y="183" width="28" height="1" fill="#39ff14"/>
<rect x="297" y="183" width="13" height="1" fill="#39ff14"/>
<rect x="215" y="184" width="14" height="1" fill="#39ff14"/>
<rect x="248" y="184" width="29" height="1" fill="#39ff14"/>
<rect x="297" y="184" width="13" height="1" fill="#39ff14"/>
<rect x="215" y="185" width="14" height="1" fill="#39ff14"/>
<rect x="248" y="185" width="30" height="1" fill="#39ff14"/>
<rect x="297" y="185" width="13" height="1" fill="#39ff14"/>
<rect x="215" y="186" width="13" height="1" fill="#39ff14"/>
<rect x="248" y="186" width="30" height="1" fill="#39ff14"/>
<rect x="297" y="186" width="13" height="1" fill="#39ff14"/>
<rect x="215" y="187" width="13" height="1" fill="#39ff14"/>
<rect x="247" y="187" width="31" height="1" fill="#39ff14"/>
<rect x="297" y="187" width="13" height="1" fill="#39ff14"/>
<rect x="215" y="188" width="13" height="1" fill="#39ff14"/>
<rect x="247" y="188" width="31" height="1" fill="#39ff14"/>
<rect x="297" y="188" width="13" height="1" fill="#39ff14"/>
<rect x="215" y="189" width="13" height="1" fill="#39ff14"/>
<rect x="247" y="189" width="31" height="1" fill="#39ff14"/>
<rect x="297" y="189" width="13" height="1" fill="#39ff14"/>
<rect x="215" y="190" width="13" height="1" fill="#39ff14"/>
<rect x="247" y="190" width="31" height="1" fill="#39ff14"/>
<rect x="297" y="190" width="13" height="1" fill="#39ff14"/>
<rect x="215" y="191" width="13" height="1" fill="#39ff14"/>
<rect x="247" y="191" width="31" height="1" fill="#39ff14"/>
<rect x="297" y="191" width="13" height="1" fill="#39ff14"/>
<rect x="215" y="192" width="13" height="1" fill="#39ff14"/>
<rect x="247" y="192" width="31" height="1" fill="#39ff14"/>
<rect x="297" y="192" width="13" height="1" fill="#39ff14"/>
<rect x="215" y="193" width="13" height="1" fill="#39ff14"/>
<rect x="247" y="193" width="31" height="1" fill="#39ff14"/>
<rect x="297" y="193" width="13" height="1" fill="#39ff14"/>
<rect x="215" y="194" width="13" height="1" fill="#39ff14"/>
<rect x="248" y="194" width="30" height="1" fill="#39ff14"/>
<rect x="297" y="194" width="13" height="1" fill="#39ff14"/>
<rect x="215" y="195" width="14" height="1" fill="#39ff14"/>
<rect x="248" y="195" width="29" height="1" fill="#39ff14"/>
<rect x="297" y="195" width="13" height="1" fill="#39ff14"/>
<rect x="215" y="196" width="14" height="1" fill="#39ff14"/>
<rect x="248" y="196" width="29" height="1" fill="#39ff14"/>
<rect x="297" y="196" width="13" height="1" fill="#39ff14"/>
<rect x="216" y="197" width="13" height="1" fill="#39ff14"/>
<rect x="249" y="197" width="28" height="1" fill="#39ff14"/>
<rect x="296" y="197" width="14" height="1" fill="#39ff14"/>
<rect x="216" y="198" width="13" height="1" fill="#39ff14"/>
<rect x="250" y="198" width="26" height="1" fill="#39ff14"/>
<rect x="296" y="198" width="14" height="1" fill="#39ff14"/>
<rect x="216" y="199" width="13" height="1" fill="#39ff14"/>
<rect x="250" y="199" width="25" height="1" fill="#39ff14"/>
<rect x="296" y="199" width="14" height="1" fill="#39ff14"/>
<rect x="216" y="200" width="14" height="1" fill="#39ff14"/>
<rect x="251" y="200" width="23" height="1" fill="#39ff14"/>
<rect x="296" y="200" width="13" height="1" fill="#39ff14"/>
<rect x="216" y="201" width="14" height="1" fill="#39ff14"/>
<rect x="252" y="201" width="21" height="1" fill="#39ff14"/>
<rect x="295" y="201" width="14" height="1" fill="#39ff14"/>
<rect x="217" y="202" width="13" height="1" fill="#39ff14"/>
<rect x="253" y="202" width="19" height="1" fill="#39ff14"/>
<rect x="295" y="202" width="14" height="1" fill="#39ff14"/>
<rect x="217" y="203" width="14" height="1" fill="#39ff14"/>
<rect x="255" y="203" width="16" height="1" fill="#39ff14"/>
<rect x="295" y="203" width="13" height="1" fill="#39ff14"/>
<rect x="217" y="204" width="14" height="1" fill="#39ff14"/>
<rect x="257" y="204" width="12" height="1" fill="#39ff14"/>
<rect x="294" y="204" width="14" height="1" fill="#39ff14"/>
<rect x="218" y="205" width="14" height="1" fill="#39ff14"/>
<rect x="260" y="205" width="5" height="1" fill="#39ff14"/>
<rect x="294" y="205" width="14" height="1" fill="#39ff14"/>
<rect x="218" y="206" width="14" height="1" fill="#39ff14"/>
<rect x="293" y="206" width="14" height="1" fill="#39ff14"/>
<rect x="218" y="207" width="15" height="1" fill="#39ff14"/>
<rect x="292" y="207" width="15" height="1" fill="#39ff14"/>
<rect x="219" y="208" width="15" height="1" fill="#39ff14"/>
<rect x="292" y="208" width="15" height="1" fill="#39ff14"/>
<rect x="219" y="209" width="15" height="1" fill="#39ff14"/>
<rect x="291" y="209" width="15" height="1" fill="#39ff14"/>
<rect x="220" y="210" width="15" height="1" fill="#39ff14"/>
<rect x="290" y="210" width="16" height="1" fill="#39ff14"/>
<rect x="220" y="211" width="16" height="1" fill="#39ff14"/>
<rect x="290" y="211" width="15" height="1" fill="#39ff14"/>
<rect x="221" y="212" width="16" height="1" fill="#39ff14"/>
<rect x="289" y="212" width="16" height="1" fill="#39ff14"/>
<rect x="221" y="213" width="17" height="1" fill="#39ff14"/>
<rect x="288" y="213" width="16" height="1" fill="#39ff14"/>
<rect x="222" y="214" width="17" height="1" fill="#39ff14"/>
<rect x="287" y="214" width="17" height="1" fill="#39ff14"/>
<rect x="223" y="215" width="17" height="1" fill="#39ff14"/>
<rect x="286" y="215" width="17" height="1" fill="#39ff14"/>
<rect x="223" y="216" width="18" height="1" fill="#39ff14"/>
<rect x="285" y="216" width="17" height="1" fill="#39ff14"/>
<rect x="224" y="217" width="18" height="1" fill="#39ff14"/>
<rect x="283" y="217" width="19" height="1" fill="#39ff14"/>
<rect x="225" y="218" width="19" height="1" fill="#39ff14"/>
<rect x="282" y="218" width="19" height="1" fill="#39ff14"/>
<rect x="225" y="219" width="20" height="1" fill="#39ff14"/>
<rect x="280" y="219" width="20" height="1" fill="#39ff14"/>
<rect x="226" y="220" width="21" height="1" fill="#39ff14"/>
<rect x="278" y="220" width="21" height="1" fill="#39ff14"/>
<rect x="227" y="221" width="22" height="1" fill="#39ff14"/>
<rect x="276" y="221" width="22" height="1" fill="#39ff14"/>
<rect x="228" y="222" width="24" height="1" fill="#39ff14"/>
<rect x="273" y="222" width="24" height="1" fill="#39ff14"/>
<rect x="229" y="223" width="27" height="1" fill="#39ff14"/>
<rect x="269" y="223" width="27" height="1" fill="#39ff14"/>
<rect x="230" y="224" width="65" height="1" fill="#39ff14"/>
<rect x="231" y="225" width="63" height="1" fill="#39ff14"/>
<rect x="233" y="226" width="60" height="1" fill="#39ff14"/>
<rect x="234" y="227" width="58" height="1" fill="#39ff14"/>
<rect x="235" y="228" width="55" height="1" fill="#39ff14"/>
<rect x="237" y="229" width="52" height="1" fill="#39ff14"/>
<rect x="238" y="230" width="49" height="1" fill="#39ff14"/>
<rect x="240" y="231" width="45" height="1" fill="#39ff14"/>
<rect x="242" y="232" width="41" height="1" fill="#39ff14"/>
<rect x="245" y="233" width="36" height="1" fill="#39ff14"/>
<rect x="247" y="234" width="31" height="1" fill="#39ff14"/>
<rect x="251" y="235" width="24" height="1" fill="#39ff14"/>
<rect x="255" y="236" width="15" height="1" fill="#39ff14"/>
<rect x="256" y="237" width="13" height="1" fill="#39ff14"/>
<rect x="256" y="238" width="13" height="1" fill="#39ff14"/>
<rect x="256" y="239" width="13" height="1" fill="#39ff14"/>
<rect x="256" y="240" width="13" height="1" fill="#39ff14"/>
<rect x="256" y="241" width="13" height="1" fill="#39ff14"/>
<rect x="256" y="242" width="13" height="1" fill="#39ff14"/>
<rect x="256" y="243" width="13" height="1" fill="#39ff14"/>
<rect x="256" y="244" width="13" height="1" fill="#39ff14"/>
<rect x="256" y="245" width="13" height="1" fill="#39ff14"/>
<rect x="256" y="246" width="13" height="1" fill="#39ff14"/>
<rect x="256" y="247" width="13" height="1" fill="#39ff14"/>
<rect x="256" y="248" width="13" height="1" fill="#39ff14"/>
<rect x="256" y="249" width="13" height="1" fill="#39ff14"/>
<rect x="256" y="250" width="13" height="1" fill="#39ff14"/>
<rect x="256" y="251" width="13" height="1" fill="#39ff14"/>
<rect x="256" y="252" width="13" height="1" fill="#39ff14"/>
<rect x="256" y="253" width="13" height="1" fill="#39ff14"/>
<rect x="256" y="254" width="13" height="1" fill="#39ff14"/>
<rect x="256" y="255" width="13" height="1" fill="#39ff14"/>
<rect x="256" y="256" width="13" height="1" fill="#39ff14"/>
<rect x="256" y="257" width="13" height="1" fill="#39ff14"/>
<rect x="231" y="258" width="5" height="1" fill="#39ff14"/>
<rect x="256" y="258" width="13" height="1" fill="#39ff14"/>
<rect x="289" y="258" width="6" height="1" fill="#39ff14"/>
<rect x="230" y="259" width="8" height="1" fill="#39ff14"/>
<rect x="256" y="259" width="13" height="1" fill="#39ff14"/>
<rect x="288" y="259" width="8" height="1" fill="#39ff14"/>
<rect x="229" y="260" width="11" height="1" fill="#39ff14"/>
<rect x="256" y="260" width="13" height="1" fill="#39ff14"/>
<rect x="286" y="260" width="11" height="1" fill="#39ff14"/>
<rect x="228" y="261" width="13" height="1" fill="#39ff14"/>
<rect x="256" y="261" width="13" height="1" fill="#39ff14"/>
<rect x="285" y="261" width="12" height="1" fill="#39ff14"/>
<rect x="228" y="262" width="15" height="1" fill="#39ff14"/>
<rect x="256" y="262" width="13" height="1" fill="#39ff14"/>
<rect x="283" y="262" width="14" height="1" fill="#39ff14"/>
<rect x="228" y="263" width="16" height="1" fill="#39ff14"/>
<rect x="256" y="263" width="13" height="1" fill="#39ff14"/>
<rect x="281" y="263" width="16" height="1" fill="#39ff14"/>
<rect x="229" y="264" width="17" height="1" fill="#39ff14"/>
<rect x="256" y="264" width="13" height="1" fill="#39ff14"/>
<rect x="279" y="264" width="18" height="1" fill="#39ff14"/>
<rect x="229" y="265" width="19" height="1" fill="#39ff14"/>
<rect x="256" y="265" width="13" height="1" fill="#39ff14"/>
<rect x="277" y="265" width="20" height="1" fill="#39ff14"/>
<rect x="230" y="266" width="21" height="1" fill="#39ff14"/>
<rect x="256" y="266" width="13" height="1" fill="#39ff14"/>
<rect x="275" y="266" width="21" height="1" fill="#39ff14"/>
<rect x="231" y="267" width="23" height="1" fill="#39ff14"/>
<rect x="256" y="267" width="13" height="1" fill="#39ff14"/>
<rect x="271" y="267" width="24" height="1" fill="#39ff14"/>
<rect x="232" y="268" width="61" height="1" fill="#39ff14"/>
<rect x="234" y="269" width="58" height="1" fill="#39ff14"/>
<rect x="235" y="270" width="55" height="1" fill="#39ff14"/>
<rect x="237" y="271" width="52" height="1" fill="#39ff14"/>
<rect x="238" y="272" width="49" height="1" fill="#39ff14"/>
<rect x="240" y="273" width="46" height="1" fill="#39ff14"/>
<rect x="242" y="274" width="42" height="1" fill="#39ff14"/>
<rect x="244" y="275" width="37" height="1" fill="#39ff14"/>
<rect x="247" y="276" width="32" height="1" fill="#39ff14"/>
<rect x="250" y="277" width="26" height="1" fill="#39ff14"/>
<rect x="253" y="278" width="20" height="1" fill="#39ff14"/>
<rect x="256" y="279" width="13" height="1" fill="#39ff14"/>
<rect x="256" y="280" width="13" height="1" fill="#39ff14"/>
<rect x="256" y="281" width="13" height="1" fill="#39ff14"/>
<rect x="256" y="282" width="13" height="1" fill="#39ff14"/>
<rect x="256" y="283" width="13" height="1" fill="#39ff14"/>
<rect x="256" y="284" width="13" height="1" fill="#39ff14"/>
<rect x="256" y="285" width="13" height="1" fill="#39ff14"/>
<rect x="256" y="286" width="13" height="1" fill="#39ff14"/>
<rect x="256" y="287" width="13" height="1" fill="#39ff14"/>
<rect x="256" y="288" width="13" height="1" fill="#39ff14"/>
<rect x="256" y="289" width="13" height="1" fill="#39ff14"/>
<rect x="256" y="290" width="13" height="1" fill="#39ff14"/>
<rect x="256" y="291" width="13" height="1" fill="#39ff14"/>
<rect x="256" y="292" width="13" height="1" fill="#39ff14"/>
<rect x="256" y="293" width="13" height="1" fill="#39ff14"/>
<rect x="256" y="294" width="13" height="1" fill="#39ff14"/>
<rect x="256" y="295" width="13" height="1" fill="#39ff14"/>
<rect x="256" y="296" width="13" height="1" fill="#39ff14"/>
<rect x="256" y="297" width="13" height="1" fill="#39ff14"/>
<rect x="256" y="298" width="13" height="1" fill="#39ff14"/>
<rect x="256" y="299" width="13" height="1" fill="#39ff14"/>
<rect x="256" y="300" width="13" height="1" fill="#39ff14"/>
<rect x="256" y="301" width="13" height="1" fill="#39ff14"/>
<rect x="256" y="302" width="13" height="1" fill="#39ff14"/>
<rect x="256" y="303" width="13" height="1" fill="#39ff14"/>
<rect x="198" y="304" width="3" height="1" fill="#39ff14"/>
<rect x="256" y="304" width="13" height="1" fill="#39ff14"/>
<rect x="325" y="304" width="3" height="1" fill="#39ff14"/>
<rect x="197" y="305" width="7" height="1" fill="#39ff14"/>
<rect x="256" y="305" width="13" height="1" fill="#39ff14"/>
<rect x="322" y="305" width="7" height="1" fill="#39ff14"/>
<rect x="196" y="306" width="11" height="1" fill="#39ff14"/>
<rect x="256" y="306" width="13" height="1" fill="#39ff14"/>
<rect x="319" y="306" width="11" height="1" fill="#39ff14"/>
<rect x="196" y="307" width="14" height="1" fill="#39ff14"/>
<rect x="256" y="307" width="13" height="1" fill="#39ff14"/>
<rect x="316" y="307" width="14" height="1" fill="#39ff14"/>
<rect x="196" y="308" width="17" height="1" fill="#39ff14"/>
<rect x="256" y="308" width="13" height="1" fill="#39ff14"/>
<rect x="313" y="308" width="17" height="1" fill="#39ff14"/>
<rect x="196" y="309" width="20" height="1" fill="#39ff14"/>
<rect x="256" y="309" width="13" height="1" fill="#39ff14"/>
<rect x="310" y="309" width="19" height="1" fill="#39ff14"/>
<rect x="197" y="310" width="22" height="1" fill="#39ff14"/>
<rect x="256" y="310" width="13" height="1" fill="#39ff14"/>
<rect x="306" y="310" width="23" height="1" fill="#39ff14"/>
<rect x="199" y="311" width="24" height="1" fill="#39ff14"/>
<rect x="256" y="311" width="13" height="1" fill="#39ff14"/>
<rect x="302" y="311" width="25" height="1" fill="#39ff14"/>
<rect x="202" y="312" width="27" height="1" fill="#39ff14"/>
<rect x="255" y="312" width="15" height="1" fill="#39ff14"/>
<rect x="296" y="312" width="28" height="1" fill="#39ff14"/>
<rect x="205" y="313" width="116" height="1" fill="#39ff14"/>
<rect x="208" y="314" width="110" height="1" fill="#39ff14"/>
<rect x="211" y="315" width="104" height="1" fill="#39ff14"/>
<rect x="214" y="316" width="98" height="1" fill="#39ff14"/>
<rect x="218" y="317" width="90" height="1" fill="#39ff14"/>
<rect x="222" y="318" width="82" height="1" fill="#39ff14"/>
<rect x="227" y="319" width="72" height="1" fill="#39ff14"/>
<rect x="224" y="327" width="9" height="1" fill="#39ff14"/>
<rect x="293" y="327" width="8" height="1" fill="#39ff14"/>
<rect x="222" y="328" width="13" height="1" fill="#39ff14"/>
<rect x="291" y="328" width="12" height="1" fill="#39ff14"/>
<rect x="221" y="329" width="15" height="1" fill="#39ff14"/>
<rect x="290" y="329" width="14" height="1" fill="#39ff14"/>
<rect x="220" y="330" width="17" height="1" fill="#39ff14"/>
<rect x="289" y="330" width="16" height="1" fill="#39ff14"/>
<rect x="219" y="331" width="18" height="1" fill="#39ff14"/>
<rect x="288" y="331" width="18" height="1" fill="#39ff14"/>
<rect x="219" y="332" width="6" height="1" fill="#39ff14"/>
<rect x="232" y="332" width="6" height="1" fill="#39ff14"/>
<rect x="287" y="332" width="7" height="1" fill="#39ff14"/>
<rect x="300" y="332" width="7" height="1" fill="#39ff14"/>
<rect x="218" y="333" width="6" height="1" fill="#39ff14"/>
<rect x="233" y="333" width="5" height="1" fill="#39ff14"/>
<rect x="287" y="333" width="6" height="1" fill="#39ff14"/>
<rect x="301" y="333" width="6" height="1" fill="#39ff14"/>
<rect x="218" y="334" width="6" height="1" fill="#39ff14"/>
<rect x="233" y="334" width="6" height="1" fill="#39ff14"/>
<rect x="287" y="334" width="5" height="1" fill="#39ff14"/>
<rect x="302" y="334" width="5" height="1" fill="#39ff14"/>
<rect x="218" y="335" width="5" height="1" fill="#39ff14"/>
<rect x="234" y="335" width="5" height="1" fill="#39ff14"/>
<rect x="287" y="335" width="5" height="1" fill="#39ff14"/>
<rect x="302" y="335" width="5" height="1" fill="#39ff14"/>
<rect x="218" y="336" width="5" height="1" fill="#39ff14"/>
<rect x="234" y="336" width="5" height="1" fill="#39ff14"/>
<rect x="286" y="336" width="6" height="1" fill="#39ff14"/>
<rect x="302" y="336" width="6" height="1" fill="#39ff14"/>
<rect x="218" y="337" width="5" height="1" fill="#39ff14"/>
<rect x="234" y="337" width="5" height="1" fill="#39ff14"/>
<rect x="286" y="337" width="6" height="1" fill="#39ff14"/>
<rect x="302" y="337" width="6" height="1" fill="#39ff14"/>
<rect x="218" y="338" width="5" height="1" fill="#39ff14"/>
<rect x="234" y="338" width="5" height="1" fill="#39ff14"/>
<rect x="287" y="338" width="5" height="1" fill="#39ff14"/>
<rect x="302" y="338" width="5" height="1" fill="#39ff14"/>
<rect x="218" y="339" width="6" height="1" fill="#39ff14"/>
<rect x="233" y="339" width="6" height="1" fill="#39ff14"/>
<rect x="287" y="339" width="5" height="1" fill="#39ff14"/>
<rect x="302" y="339" width="5" height="1" fill="#39ff14"/>
<rect x="219" y="340" width="5" height="1" fill="#39ff14"/>
<rect x="232" y="340" width="6" height="1" fill="#39ff14"/>
<rect x="287" y="340" width="6" height="1" fill="#39ff14"/>
<rect x="301" y="340" width="6" height="1" fill="#39ff14"/>
<rect x="219" y="341" width="7" height="1" fill="#39ff14"/>
<rect x="231" y="341" width="7" height="1" fill="#39ff14"/>
<rect x="288" y="341" width="6" height="1" fill="#39ff14"/>
<rect x="300" y="341" width="6" height="1" fill="#39ff14"/>
<rect x="220" y="342" width="17" height="1" fill="#39ff14"/>
<rect x="288" y="342" width="18" height="1" fill="#39ff14"/>
<rect x="220" y="343" width="17" height="1" fill="#39ff14"/>
<rect x="289" y="343" width="16" height="1" fill="#39ff14"/>
<rect x="221" y="344" width="15" height="1" fill="#39ff14"/>
<rect x="290" y="344" width="14" height="1" fill="#39ff14"/>
<rect x="223" y="345" width="11" height="1" fill="#39ff14"/>
<rect x="291" y="345" width="12" height="1" fill="#39ff14"/>
<rect x="225" y="346" width="7" height="1" fill="#39ff14"/>
<rect x="293" y="346" width="8" height="1" fill="#39ff14"/>
<rect x="222" y="354" width="3" height="1" fill="#39ff14"/>
<rect x="231" y="354" width="4" height="1" fill="#39ff14"/>
<rect x="317" y="354" width="3" height="1" fill="#39ff14"/>
<rect x="327" y="354" width="3" height="1" fill="#39ff14"/>
<rect x="212" y="355" width="2" height="1" fill="#39ff14"/>
<rect x="222" y="355" width="3" height="1" fill="#39ff14"/>
<rect x="231" y="355" width="4" height="1" fill="#39ff14"/>
<rect x="260" y="355" width="2" height="1" fill="#39ff14"/>
<rect x="317" y="355" width="3" height="1" fill="#39ff14"/>
<rect x="327" y="355" width="3" height="1" fill="#39ff14"/>
<rect x="211" y="356" width="3" height="1" fill="#39ff14"/>
<rect x="222" y="356" width="3" height="1" fill="#39ff14"/>
<rect x="231" y="356" width="4" height="1" fill="#39ff14"/>
<rect x="259" y="356" width="3" height="1" fill="#39ff14"/>
<rect x="317" y="356" width="3" height="1" fill="#39ff14"/>
<rect x="327" y="356" width="3" height="1" fill="#39ff14"/>
<rect x="211" y="357" width="3" height="1" fill="#39ff14"/>
<rect x="222" y="357" width="3" height="1" fill="#39ff14"/>
<rect x="259" y="357" width="3" height="1" fill="#39ff14"/>
<rect x="317" y="357" width="3" height="1" fill="#39ff14"/>
<rect x="211" y="358" width="3" height="1" fill="#39ff14"/>
<rect x="222" y="358" width="3" height="1" fill="#39ff14"/>
<rect x="259" y="358" width="3" height="1" fill="#39ff14"/>
<rect x="317" y="358" width="3" height="1" fill="#39ff14"/>
<rect x="157" y="359" width="7" height="1" fill="#39ff14"/>
<rect x="173" y="359" width="3" height="1" fill="#39ff14"/>
<rect x="178" y="359" width="5" height="1" fill="#39ff14"/>
<rect x="196" y="359" width="5" height="1" fill="#39ff14"/>
<rect x="209" y="359" width="8" height="1" fill="#39ff14"/>
<rect x="222" y="359" width="3" height="1" fill="#39ff14"/>
<rect x="231" y="359" width="4" height="1" fill="#39ff14"/>
<rect x="243" y="359" width="6" height="1" fill="#39ff14"/>
<rect x="257" y="359" width="8" height="1" fill="#39ff14"/>
<rect x="283" y="359" width="5" height="1" fill="#39ff14"/>
<rect x="298" y="359" width="3" height="1" fill="#39ff14"/>
<rect x="304" y="359" width="4" height="1" fill="#39ff14"/>
<rect x="317" y="359" width="3" height="1" fill="#39ff14"/>
<rect x="327" y="359" width="3" height="1" fill="#39ff14"/>
<rect x="336" y="359" width="3" height="1" fill="#39ff14"/>
<rect x="342" y="359" width="4" height="1" fill="#39ff14"/>
<rect x="358" y="359" width="5" height="1" fill="#39ff14"/>
<rect x="156" y="360" width="10" height="1" fill="#39ff14"/>
<rect x="173" y="360" width="11" height="1" fill="#39ff14"/>
<rect x="194" y="360" width="9" height="1" fill="#39ff14"/>
<rect x="209" y="360" width="8" height="1" fill="#39ff14"/>
<rect x="222" y="360" width="3" height="1" fill="#39ff14"/>
<rect x="231" y="360" width="4" height="1" fill="#39ff14"/>
<rect x="241" y="360" width="10" height="1" fill="#39ff14"/>
<rect x="257" y="360" width="8" height="1" fill="#39ff14"/>
<rect x="281" y="360" width="9" height="1" fill="#39ff14"/>
<rect x="298" y="360" width="12" height="1" fill="#39ff14"/>
<rect x="317" y="360" width="3" height="1" fill="#39ff14"/>
<rect x="327" y="360" width="3" height="1" fill="#39ff14"/>
<rect x="336" y="360" width="12" height="1" fill="#39ff14"/>
<rect x="356" y="360" width="9" height="1" fill="#39ff14"/>
<rect x="155" y="361" width="11" height="1" fill="#39ff14"/>
<rect x="173" y="361" width="12" height="1" fill="#39ff14"/>
<rect x="192" y="361" width="12" height="1" fill="#39ff14"/>
<rect x="209" y="361" width="8" height="1" fill="#39ff14"/>
<rect x="222" y="361" width="3" height="1" fill="#39ff14"/>
<rect x="231" y="361" width="4" height="1" fill="#39ff14"/>
<rect x="240" y="361" width="12" height="1" fill="#39ff14"/>
<rect x="257" y="361" width="8" height="1" fill="#39ff14"/>
<rect x="280" y="361" width="11" height="1" fill="#39ff14"/>
<rect x="298" y="361" width="12" height="1" fill="#39ff14"/>
<rect x="317" y="361" width="3" height="1" fill="#39ff14"/>
<rect x="327" y="361" width="3" height="1" fill="#39ff14"/>
<rect x="336" y="361" width="12" height="1" fill="#39ff14"/>
<rect x="355" y="361" width="11" height="1" fill="#39ff14"/>
<rect x="154" y="362" width="4" height="1" fill="#39ff14"/>
<rect x="163" y="362" width="1" height="1" fill="#39ff14"/>
<rect x="173" y="362" width="5" height="1" fill="#39ff14"/>
<rect x="181" y="362" width="5" height="1" fill="#39ff14"/>
<rect x="192" y="362" width="4" height="1" fill="#39ff14"/>
<rect x="200" y="362" width="4" height="1" fill="#39ff14"/>
<rect x="211" y="362" width="3" height="1" fill="#39ff14"/>
<rect x="222" y="362" width="3" height="1" fill="#39ff14"/>
<rect x="231" y="362" width="4" height="1" fill="#39ff14"/>
<rect x="240" y="362" width="3" height="1" fill="#39ff14"/>
<rect x="248" y="362" width="2" height="1" fill="#39ff14"/>
<rect x="259" y="362" width="3" height="1" fill="#39ff14"/>
<rect x="279" y="362" width="4" height="1" fill="#39ff14"/>
<rect x="287" y="362" width="5" height="1" fill="#39ff14"/>
<rect x="298" y="362" width="5" height="1" fill="#39ff14"/>
<rect x="306" y="362" width="5" height="1" fill="#39ff14"/>
<rect x="317" y="362" width="3" height="1" fill="#39ff14"/>
<rect x="327" y="362" width="3" height="1" fill="#39ff14"/>
<rect x="336" y="362" width="5" height="1" fill="#39ff14"/>
<rect x="344" y="362" width="5" height="1" fill="#39ff14"/>
<rect x="355" y="362" width="4" height="1" fill="#39ff14"/>
<rect x="363" y="362" width="3" height="1" fill="#39ff14"/>
<rect x="154" y="363" width="4" height="1" fill="#39ff14"/>
<rect x="173" y="363" width="4" height="1" fill="#39ff14"/>
<rect x="182" y="363" width="4" height="1" fill="#39ff14"/>
<rect x="191" y="363" width="4" height="1" fill="#39ff14"/>
<rect x="201" y="363" width="4" height="1" fill="#39ff14"/>
<rect x="211" y="363" width="3" height="1" fill="#39ff14"/>
<rect x="222" y="363" width="3" height="1" fill="#39ff14"/>
<rect x="231" y="363" width="4" height="1" fill="#39ff14"/>
<rect x="240" y="363" width="3" height="1" fill="#39ff14"/>
<rect x="259" y="363" width="3" height="1" fill="#39ff14"/>
<rect x="279" y="363" width="3" height="1" fill="#39ff14"/>
<rect x="289" y="363" width="3" height="1" fill="#39ff14"/>
<rect x="298" y="363" width="4" height="1" fill="#39ff14"/>
<rect x="307" y="363" width="4" height="1" fill="#39ff14"/>
<rect x="317" y="363" width="3" height="1" fill="#39ff14"/>
<rect x="327" y="363" width="3" height="1" fill="#39ff14"/>
<rect x="336" y="363" width="4" height="1" fill="#39ff14"/>
<rect x="345" y="363" width="4" height="1" fill="#39ff14"/>
<rect x="354" y="363" width="4" height="1" fill="#39ff14"/>
<rect x="363" y="363" width="4" height="1" fill="#39ff14"/>
<rect x="155" y="364" width="5" height="1" fill="#39ff14"/>
<rect x="173" y="364" width="3" height="1" fill="#39ff14"/>
<rect x="183" y="364" width="3" height="1" fill="#39ff14"/>
<rect x="191" y="364" width="3" height="1" fill="#39ff14"/>
<rect x="202" y="364" width="3" height="1" fill="#39ff14"/>
<rect x="211" y="364" width="3" height="1" fill="#39ff14"/>
<rect x="222" y="364" width="3" height="1" fill="#39ff14"/>
<rect x="231" y="364" width="4" height="1" fill="#39ff14"/>
<rect x="240" y="364" width="5" height="1" fill="#39ff14"/>
<rect x="259" y="364" width="3" height="1" fill="#39ff14"/>
<rect x="278" y="364" width="4" height="1" fill="#39ff14"/>
<rect x="289" y="364" width="4" height="1" fill="#39ff14"/>
<rect x="298" y="364" width="4" height="1" fill="#39ff14"/>
<rect x="307" y="364" width="4" height="1" fill="#39ff14"/>
<rect x="317" y="364" width="3" height="1" fill="#39ff14"/>
<rect x="327" y="364" width="3" height="1" fill="#39ff14"/>
<rect x="336" y="364" width="4" height="1" fill="#39ff14"/>
<rect x="345" y="364" width="4" height="1" fill="#39ff14"/>
<rect x="354" y="364" width="3" height="1" fill="#39ff14"/>
<rect x="364" y="364" width="3" height="1" fill="#39ff14"/>
<rect x="155" y="365" width="9" height="1" fill="#39ff14"/>
<rect x="173" y="365" width="3" height="1" fill="#39ff14"/>
<rect x="183" y="365" width="3" height="1" fill="#39ff14"/>
<rect x="191" y="365" width="3" height="1" fill="#39ff14"/>
<rect x="202" y="365" width="3" height="1" fill="#39ff14"/>
<rect x="211" y="365" width="3" height="1" fill="#39ff14"/>
<rect x="222" y="365" width="3" height="1" fill="#39ff14"/>
<rect x="231" y="365" width="4" height="1" fill="#39ff14"/>
<rect x="241" y="365" width="8" height="1" fill="#39ff14"/>
<rect x="259" y="365" width="3" height="1" fill="#39ff14"/>
<rect x="278" y="365" width="4" height="1" fill="#39ff14"/>
<rect x="289" y="365" width="4" height="1" fill="#39ff14"/>
<rect x="298" y="365" width="4" height="1" fill="#39ff14"/>
<rect x="307" y="365" width="4" height="1" fill="#39ff14"/>
<rect x="317" y="365" width="3" height="1" fill="#39ff14"/>
<rect x="327" y="365" width="3" height="1" fill="#39ff14"/>
<rect x="336" y="365" width="4" height="1" fill="#39ff14"/>
<rect x="345" y="365" width="4" height="1" fill="#39ff14"/>
<rect x="354" y="365" width="13" height="1" fill="#39ff14"/>
<rect x="156" y="366" width="10" height="1" fill="#39ff14"/>
<rect x="173" y="366" width="3" height="1" fill="#39ff14"/>
<rect x="183" y="366" width="3" height="1" fill="#39ff14"/>
<rect x="191" y="366" width="3" height="1" fill="#39ff14"/>
<rect x="202" y="366" width="3" height="1" fill="#39ff14"/>
<rect x="211" y="366" width="3" height="1" fill="#39ff14"/>
<rect x="222" y="366" width="3" height="1" fill="#39ff14"/>
<rect x="231" y="366" width="4" height="1" fill="#39ff14"/>
<rect x="242" y="366" width="9" height="1" fill="#39ff14"/>
<rect x="259" y="366" width="3" height="1" fill="#39ff14"/>
<rect x="278" y="366" width="3" height="1" fill="#39ff14"/>
<rect x="289" y="366" width="4" height="1" fill="#39ff14"/>
<rect x="298" y="366" width="3" height="1" fill="#39ff14"/>
<rect x="307" y="366" width="4" height="1" fill="#39ff14"/>
<rect x="317" y="366" width="3" height="1" fill="#39ff14"/>
<rect x="327" y="366" width="3" height="1" fill="#39ff14"/>
<rect x="336" y="366" width="3" height="1" fill="#39ff14"/>
<rect x="345" y="366" width="4" height="1" fill="#39ff14"/>
<rect x="354" y="366" width="13" height="1" fill="#39ff14"/>
<rect x="159" y="367" width="8" height="1" fill="#39ff14"/>
<rect x="173" y="367" width="3" height="1" fill="#39ff14"/>
<rect x="183" y="367" width="3" height="1" fill="#39ff14"/>
<rect x="191" y="367" width="3" height="1" fill="#39ff14"/>
<rect x="202" y="367" width="3" height="1" fill="#39ff14"/>
<rect x="211" y="367" width="3" height="1" fill="#39ff14"/>
<rect x="222" y="367" width="3" height="1" fill="#39ff14"/>
<rect x="231" y="367" width="4" height="1" fill="#39ff14"/>
<rect x="244" y="367" width="8" height="1" fill="#39ff14"/>
<rect x="259" y="367" width="3" height="1" fill="#39ff14"/>
<rect x="278" y="367" width="4" height="1" fill="#39ff14"/>
<rect x="289" y="367" width="4" height="1" fill="#39ff14"/>
<rect x="298" y="367" width="3" height="1" fill="#39ff14"/>
<rect x="307" y="367" width="4" height="1" fill="#39ff14"/>
<rect x="317" y="367" width="3" height="1" fill="#39ff14"/>
<rect x="327" y="367" width="3" height="1" fill="#39ff14"/>
<rect x="336" y="367" width="3" height="1" fill="#39ff14"/>
<rect x="345" y="367" width="4" height="1" fill="#39ff14"/>
<rect x="354" y="367" width="13" height="1" fill="#39ff14"/>
<rect x="163" y="368" width="4" height="1" fill="#39ff14"/>
<rect x="173" y="368" width="3" height="1" fill="#39ff14"/>
<rect x="183" y="368" width="3" height="1" fill="#39ff14"/>
<rect x="191" y="368" width="3" height="1" fill="#39ff14"/>
<rect x="202" y="368" width="3" height="1" fill="#39ff14"/>
<rect x="211" y="368" width="3" height="1" fill="#39ff14"/>
<rect x="222" y="368" width="3" height="1" fill="#39ff14"/>
<rect x="231" y="368" width="4" height="1" fill="#39ff14"/>
<rect x="248" y="368" width="4" height="1" fill="#39ff14"/>
<rect x="259" y="368" width="3" height="1" fill="#39ff14"/>
<rect x="278" y="368" width="4" height="1" fill="#39ff14"/>
<rect x="289" y="368" width="4" height="1" fill="#39ff14"/>
<rect x="298" y="368" width="3" height="1" fill="#39ff14"/>
<rect x="307" y="368" width="4" height="1" fill="#39ff14"/>
<rect x="317" y="368" width="3" height="1" fill="#39ff14"/>
<rect x="327" y="368" width="3" height="1" fill="#39ff14"/>
<rect x="336" y="368" width="3" height="1" fill="#39ff14"/>
<rect x="345" y="368" width="4" height="1" fill="#39ff14"/>
<rect x="354" y="368" width="3" height="1" fill="#39ff14"/>
<rect x="163" y="369" width="4" height="1" fill="#39ff14"/>
<rect x="173" y="369" width="4" height="1" fill="#39ff14"/>
<rect x="182" y="369" width="4" height="1" fill="#39ff14"/>
<rect x="191" y="369" width="4" height="1" fill="#39ff14"/>
<rect x="201" y="369" width="4" height="1" fill="#39ff14"/>
<rect x="211" y="369" width="3" height="1" fill="#39ff14"/>
<rect x="222" y="369" width="3" height="1" fill="#39ff14"/>
<rect x="231" y="369" width="4" height="1" fill="#39ff14"/>
<rect x="249" y="369" width="3" height="1" fill="#39ff14"/>
<rect x="259" y="369" width="3" height="1" fill="#39ff14"/>
<rect x="279" y="369" width="3" height="1" fill="#39ff14"/>
<rect x="289" y="369" width="3" height="1" fill="#39ff14"/>
<rect x="298" y="369" width="3" height="1" fill="#39ff14"/>
<rect x="307" y="369" width="4" height="1" fill="#39ff14"/>
<rect x="317" y="369" width="3" height="1" fill="#39ff14"/>
<rect x="327" y="369" width="3" height="1" fill="#39ff14"/>
<rect x="336" y="369" width="3" height="1" fill="#39ff14"/>
<rect x="345" y="369" width="4" height="1" fill="#39ff14"/>
<rect x="354" y="369" width="4" height="1" fill="#39ff14"/>
<rect x="156" y="370" width="2" height="1" fill="#39ff14"/>
<rect x="163" y="370" width="4" height="1" fill="#39ff14"/>
<rect x="173" y="370" width="5" height="1" fill="#39ff14"/>
<rect x="181" y="370" width="5" height="1" fill="#39ff14"/>
<rect x="192" y="370" width="4" height="1" fill="#39ff14"/>
<rect x="200" y="370" width="4" height="1" fill="#39ff14"/>
<rect x="211" y="370" width="4" height="1" fill="#39ff14"/>
<rect x="222" y="370" width="3" height="1" fill="#39ff14"/>
<rect x="231" y="370" width="4" height="1" fill="#39ff14"/>
<rect x="242" y="370" width="1" height="1" fill="#39ff14"/>
<rect x="248" y="370" width="4" height="1" fill="#39ff14"/>
<rect x="259" y="370" width="3" height="1" fill="#39ff14"/>
<rect x="270" y="370" width="3" height="1" fill="#39ff14"/>
<rect x="279" y="370" width="4" height="1" fill="#39ff14"/>
<rect x="287" y="370" width="5" height="1" fill="#39ff14"/>
<rect x="298" y="370" width="3" height="1" fill="#39ff14"/>
<rect x="307" y="370" width="4" height="1" fill="#39ff14"/>
<rect x="317" y="370" width="3" height="1" fill="#39ff14"/>
<rect x="327" y="370" width="3" height="1" fill="#39ff14"/>
<rect x="336" y="370" width="3" height="1" fill="#39ff14"/>
<rect x="345" y="370" width="4" height="1" fill="#39ff14"/>
<rect x="355" y="370" width="4" height="1" fill="#39ff14"/>
<rect x="363" y="370" width="2" height="1" fill="#39ff14"/>
<rect x="154" y="371" width="12" height="1" fill="#39ff14"/>
<rect x="173" y="371" width="12" height="1" fill="#39ff14"/>
<rect x="192" y="371" width="12" height="1" fill="#39ff14"/>
<rect x="211" y="371" width="6" height="1" fill="#39ff14"/>
<rect x="222" y="371" width="3" height="1" fill="#39ff14"/>
<rect x="231" y="371" width="4" height="1" fill="#39ff14"/>
<rect x="240" y="371" width="12" height="1" fill="#39ff14"/>
<rect x="259" y="371" width="6" height="1" fill="#39ff14"/>
<rect x="270" y="371" width="3" height="1" fill="#39ff14"/>
<rect x="280" y="371" width="11" height="1" fill="#39ff14"/>
<rect x="298" y="371" width="3" height="1" fill="#39ff14"/>
<rect x="307" y="371" width="4" height="1" fill="#39ff14"/>
<rect x="317" y="371" width="3" height="1" fill="#39ff14"/>
<rect x="327" y="371" width="3" height="1" fill="#39ff14"/>
<rect x="336" y="371" width="3" height="1" fill="#39ff14"/>
<rect x="345" y="371" width="4" height="1" fill="#39ff14"/>
<rect x="355" y="371" width="12" height="1" fill="#39ff14"/>
<rect x="155" y="372" width="10" height="1" fill="#39ff14"/>
<rect x="173" y="372" width="11" height="1" fill="#39ff14"/>
<rect x="193" y="372" width="10" height="1" fill="#39ff14"/>
<rect x="211" y="372" width="6" height="1" fill="#39ff14"/>
<rect x="222" y="372" width="3" height="1" fill="#39ff14"/>
<rect x="231" y="372" width="4" height="1" fill="#39ff14"/>
<rect x="241" y="372" width="10" height="1" fill="#39ff14"/>
<rect x="259" y="372" width="6" height="1" fill="#39ff14"/>
<rect x="270" y="372" width="3" height="1" fill="#39ff14"/>
<rect x="281" y="372" width="9" height="1" fill="#39ff14"/>
<rect x="298" y="372" width="3" height="1" fill="#39ff14"/>
<rect x="307" y="372" width="4" height="1" fill="#39ff14"/>
<rect x="317" y="372" width="3" height="1" fill="#39ff14"/>
<rect x="327" y="372" width="3" height="1" fill="#39ff14"/>
<rect x="336" y="372" width="3" height="1" fill="#39ff14"/>
<rect x="345" y="372" width="4" height="1" fill="#39ff14"/>
<rect x="356" y="372" width="10" height="1" fill="#39ff14"/>
<rect x="157" y="373" width="7" height="1" fill="#39ff14"/>
<rect x="173" y="373" width="3" height="1" fill="#39ff14"/>
<rect x="179" y="373" width="4" height="1" fill="#39ff14"/>
<rect x="196" y="373" width="5" height="1" fill="#39ff14"/>
<rect x="213" y="373" width="4" height="1" fill="#39ff14"/>
<rect x="222" y="373" width="3" height="1" fill="#39ff14"/>
<rect x="231" y="373" width="4" height="1" fill="#39ff14"/>
<rect x="243" y="373" width="6" height="1" fill="#39ff14"/>
<rect x="260" y="373" width="5" height="1" fill="#39ff14"/>
<rect x="270" y="373" width="3" height="1" fill="#39ff14"/>
<rect x="283" y="373" width="5" height="1" fill="#39ff14"/>
<rect x="298" y="373" width="3" height="1" fill="#39ff14"/>
<rect x="307" y="373" width="4" height="1" fill="#39ff14"/>
<rect x="317" y="373" width="3" height="1" fill="#39ff14"/>
<rect x="327" y="373" width="3" height="1" fill="#39ff14"/>
<rect x="336" y="373" width="3" height="1" fill="#39ff14"/>
<rect x="345" y="373" width="4" height="1" fill="#39ff14"/>
<rect x="358" y="373" width="6" height="1" fill="#39ff14"/>
<rect x="173" y="374" width="3" height="1" fill="#39ff14"/>
<rect x="173" y="375" width="3" height="1" fill="#39ff14"/>
<rect x="173" y="376" width="3" height="1" fill="#39ff14"/>
<rect x="173" y="377" width="3" height="1" fill="#39ff14"/>
<rect x="173" y="378" width="3" height="1" fill="#39ff14"/>
<rect x="173" y="379" width="3" height="1" fill="#39ff14"/>
</svg>