<svg xmlns="http://www.w3.org/2000/svg" width="512" height="512" viewBox="0 0 512 512">
<rect width="512" height="512" rx="80" fill="#0a0a0f"/>
<rect x="251" y="66" width="33" height="2" fill="#39ff14"/>
<rect x="245" y="68" width="46" height="2" fill="#39ff14"/>
<rect x="239" y="70" width="57" height="1" fill="#39ff14"/>
<rect x="236" y="71" width="65" height="2" fill="#39ff14"/>
<rect x="231" y="73" width="73" height="2" fill="#39ff14"/>
<rect x="228" y="75" width="79" height="1" fill="#39ff14"/>
<rect x="226" y="76" width="85" height="2" fill="#39ff14"/>
<rect x="223" y="78" width="90" height="2" fill="#39ff14"/>
<rect x="221" y="80" width="95" height="2" fill="#39ff14"/>
<rect x="217" y="82" width="101" height="1" fill="#39ff14"/>
<rect x="216" y="83" width="103" height="2" fill="#39ff14"/>
<rect x="214" y="85" width="109" height="2" fill="#39ff14"/>
<rect x="212" y="87" width="53" height="1" fill="#39ff14"/>
<rect x="272" y="87" width="53" height="1" fill="#39ff14"/>
<rect x="211" y="88" width="42" height="2" fill="#39ff14"/>
<rect x="282" y="88" width="44" height="2" fill="#39ff14"/>
<rect x="209" y="90" width="39" height="2" fill="#39ff14"/>
<rect x="289" y="90" width="39" height="2" fill="#39ff14"/>
<rect x="207" y="92" width="36" height="2" fill="#39ff14"/>
<rect x="292" y="92" width="38" height="2" fill="#39ff14"/>
<rect x="205" y="94" width="34" height="1" fill="#39ff14"/>
<rect x="296" y="94" width="34" height="1" fill="#39ff14"/>
<rect x="204" y="95" width="34" height="2" fill="#39ff14"/>
<rect x="299" y="95" width="32" height="2" fill="#39ff14"/>
<rect x="202" y="97" width="32" height="2" fill="#39ff14"/>
<rect x="301" y="97" width="32" height="2" fill="#39ff14"/>
<rect x="202" y="99" width="31" height="1" fill="#39ff14"/>
<rect x="304" y="99" width="31" height="1" fill="#39ff14"/>
<rect x="200" y="100" width="29" height="2" fill="#39ff14"/>
<rect x="306" y="100" width="30" height="2" fill="#39ff14"/>
<rect x="199" y="102" width="29" height="2" fill="#39ff14"/>
<rect x="307" y="102" width="29" height="2" fill="#39ff14"/>
<rect x="199" y="104" width="27" height="1" fill="#39ff14"/>
<rect x="309" y="104" width="29" height="1" fill="#39ff14"/>
<rect x="197" y="105" width="27" height="2" fill="#39ff14"/>
<rect x="311" y="105" width="27" height="2" fill="#39ff14"/>
<rect x="197" y="107" width="26" height="2" fill="#39ff14"/>
<rect x="313" y="107" width="27" height="2" fill="#39ff14"/>
<rect x="195" y="109" width="26" height="1" fill="#39ff14"/>
<rect x="314" y="109" width="26" height="1" fill="#39ff14"/>
<rect x="195" y="110" width="26" height="2" fill="#39ff14"/>
<rect x="316" y="110" width="25" height="2" fill="#39ff14"/>
<rect x="194" y="112" width="25" height="2" fill="#39ff14"/>
<rect x="316" y="112" width="25" height="2" fill="#39ff14"/>
<rect x="194" y="114" width="23" height="2" fill="#39ff14"/>
<rect x="318" y="114" width="25" height="2" fill="#39ff14"/>
<rect x="192" y="116" width="25" height="1" fill="#39ff14"/>
<rect x="319" y="116" width="24" height="1" fill="#39ff14"/>
<rect x="192" y="117" width="24" height="2" fill="#39ff14"/>
<rect x="319" y="117" width="26" height="2" fill="#39ff14"/>
<rect x="190" y="119" width="26" height="2" fill="#39ff14"/>
<rect x="262" y="119" width="13" height="2" fill="#39ff14"/>
<rect x="321" y="119" width="24" height="2" fill="#39ff14"/>
<rect x="190" y="121" width="24" height="1" fill="#39ff14"/>
<rect x="257" y="121" width="23" height="1" fill="#39ff14"/>
<rect x="321" y="121" width="24" height="1" fill="#39ff14"/>
<rect x="190" y="122" width="24" height="2" fill="#39ff14"/>
<rect x="253" y="122" width="29" height="2" fill="#39ff14"/>
<rect x="323" y="122" width="24" height="2" fill="#39ff14"/>
<rect x="190" y="124" width="22" height="2" fill="#39ff14"/>
<rect x="251" y="124" width="34" height="2" fill="#39ff14"/>
<rect x="323" y="124" width="24" height="2" fill="#39ff14"/>
<rect x="189" y="126" width="23" height="2" fill="#39ff14"/>
<rect x="250" y="126" width="37" height="2" fill="#39ff14"/>
<rect x="323" y="126" width="24" height="2" fill="#39ff14"/>
<rect x="189" y="128" width="23" height="1" fill="#39ff14"/>
<rect x="248" y="128" width="41" height="1" fill="#39ff14"/>
<rect x="325" y="128" width="22" height="1" fill="#39ff14"/>
<rect x="189" y="129" width="22" height="2" fill="#39ff14"/>
<rect x="246" y="129" width="45" height="2" fill="#39ff14"/>
<rect x="325" y="129" width="23" height="2" fill="#39ff14"/>
<rect x="189" y="131" width="22" height="2" fill="#39ff14"/>
<rect x="245" y="131" width="46" height="2" fill="#39ff14"/>
<rect x="325" y="131" width="23" height="2" fill="#39ff14"/>
<rect x="189" y="133" width="22" height="1" fill="#39ff14"/>
<rect x="245" y="133" width="47" height="1" fill="#39ff14"/>
<rect x="326" y="133" width="22" height="1" fill="#39ff14"/>
<rect x="187" y="134" width="24" height="2" fill="#39ff14"/>
<rect x="243" y="134" width="49" height="2" fill="#39ff14"/>
<rect x="326" y="134" width="22" height="2" fill="#39ff14"/>
<rect x="187" y="136" width="24" height="2" fill="#39ff14"/>
<rect x="243" y="136" width="51" height="2" fill="#39ff14"/>
<rect x="326" y="136" width="22" height="2" fill="#39ff14"/>
<rect x="187" y="138" width="22" height="1" fill="#39ff14"/>
<rect x="243" y="138" width="51" height="1" fill="#39ff14"/>
<rect x="326" y="138" width="22" height="1" fill="#39ff14"/>
<rect x="187" y="139" width="22" height="2" fill="#39ff14"/>
<rect x="241" y="139" width="53" height="2" fill="#39ff14"/>
<rect x="326" y="139" width="22" height="2" fill="#39ff14"/>
<rect x="187" y="141" width="22" height="2" fill="#39ff14"/>
<rect x="241" y="141" width="53" height="2" fill="#39ff14"/>
<rect x="326" y="141" width="22" height="2" fill="#39ff14"/>
<rect x="187" y="143" width="22" height="1" fill="#39ff14"/>
<rect x="241" y="143" width="53" height="1" fill="#39ff14"/>
<rect x="326" y="143" width="22" height="1" fill="#39ff14"/>
<rect x="187" y="144" width="22" height="2" fill="#39ff14"/>
<rect x="241" y="144" width="53" height="2" fill="#39ff14"/>
<rect x="326" y="144" width="22" height="2" fill="#39ff14"/>
<rect x="187" y="146" width="22" height="2" fill="#39ff14"/>
<rect x="241" y="146" width="53" height="2" fill="#39ff14"/>
<rect x="326" y="146" width="22" height="2" fill="#39ff14"/>
<rect x="187" y="148" width="22" height="2" fill="#39ff14"/>
<rect x="241" y="148" width="53" height="2" fill="#39ff14"/>
<rect x="326" y="148" width="22" height="2" fill="#39ff14"/>
<rect x="187" y="150" width="22" height="1" fill="#39ff14"/>
<rect x="241" y="150" width="53" height="1" fill="#39ff14"/>
<rect x="326" y="150" width="22" height="1" fill="#39ff14"/>
<rect x="187" y="151" width="22" height="2" fill="#39ff14"/>
<rect x="243" y="151" width="51" height="2" fill="#39ff14"/>
<rect x="326" y="151" width="22" height="2" fill="#39ff14"/>
<rect x="187" y="153" width="24" height="2" fill="#39ff14"/>
<rect x="243" y="153" width="49" height="2" fill="#39ff14"/>
<rect x="326" y="153" width="22" height="2" fill="#39ff14"/>
<rect x="187" y="155" width="24" height="1" fill="#39ff14"/>
<rect x="243" y="155" width="49" height="1" fill="#39ff14"/>
<rect x="326" y="155" width="22" height="1" fill="#39ff14"/>
<rect x="189" y="156" width="22" height="2" fill="#39ff14"/>
<rect x="245" y="156" width="47" height="2" fill="#39ff14"/>
<rect x="325" y="156" width="23" height="2" fill="#39ff14"/>
<rect x="189" y="158" width="22" height="2" fill="#39ff14"/>
<rect x="246" y="158" width="45" height="2" fill="#39ff14"/>
<rect x="325" y="158" width="23" height="2" fill="#39ff14"/>
<rect x="189" y="160" width="22" height="1" fill="#39ff14"/>
<rect x="246" y="160" width="43" height="1" fill="#39ff14"/>
<rect x="325" y="160" width="23" height="1" fill="#39ff14"/>
<rect x="189" y="162" width="23" height="1" fill="#39ff14"/>
<rect x="248" y="162" width="39" height="1" fill="#39ff14"/>
<rect x="325" y="162" width="22" height="1" fill="#39ff14"/>
<rect x="189" y="163" width="23" height="2" fill="#39ff14"/>
<rect x="250" y="163" width="35" height="2" fill="#39ff14"/>
<rect x="323" y="163" width="24" height="2" fill="#39ff14"/>
<rect x="190" y="165" width="22" height="2" fill="#39ff14"/>
<rect x="251" y="165" width="33" height="2" fill="#39ff14"/>
<rect x="323" y="165" width="24" height="2" fill="#39ff14"/>
<rect x="190" y="167" width="24" height="1" fill="#39ff14"/>
<rect x="255" y="167" width="27" height="1" fill="#39ff14"/>
<rect x="323" y="167" width="22" height="1" fill="#39ff14"/>
<rect x="190" y="168" width="24" height="2" fill="#39ff14"/>
<rect x="258" y="168" width="21" height="2" fill="#39ff14"/>
<rect x="321" y="168" width="24" height="2" fill="#39ff14"/>
<rect x="192" y="170" width="24" height="2" fill="#39ff14"/>
<rect x="263" y="170" width="9" height="2" fill="#39ff14"/>
<rect x="321" y="170" width="24" height="2" fill="#39ff14"/>
<rect x="192" y="172" width="24" height="1" fill="#39ff14"/>
<rect x="319" y="172" width="24" height="1" fill="#39ff14"/>
<rect x="192" y="173" width="25" height="2" fill="#39ff14"/>
<rect x="318" y="173" width="25" height="2" fill="#39ff14"/>
<rect x="194" y="175" width="25" height="2" fill="#39ff14"/>
<rect x="318" y="175" width="25" height="2" fill="#39ff14"/>
<rect x="194" y="177" width="25" height="1" fill="#39ff14"/>
<rect x="316" y="177" width="25" height="1" fill="#39ff14"/>
<rect x="195" y="178" width="26" height="2" fill="#39ff14"/>
<rect x="314" y="178" width="27" height="2" fill="#39ff14"/>
<rect x="195" y="180" width="27" height="2" fill="#39ff14"/>
<rect x="314" y="180" width="26" height="2" fill="#39ff14"/>
<rect x="197" y="182" width="27" height="2" fill="#39ff14"/>
<rect x="313" y="182" width="27" height="2" fill="#39ff14"/>
<rect x="197" y="184" width="29" height="1" fill="#39ff14"/>
<rect x="311" y="184" width="27" height="1" fill="#39ff14"/>
<rect x="199" y="185" width="29" height="2" fill="#39ff14"/>
<rect x="309" y="185" width="29" height="2" fill="#39ff14"/>
<rect x="200" y="187" width="29" height="2" fill="#39ff14"/>
<rect x="307" y="187" width="29" height="2" fill="#39ff14"/>
<rect x="200" y="189" width="31" height="1" fill="#39ff14"/>
<rect x="306" y="189" width="29" height="1" fill="#39ff14"/>
<rect x="202" y="190" width="31" height="2" fill="#39ff14"/>
<rect x="302" y="190" width="33" height="2" fill="#39ff14"/>
<rect x="204" y="192" width="32" height="2" fill="#39ff14"/>
<rect x="301" y="192" width="32" height="2" fill="#39ff14"/>
<rect x="204" y="194" width="34" height="1" fill="#39ff14"/>
<rect x="297" y="194" width="34" height="1" fill="#39ff14"/>
<rect x="205" y="196" width="36" height="1" fill="#39ff14"/>
<rect x="294" y="196" width="36" height="1" fill="#39ff14"/>
<rect x="207" y="197" width="38" height="2" fill="#39ff14"/>
<rect x="291" y="197" width="37" height="2" fill="#39ff14"/>
<rect x="209" y="199" width="41" height="2" fill="#39ff14"/>
<rect x="285" y="199" width="41" height="2" fill="#39ff14"/>
<rect x="211" y="201" width="46" height="1" fill="#39ff14"/>
<rect x="279" y="201" width="46" height="1" fill="#39ff14"/>
<rect x="212" y="202" width="111" height="2" fill="#39ff14"/>
<rect x="214" y="204" width="107" height="2" fill="#39ff14"/>
<rect x="217" y="206" width="102" height="1" fill="#39ff14"/>
<rect x="219" y="207" width="99" height="2" fill="#39ff14"/>
<rect x="221" y="209" width="93" height="2" fill="#39ff14"/>
<rect x="224" y="211" width="89" height="1" fill="#39ff14"/>
<rect x="226" y="212" width="83" height="2" fill="#39ff14"/>
<rect x="229" y="214" width="77" height="2" fill="#39ff14"/>
<rect x="233" y="216" width="69" height="2" fill="#39ff14"/>
<rect x="238" y="218" width="61" height="1" fill="#39ff14"/>
<rect x="241" y="219" width="53" height="2" fill="#39ff14"/>
<rect x="248" y="221" width="41" height="2" fill="#39ff14"/>
<rect x="255" y="223" width="25" height="1" fill="#39ff14"/>
<rect x="257" y="224" width="22" height="2" fill="#39ff14"/>
<rect x="257" y="226" width="22" height="2" fill="#39ff14"/>
<rect x="257" y="228" width="22" height="1" fill="#39ff14"/>
<rect x="257" y="230" width="22" height="1" fill="#39ff14"/>
<rect x="257" y="231" width="22" height="2" fill="#39ff14"/>
<rect x="257" y="233" width="22" height="2" fill="#39ff14"/>
<rect x="257" y="235" width="22" height="1" fill="#39ff14"/>
<rect x="257" y="236" width="22" height="2" fill="#39ff14"/>
<rect x="257" y="238" width="22" height="2" fill="#39ff14"/>
<rect x="257" y="240" width="22" height="1" fill="#39ff14"/>
<rect x="257" y="241" width="22" height="2" fill="#39ff14"/>
<rect x="257" y="243" width="22" height="2" fill="#39ff14"/>
<rect x="257" y="245" width="22" height="1" fill="#39ff14"/>
<rect x="257" y="246" width="22" height="2" fill="#39ff14"/>
<rect x="257" y="248" width="22" height="2" fill="#39ff14"/>
<rect x="257" y="250" width="22" height="2" fill="#39ff14"/>
<rect x="257" y="252" width="22" height="1" fill="#39ff14"/>
<rect x="257" y="253" width="22" height="2" fill="#39ff14"/>
<rect x="257" y="255" width="22" height="2" fill="#39ff14"/>
<rect x="257" y="257" width="22" height="1" fill="#39ff14"/>
<rect x="257" y="258" width="22" height="2" fill="#39ff14"/>
<rect x="214" y="260" width="9" height="2" fill="#39ff14"/>
<rect x="257" y="260" width="22" height="2" fill="#39ff14"/>
<rect x="313" y="260" width="10" height="2" fill="#39ff14"/>
<rect x="212" y="262" width="14" height="2" fill="#39ff14"/>
<rect x="257" y="262" width="22" height="2" fill="#39ff14"/>
<rect x="311" y="262" width="14" height="2" fill="#39ff14"/>
<rect x="211" y="264" width="18" height="1" fill="#39ff14"/>
<rect x="257" y="264" width="22" height="1" fill="#39ff14"/>
<rect x="307" y="264" width="19" height="1" fill="#39ff14"/>
<rect x="209" y="265" width="22" height="2" fill="#39ff14"/>
<rect x="257" y="265" width="22" height="2" fill="#39ff14"/>
<rect x="306" y="265" width="20" height="2" fill="#39ff14"/>
<rect x="209" y="267" width="25" height="2" fill="#39ff14"/>
<rect x="257" y="267" width="22" height="2" fill="#39ff14"/>
<rect x="302" y="267" width="24" height="2" fill="#39ff14"/>
<rect x="209" y="269" width="27" height="1" fill="#39ff14"/>
<rect x="257" y="269" width="22" height="1" fill="#39ff14"/>
<rect x="299" y="269" width="27" height="1" fill="#39ff14"/>
<rect x="211" y="270" width="28" height="2" fill="#39ff14"/>
<rect x="257" y="270" width="22" height="2" fill="#39ff14"/>
<rect x="296" y="270" width="30" height="2" fill="#39ff14"/>
<rect x="211" y="272" width="32" height="2" fill="#39ff14"/>
<rect x="257" y="272" width="22" height="2" fill="#39ff14"/>
<rect x="292" y="272" width="34" height="2" fill="#39ff14"/>
<rect x="212" y="274" width="36" height="1" fill="#39ff14"/>
<rect x="257" y="274" width="22" height="1" fill="#39ff14"/>
<rect x="289" y="274" width="36" height="1" fill="#39ff14"/>
<rect x="214" y="275" width="39" height="2" fill="#39ff14"/>
<rect x="257" y="275" width="22" height="2" fill="#39ff14"/>
<rect x="282" y="275" width="41" height="2" fill="#39ff14"/>
<rect x="216" y="277" width="103" height="2" fill="#39ff14"/>
<rect x="219" y="279" width="99" height="1" fill="#39ff14"/>
<rect x="221" y="280" width="93" height="2" fill="#39ff14"/>
<rect x="224" y="282" width="89" height="2" fill="#39ff14"/>
<rect x="226" y="284" width="83" height="2" fill="#39ff14"/>
<rect x="229" y="286" width="78" height="1" fill="#39ff14"/>
<rect x="233" y="287" width="71" height="2" fill="#39ff14"/>
<rect x="236" y="289" width="63" height="2" fill="#39ff14"/>
<rect x="241" y="291" width="55" height="1" fill="#39ff14"/>
<rect x="246" y="292" width="45" height="2" fill="#39ff14"/>
<rect x="251" y="294" width="34" height="2" fill="#39ff14"/>
<rect x="257" y="296" width="22" height="2" fill="#39ff14"/>
<rect x="257" y="298" width="22" height="1" fill="#39ff14"/>
<rect x="257" y="299" width="22" height="2" fill="#39ff14"/>
<rect x="257" y="301" width="22" height="2" fill="#39ff14"/>
<rect x="257" y="303" width="22" height="1" fill="#39ff14"/>
<rect x="257" y="304" width="22" height="2" fill="#39ff14"/>
<rect x="257" y="306" width="22" height="2" fill="#39ff14"/>
<rect x="257" y="308" width="22" height="1" fill="#39ff14"/>
<rect x="257" y="309" width="22" height="2" fill="#39ff14"/>
<rect x="257" y="311" width="22" height="2" fill="#39ff14"/>
<rect x="257" y="313" width="22" height="1" fill="#39ff14"/>
<rect x="257" y="314" width="22" height="2" fill="#39ff14"/>
<rect x="257" y="316" width="22" height="2" fill="#39ff14"/>
<rect x="257" y="318" width="22" height="2" fill="#39ff14"/>
<rect x="257" y="320" width="22" height="1" fill="#39ff14"/>
<rect x="257" y="321" width="22" height="2" fill="#39ff14"/>
<rect x="257" y="323" width="22" height="2" fill="#39ff14"/>
<rect x="257" y="325" width="22" height="1" fill="#39ff14"/>
<rect x="257" y="326" width="22" height="2" fill="#39ff14"/>
<rect x="257" y="328" width="22" height="2" fill="#39ff14"/>
<rect x="257" y="330" width="22" height="2" fill="#39ff14"/>
<rect x="257" y="332" width="22" height="1" fill="#39ff14"/>
<rect x="257" y="333" width="22" height="2" fill="#39ff14"/>
<rect x="257" y="335" width="22" height="2" fill="#39ff14"/>
<rect x="257" y="337" width="22" height="1" fill="#39ff14"/>
<rect x="158" y="338" width="5" height="2" fill="#39ff14"/>
<rect x="257" y="338" width="22" height="2" fill="#39ff14"/>
<rect x="374" y="338" width="5" height="2" fill="#39ff14"/>
<rect x="156" y="340" width="12" height="2" fill="#39ff14"/>
<rect x="257" y="340" width="22" height="2" fill="#39ff14"/>
<rect x="369" y="340" width="12" height="2" fill="#39ff14"/>
<rect x="155" y="342" width="18" height="1" fill="#39ff14"/>
<rect x="257" y="342" width="22" height="1" fill="#39ff14"/>
<rect x="364" y="342" width="18" height="1" fill="#39ff14"/>
<rect x="155" y="343" width="23" height="2" fill="#39ff14"/>
<rect x="257" y="343" width="22" height="2" fill="#39ff14"/>
<rect x="359" y="343" width="23" height="2" fill="#39ff14"/>
<rect x="155" y="345" width="28" height="2" fill="#39ff14"/>
<rect x="257" y="345" width="22" height="2" fill="#39ff14"/>
<rect x="353" y="345" width="29" height="2" fill="#39ff14"/>
<rect x="155" y="347" width="34" height="1" fill="#39ff14"/>
<rect x="257" y="347" width="22" height="1" fill="#39ff14"/>
<rect x="348" y="347" width="33" height="1" fill="#39ff14"/>
<rect x="156" y="348" width="38" height="2" fill="#39ff14"/>
<rect x="257" y="348" width="22" height="2" fill="#39ff14"/>
<rect x="341" y="348" width="40" height="2" fill="#39ff14"/>
<rect x="160" y="350" width="40" height="2" fill="#39ff14"/>
<rect x="257" y="350" width="22" height="2" fill="#39ff14"/>
<rect x="335" y="350" width="42" height="2" fill="#39ff14"/>
<rect x="165" y="352" width="46" height="2" fill="#39ff14"/>
<rect x="255" y="352" width="25" height="2" fill="#39ff14"/>
<rect x="325" y="352" width="47" height="2" fill="#39ff14"/>
<rect x="170" y="354" width="197" height="1" fill="#39ff14"/>
<rect x="175" y="355" width="187" height="2" fill="#39ff14"/>
<rect x="180" y="357" width="177" height="2" fill="#39ff14"/>
<rect x="185" y="359" width="167" height="1" fill="#39ff14"/>
<rect x="192" y="360" width="153" height="2" fill="#39ff14"/>
<rect x="199" y="362" width="139" height="2" fill="#39ff14"/>
<rect x="207" y="364" width="123" height="2" fill="#39ff14"/>
<rect x="202" y="377" width="15" height="2" fill="#39ff14"/>
<rect x="319" y="377" width="14" height="2" fill="#39ff14"/>
<rect x="199" y="379" width="22" height="2" fill="#39ff14"/>
<rect x="316" y="379" width="20" height="2" fill="#39ff14"/>
<rect x="197" y="381" width="26" height="1" fill="#39ff14"/>
<rect x="314" y="381" width="24" height="1" fill="#39ff14"/>
<rect x="195" y="382" width="29" height="2" fill="#39ff14"/>
<rect x="313" y="382" width="27" height="2" fill="#39ff14"/>
<rect x="194" y="384" width="30" height="2" fill="#39ff14"/>
<rect x="311" y="384" width="30" height="2" fill="#39ff14"/>
<rect x="194" y="386" width="10" height="2" fill="#39ff14"/>
<rect x="216" y="386" width="10" height="2" fill="#39ff14"/>
<rect x="309" y="386" width="12" height="2" fill="#39ff14"/>
<rect x="331" y="386" width="12" height="2" fill="#39ff14"/>
<rect x="192" y="388" width="10" height="1" fill="#39ff14"/>
<rect x="217" y="388" width="9" height="1" fill="#39ff14"/>
<rect x="309" y="388" width="10" height="1" fill="#39ff14"/>
<rect x="333" y="388" width="10" height="1" fill="#39ff14"/>
<rect x="192" y="389" width="10" height="2" fill="#39ff14"/>
<rect x="217" y="389" width="11" height="2" fill="#39ff14"/>
<rect x="309" y="389" width="9" height="2" fill="#39ff14"/>
<rect x="335" y="389" width="8" height="2" fill="#39ff14"/>
<rect x="192" y="391" width="8" height="2" fill="#39ff14"/>
<rect x="219" y="391" width="9" height="2" fill="#39ff14"/>
<rect x="309" y="391" width="9" height="2" fill="#39ff14"/>
<rect x="335" y="391" width="8" height="2" fill="#39ff14"/>
<rect x="192" y="393" width="8" height="1" fill="#39ff14"/>
<rect x="219" y="393" width="9" height="1" fill="#39ff14"/>
<rect x="307" y="393" width="11" height="1" fill="#39ff14"/>
<rect x="335" y="393" width="10" height="1" fill="#39ff14"/>
<rect x="192" y="394" width="8" height="2" fill="#39ff14"/>
<rect x="219" y="394" width="9" height="2" fill="#39ff14"/>
<rect x="307" y="394" width="11" height="2" fill="#39ff14"/>
<rect x="335" y="394" width="10" height="2" fill="#39ff14"/>
<rect x="192" y="396" width="8" height="2" fill="#39ff14"/>
<rect x="219" y="396" width="9" height="2" fill="#39ff14"/>
<rect x="309" y="396" width="9" height="2" fill="#39ff14"/>
<rect x="335" y="396" width="8" height="2" fill="#39ff14"/>
<rect x="192" y="398" width="10" height="2" fill="#39ff14"/>
<rect x="217" y="398" width="11" height="2" fill="#39ff14"/>
<rect x="309" y="398" width="9" height="2" fill="#39ff14"/>
<rect x="335" y="398" width="8" height="2" fill="#39ff14"/>
<rect x="194" y="400" width="8" height="1" fill="#39ff14"/>
<rect x="216" y="400" width="10" height="1" fill="#39ff14"/>
<rect x="309" y="400" width="10" height="1" fill="#39ff14"/>
<rect x="333" y="400" width="10" height="1" fill="#39ff14"/>
<rect x="194" y="401" width="11" height="2" fill="#39ff14"/>
<rect x="214" y="401" width="12" height="2" fill="#39ff14"/>
<rect x="311" y="401" width="10" height="2" fill="#39ff14"/>
<rect x="331" y="401" width="10" height="2" fill="#39ff14"/>
<rect x="195" y="403" width="29" height="2" fill="#39ff14"/>
<rect x="311" y="403" width="30" height="2" fill="#39ff14"/>
<rect x="195" y="405" width="29" height="1" fill="#39ff14"/>
<rect x="313" y="405" width="27" height="1" fill="#39ff14"/>
<rect x="197" y="406" width="26" height="2" fill="#39ff14"/>
<rect x="314" y="406" width="24" height="2" fill="#39ff14"/>
<rect x="200" y="408" width="19" height="2" fill="#39ff14"/>
<rect x="316" y="408" width="20" height="2" fill="#39ff14"/>
<rect x="204" y="410" width="12" height="1" fill="#39ff14"/>
<rect x="319" y="410" width="14" height="1" fill="#39ff14"/>
<rect x="199" y="423" width="5" height="2" fill="#39ff14"/>
<rect x="214" y="423" width="7" height="2" fill="#39ff14"/>
<rect x="360" y="423" width="5" height="2" fill="#39ff14"/>
<rect x="377" y="423" width="5" height="2" fill="#39ff14"/>
<rect x="182" y="425" width="3" height="2" fill="#39ff14"/>
<rect x="199" y="425" width="5" height="2" fill="#39ff14"/>
<rect x="214" y="425" width="7" height="2" fill="#39ff14"/>
<rect x="263" y="425" width="4" height="2" fill="#39ff14"/>
<rect x="360" y="425" width="5" height="2" fill="#39ff14"/>
<rect x="377" y="425" width="5" height="2" fill="#39ff14"/>
<rect x="180" y="427" width="5" height="1" fill="#39ff14"/>
<rect x="199" y="427" width="5" height="1" fill="#39ff14"/>
<rect x="214" y="427" width="7" height="1" fill="#39ff14"/>
<rect x="262" y="427" width="5" height="1" fill="#39ff14"/>
<rect x="360" y="427" width="5" height="1" fill="#39ff14"/>
<rect x="377" y="427" width="5" height="1" fill="#39ff14"/>
<rect x="180" y="428" width="5" height="2" fill="#39ff14"/>
<rect x="199" y="428" width="5" height="2" fill="#39ff14"/>
<rect x="262" y="428" width="5" height="2" fill="#39ff14"/>
<rect x="360" y="428" width="5" height="2" fill="#39ff14"/>
<rect x="180" y="430" width="5" height="2" fill="#39ff14"/>
<rect x="199" y="430" width="5" height="2" fill="#39ff14"/>
<rect x="262" y="430" width="5" height="2" fill="#39ff14"/>
<rect x="360" y="430" width="5" height="2" fill="#39ff14"/>
<rect x="88" y="432" width="12" height="2" fill="#39ff14"/>
<rect x="115" y="432" width="5" height="2" fill="#39ff14"/>
<rect x="124" y="432" width="8" height="2" fill="#39ff14"/>
<rect x="155" y="432" width="8" height="2" fill="#39ff14"/>
<rect x="177" y="432" width="13" height="2" fill="#39ff14"/>
<rect x="199" y="432" width="5" height="2" fill="#39ff14"/>
<rect x="214" y="432" width="7" height="2" fill="#39ff14"/>
<rect x="234" y="432" width="11" height="2" fill="#39ff14"/>
<rect x="258" y="432" width="14" height="2" fill="#39ff14"/>
<rect x="302" y="432" width="9" height="2" fill="#39ff14"/>
<rect x="328" y="432" width="5" height="2" fill="#39ff14"/>
<rect x="338" y="432" width="7" height="2" fill="#39ff14"/>
<rect x="360" y="432" width="5" height="2" fill="#39ff14"/>
<rect x="377" y="432" width="5" height="2" fill="#39ff14"/>
<rect x="393" y="432" width="5" height="2" fill="#39ff14"/>
<rect x="403" y="432" width="6" height="2" fill="#39ff14"/>
<rect x="430" y="432" width="8" height="2" fill="#39ff14"/>
<rect x="87" y="434" width="16" height="1" fill="#39ff14"/>
<rect x="115" y="434" width="19" height="1" fill="#39ff14"/>
<rect x="151" y="434" width="15" height="1" fill="#39ff14"/>
<rect x="177" y="434" width="13" height="1" fill="#39ff14"/>
<rect x="199" y="434" width="5" height="1" fill="#39ff14"/>
<rect x="214" y="434" width="7" height="1" fill="#39ff14"/>
<rect x="231" y="434" width="17" height="1" fill="#39ff14"/>
<rect x="258" y="434" width="14" height="1" fill="#39ff14"/>
<rect x="299" y="434" width="15" height="1" fill="#39ff14"/>
<rect x="328" y="434" width="20" height="1" fill="#39ff14"/>
<rect x="360" y="434" width="5" height="1" fill="#39ff14"/>
<rect x="377" y="434" width="5" height="1" fill="#39ff14"/>
<rect x="393" y="434" width="20" height="1" fill="#39ff14"/>
<rect x="427" y="434" width="15" height="1" fill="#39ff14"/>
<rect x="85" y="435" width="18" height="2" fill="#39ff14"/>
<rect x="115" y="435" width="21" height="2" fill="#39ff14"/>
<rect x="148" y="435" width="20" height="2" fill="#39ff14"/>
<rect x="177" y="435" width="13" height="2" fill="#39ff14"/>
<rect x="199" y="435" width="5" height="2" fill="#39ff14"/>
<rect x="214" y="435" width="7" height="2" fill="#39ff14"/>
<rect x="229" y="435" width="21" height="2" fill="#39ff14"/>
<rect x="258" y="435" width="14" height="2" fill="#39ff14"/>
<rect x="297" y="435" width="19" height="2" fill="#39ff14"/>
<rect x="328" y="435" width="20" height="2" fill="#39ff14"/>
<rect x="360" y="435" width="5" height="2" fill="#39ff14"/>
<rect x="377" y="435" width="5" height="2" fill="#39ff14"/>
<rect x="393" y="435" width="20" height="2" fill="#39ff14"/>
<rect x="425" y="435" width="18" height="2" fill="#39ff14"/>
<rect x="83" y="437" width="7" height="2" fill="#39ff14"/>
<rect x="98" y="437" width="2" height="2" fill="#39ff14"/>
<rect x="115" y="437" width="9" height="2" fill="#39ff14"/>
<rect x="129" y="437" width="8" height="2" fill="#39ff14"/>
<rect x="148" y="437" width="7" height="2" fill="#39ff14"/>
<rect x="161" y="437" width="7" height="2" fill="#39ff14"/>
<rect x="180" y="437" width="5" height="2" fill="#39ff14"/>
<rect x="199" y="437" width="5" height="2" fill="#39ff14"/>
<rect x="214" y="437" width="7" height="2" fill="#39ff14"/>
<rect x="229" y="437" width="5" height="2" fill="#39ff14"/>
<rect x="243" y="437" width="3" height="2" fill="#39ff14"/>
<rect x="262" y="437" width="5" height="2" fill="#39ff14"/>
<rect x="296" y="437" width="6" height="2" fill="#39ff14"/>
<rect x="309" y="437" width="9" height="2" fill="#39ff14"/>
<rect x="328" y="437" width="8" height="2" fill="#39ff14"/>
<rect x="341" y="437" width="9" height="2" fill="#39ff14"/>
<rect x="360" y="437" width="5" height="2" fill="#39ff14"/>
<rect x="377" y="437" width="5" height="2" fill="#39ff14"/>
<rect x="393" y="437" width="8" height="2" fill="#39ff14"/>
<rect x="406" y="437" width="9" height="2" fill="#39ff14"/>
<rect x="425" y="437" width="7" height="2" fill="#39ff14"/>
<rect x="438" y="437" width="5" height="2" fill="#39ff14"/>
<rect x="83" y="439" width="7" height="1" fill="#39ff14"/>
<rect x="115" y="439" width="7" height="1" fill="#39ff14"/>
<rect x="131" y="439" width="6" height="1" fill="#39ff14"/>
<rect x="146" y="439" width="7" height="1" fill="#39ff14"/>
<rect x="163" y="439" width="7" height="1" fill="#39ff14"/>
<rect x="180" y="439" width="5" height="1" fill="#39ff14"/>
<rect x="199" y="439" width="5" height="1" fill="#39ff14"/>
<rect x="214" y="439" width="7" height="1" fill="#39ff14"/>
<rect x="229" y="439" width="5" height="1" fill="#39ff14"/>
<rect x="262" y="439" width="5" height="1" fill="#39ff14"/>
<rect x="296" y="439" width="5" height="1" fill="#39ff14"/>
<rect x="313" y="439" width="5" height="1" fill="#39ff14"/>
<rect x="328" y="439" width="7" height="1" fill="#39ff14"/>
<rect x="343" y="439" width="7" height="1" fill="#39ff14"/>
<rect x="360" y="439" width="5" height="1" fill="#39ff14"/>
<rect x="377" y="439" width="5" height="1" fill="#39ff14"/>
<rect x="393" y="439" width="6" height="1" fill="#39ff14"/>
<rect x="408" y="439" width="7" height="1" fill="#39ff14"/>
<rect x="423" y="439" width="7" height="1" fill="#39ff14"/>
<rect x="438" y="439" width="7" height="1" fill="#39ff14"/>
<rect x="85" y="440" width="8" height="2" fill="#39ff14"/>
<rect x="115" y="440" width="5" height="2" fill="#39ff14"/>
<rect x="132" y="440" width="5" height="2" fill="#39ff14"/>
<rect x="146" y="440" width="5" height="2" fill="#39ff14"/>
<rect x="165" y="440" width="5" height="2" fill="#39ff14"/>
<rect x="180" y="440" width="5" height="2" fill="#39ff14"/>
<rect x="199" y="440" width="5" height="2" fill="#39ff14"/>
<rect x="214" y="440" width="7" height="2" fill="#39ff14"/>
<rect x="229" y="440" width="9" height="2" fill="#39ff14"/>
<rect x="262" y="440" width="5" height="2" fill="#39ff14"/>
<rect x="294" y="440" width="7" height="2" fill="#39ff14"/>
<rect x="313" y="440" width="6" height="2" fill="#39ff14"/>
<rect x="328" y="440" width="7" height="2" fill="#39ff14"/>
<rect x="343" y="440" width="7" height="2" fill="#39ff14"/>
<rect x="360" y="440" width="5" height="2" fill="#39ff14"/>
<rect x="377" y="440" width="5" height="2" fill="#39ff14"/>
<rect x="393" y="440" width="6" height="2" fill="#39ff14"/>
<rect x="408" y="440" width="7" height="2" fill="#39ff14"/>
<rect x="423" y="440" width="5" height="2" fill="#39ff14"/>
<rect x="440" y="440" width="5" height="2" fill="#39ff14"/>
<rect x="85" y="442" width="15" height="2" fill="#39ff14"/>
<rect x="115" y="442" width="5" height="2" fill="#39ff14"/>
<rect x="132" y="442" width="5" height="2" fill="#39ff14"/>
<rect x="146" y="442" width="5" height="2" fill="#39ff14"/>
<rect x="165" y="442" width="5" height="2" fill="#39ff14"/>
<rect x="180" y="442" width="5" height="2" fill="#39ff14"/>
<rect x="199" y="442" width="5" height="2" fill="#39ff14"/>
<rect x="214" y="442" width="7" height="2" fill="#39ff14"/>
<rect x="231" y="442" width="14" height="2" fill="#39ff14"/>
<rect x="262" y="442" width="5" height="2" fill="#39ff14"/>
<rect x="294" y="442" width="7" height="2" fill="#39ff14"/>
<rect x="313" y="442" width="6" height="2" fill="#39ff14"/>
<rect x="328" y="442" width="7" height="2" fill="#39ff14"/>
<rect x="343" y="442" width="7" height="2" fill="#39ff14"/>
<rect x="360" y="442" width="5" height="2" fill="#39ff14"/>
<rect x="377" y="442" width="5" height="2" fill="#39ff14"/>
<rect x="393" y="442" width="6" height="2" fill="#39ff14"/>
<rect x="408" y="442" width="7" height="2" fill="#39ff14"/>
<rect x="423" y="442" width="22" height="2" fill="#39ff14"/>
<rect x="87" y="444" width="16" height="1" fill="#39ff14"/>
<rect x="115" y="444" width="5" height="1" fill="#39ff14"/>
<rect x="132" y="444" width="5" height="1" fill="#39ff14"/>
<rect x="146" y="444" width="5" height="1" fill="#39ff14"/>
<rect x="165" y="444" width="5" height="1" fill="#39ff14"/>
<rect x="180" y="444" width="5" height="1" fill="#39ff14"/>
<rect x="199" y="444" width="5" height="1" fill="#39ff14"/>
<rect x="214" y="444" width="7" height="1" fill="#39ff14"/>
<rect x="233" y="444" width="15" height="1" fill="#39ff14"/>
<rect x="262" y="444" width="5" height="1" fill="#39ff14"/>
<rect x="294" y="444" width="5" height="1" fill="#39ff14"/>
<rect x="313" y="444" width="6" height="1" fill="#39ff14"/>
<rect x="328" y="444" width="5" height="1" fill="#39ff14"/>
<rect x="343" y="444" width="7" height="1" fill="#39ff14"/>
<rect x="360" y="444" width="5" height="1" fill="#39ff14"/>
<rect x="377" y="444" width="5" height="1" fill="#39ff14"/>
<rect x="393" y="444" width="5" height="1" fill="#39ff14"/>
<rect x="408" y="444" width="7" height="1" fill="#39ff14"/>
<rect x="423" y="444" width="22" height="1" fill="#39ff14"/>
<rect x="92" y="445" width="13" height="2" fill="#39ff14"/>
<rect x="115" y="445" width="5" height="2" fill="#39ff14"/>
<rect x="132" y="445" width="5" height="2" fill="#39ff14"/>
<rect x="146" y="445" width="5" height="2" fill="#39ff14"/>
<rect x="165" y="445" width="5" height="2" fill="#39ff14"/>
<rect x="180" y="445" width="5" height="2" fill="#39ff14"/>
<rect x="199" y="445" width="5" height="2" fill="#39ff14"/>
<rect x="214" y="445" width="7" height="2" fill="#39ff14"/>
<rect x="236" y="445" width="14" height="2" fill="#39ff14"/>
<rect x="262" y="445" width="5" height="2" fill="#39ff14"/>
<rect x="294" y="445" width="7" height="2" fill="#39ff14"/>
<rect x="313" y="445" width="6" height="2" fill="#39ff14"/>
<rect x="328" y="445" width="5" height="2" fill="#39ff14"/>
<rect x="343" y="445" width="7" height="2" fill="#39ff14"/>
<rect x="360" y="445" width="5" height="2" fill="#39ff14"/>
<rect x="377" y="445" width="5" height="2" fill="#39ff14"/>
<rect x="393" y="445" width="5" height="2" fill="#39ff14"/>
<rect x="408" y="445" width="7" height="2" fill="#39ff14"/>
<rect x="423" y="445" width="22" height="2" fill="#39ff14"/>
<rect x="98" y="447" width="7" height="2" fill="#39ff14"/>
<rect x="115" y="447" width="5" height="2" fill="#39ff14"/>
<rect x="132" y="447" width="5" height="2" fill="#39ff14"/>
<rect x="146" y="447" width="5" height="2" fill="#39ff14"/>
<rect x="165" y="447" width="5" height="2" fill="#39ff14"/>
<rect x="180" y="447" width="5" height="2" fill="#39ff14"/>
<rect x="199" y="447" width="5" height="2" fill="#39ff14"/>
<rect x="214" y="447" width="7" height="2" fill="#39ff14"/>
<rect x="243" y="447" width="7" height="2" fill="#39ff14"/>
<rect x="262" y="447" width="5" height="2" fill="#39ff14"/>
<rect x="294" y="447" width="7" height="2" fill="#39ff14"/>
<rect x="313" y="447" width="6" height="2" fill="#39ff14"/>
<rect x="328" y="447" width="5" height="2" fill="#39ff14"/>
<rect x="343" y="447" width="7" height="2" fill="#39ff14"/>
<rect x="360" y="447" width="5" height="2" fill="#39ff14"/>
<rect x="377" y="447" width="5" height="2" fill="#39ff14"/>
<rect x="393" y="447" width="5" height="2" fill="#39ff14"/>
<rect x="408" y="447" width="7" height="2" fill="#39ff14"/>
<rect x="423" y="447" width="5" height="2" fill="#39ff14"/>
<rect x="98" y="449" width="7" height="1" fill="#39ff14"/>
<rect x="115" y="449" width="7" height="1" fill="#39ff14"/>
<rect x="131" y="449" width="6" height="1" fill="#39ff14"/>
<rect x="146" y="449" width="7" height="1" fill="#39ff14"/>
<rect x="163" y="449" width="7" height="1" fill="#39ff14"/>
<rect x="180" y="449" width="5" height="1" fill="#39ff14"/>
<rect x="199" y="449" width="5" height="1" fill="#39ff14"/>
<rect x="214" y="449" width="7" height="1" fill="#39ff14"/>
<rect x="245" y="449" width="5" height="1" fill="#39ff14"/>
<rect x="262" y="449" width="5" height="1" fill="#39ff14"/>
<rect x="296" y="449" width="5" height="1" fill="#39ff14"/>
<rect x="313" y="449" width="5" height="1" fill="#39ff14"/>
<rect x="328" y="449" width="5" height="1" fill="#39ff14"/>
<rect x="343" y="449" width="7" height="1" fill="#39ff14"/>
<rect x="360" y="449" width="5" height="1" fill="#39ff14"/>
<rect x="377" y="449" width="5" height="1" fill="#39ff14"/>
<rect x="393" y="449" width="5" height="1" fill="#39ff14"/>
<rect x="408" y="449" width="7" height="1" fill="#39ff14"/>
<rect x="423" y="449" width="7" height="1" fill="#39ff14"/>
<rect x="87" y="450" width="3" height="2" fill="#39ff14"/>
<rect x="98" y="450" width="7" height="2" fill="#39ff14"/>
<rect x="115" y="450" width="9" height="2" fill="#39ff14"/>
<rect x="129" y="450" width="8" height="2" fill="#39ff14"/>
<rect x="148" y="450" width="7" height="2" fill="#39ff14"/>
<rect x="161" y="450" width="7" height="2" fill="#39ff14"/>
<rect x="180" y="450" width="7" height="2" fill="#39ff14"/>
<rect x="199" y="450" width="5" height="2" fill="#39ff14"/>
<rect x="214" y="450" width="7" height="2" fill="#39ff14"/>
<rect x="233" y="450" width="1" height="2" fill="#39ff14"/>
<rect x="243" y="450" width="7" height="2" fill="#39ff14"/>
<rect x="262" y="450" width="5" height="2" fill="#39ff14"/>
<rect x="280" y="450" width="5" height="2" fill="#39ff14"/>
<rect x="296" y="450" width="6" height="2" fill="#39ff14"/>
<rect x="309" y="450" width="9" height="2" fill="#39ff14"/>
<rect x="328" y="450" width="5" height="2" fill="#39ff14"/>
<rect x="343" y="450" width="7" height="2" fill="#39ff14"/>
<rect x="360" y="450" width="5" height="2" fill="#39ff14"/>
<rect x="377" y="450" width="5" height="2" fill="#39ff14"/>
<rect x="393" y="450" width="5" height="2" fill="#39ff14"/>
<rect x="408" y="450" width="7" height="2" fill="#39ff14"/>
<rect x="425" y="450" width="7" height="2" fill="#39ff14"/>
<rect x="438" y="450" width="4" height="2" fill="#39ff14"/>
<rect x="83" y="452" width="20" height="2" fill="#39ff14"/>
<rect x="115" y="452" width="21" height="2" fill="#39ff14"/>
<rect x="148" y="452" width="20" height="2" fill="#39ff14"/>
<rect x="180" y="452" width="10" height="2" fill="#39ff14"/>
<rect x="199" y="452" width="5" height="2" fill="#39ff14"/>
<rect x="214" y="452" width="7" height="2" fill="#39ff14"/>
<rect x="229" y="452" width="21" height="2" fill="#39ff14"/>
<rect x="262" y="452" width="10" height="2" fill="#39ff14"/>
<rect x="280" y="452" width="5" height="2" fill="#39ff14"/>
<rect x="297" y="452" width="19" height="2" fill="#39ff14"/>
<rect x="328" y="452" width="5" height="2" fill="#39ff14"/>
<rect x="343" y="452" width="7" height="2" fill="#39ff14"/>
<rect x="360" y="452" width="5" height="2" fill="#39ff14"/>
<rect x="377" y="452" width="5" height="2" fill="#39ff14"/>
<rect x="393" y="452" width="5" height="2" fill="#39ff14"/>
<rect x="408" y="452" width="7" height="2" fill="#39ff14"/>
<rect x="425" y="452" width="20" height="2" fill="#39ff14"/>
<rect x="85" y="454" width="17" height="2" fill="#39ff14"/>
<rect x="115" y="454" width="19" height="2" fill="#39ff14"/>
<rect x="149" y="454" width="17" height="2" fill="#39ff14"/>
<rect x="180" y="454" width="10" height="2" fill="#39ff14"/>
<rect x="199" y="454" width="5" height="2" fill="#39ff14"/>
<rect x="214" y="454" width="7" height="2" fill="#39ff14"/>
<rect x="231" y="454" width="17" height="2" fill="#39ff14"/>
<rect x="262" y="454" width="10" height="2" fill="#39ff14"/>
<rect x="280" y="454" width="5" height="2" fill="#39ff14"/>
<rect x="299" y="454" width="15" height="2" fill="#39ff14"/>
<rect x="328" y="454" width="5" height="2" fill="#39ff14"/>
<rect x="343" y="454" width="7" height="2" fill="#39ff14"/>
<rect x="360" y="454" width="5" height="2" fill="#39ff14"/>
<rect x="377" y="454" width="5" height="2" fill="#39ff14"/>
<rect x="393" y="454" width="5" height="2" fill="#39ff14"/>
<rect x="408" y="454" width="7" height="2" fill="#39ff14"/>
<rect x="427" y="454" width="16" height="2" fill="#39ff14"/>
<rect x="88" y="456" width="12" height="1" fill="#39ff14"/>
<rect x="115" y="456" width="5" height="1" fill="#39ff14"/>
<rect x="126" y="456" width="6" height="1" fill="#39ff14"/>
<rect x="155" y="456" width="8" height="1" fill="#39ff14"/>
<rect x="183" y="456" width="7" height="1" fill="#39ff14"/>
<rect x="199" y="456" width="5" height="1" fill="#39ff14"/>
<rect x="214" y="456" width="7" height="1" fill="#39ff14"/>
<rect x="234" y="456" width="11" height="1" fill="#39ff14"/>
<rect x="263" y="456" width="9" height="1" fill="#39ff14"/>
<rect x="280" y="456" width="5" height="1" fill="#39ff14"/>
<rect x="302" y="456" width="9" height="1" fill="#39ff14"/>
<rect x="328" y="456" width="5" height="1" fill="#39ff14"/>
<rect x="343" y="456" width="7" height="1" fill="#39ff14"/>
<rect x="360" y="456" width="5" height="1" fill="#39ff14"/>
<rect x="377" y="456" width="5" height="1" fill="#39ff14"/>
<rect x="393" y="456" width="5" height="1" fill="#39ff14"/>
<rect x="408" y="456" width="7" height="1" fill="#39ff14"/>
<rect x="430" y="456" width="10" height="1" fill="#39ff14"/>
<rect x="115" y="457" width="5" height="2" fill="#39ff14"/>
<rect x="115" y="459" width="5" height="2" fill="#39ff14"/>
<rect x="115" y="461" width="5" height="1" fill="#39ff14"/>
<rect x="115" y="462" width="5" height="2" fill="#39ff14"/>
<rect x="115" y="464" width="5" height="2" fill="#39ff14"/>
<rect x="115" y="466" width="5" height="2" fill="#39ff14"/>
</svg>