<svg xmlns="http://www.w3.org/2000/svg" width="800" height="1000" viewBox="0 0 800 1000">
  <rect width="800" height="1000" rx="100" fill="#0a0a0f"/>

  <g transform="translate(67, 70) scale(1.3)">
    <circle cx="256" cy="95" r="56" fill="none" stroke="#39ff14" stroke-width="20"/>
    <circle cx="256" cy="95" r="24" fill="none" stroke="#39ff14" stroke-width="12"/>
    <path d="M256 153 L256 210" stroke="#39ff14" stroke-width="20"/>
    <path d="M220 180 Q256 210 292 180" stroke="#39ff14" stroke-width="16" fill="none" stroke-linecap="round"/>
    <path d="M256 210 L256 240" stroke="#39ff14" stroke-width="14"/>
    <path d="M205 225 Q256 248 307 225" stroke="#39ff14" stroke-width="12" fill="none" stroke-linecap="round"/>
    <path d="M256 240 L256 280" stroke="#39ff14" stroke-width="12"/>
    <path d="M170 270 Q256 295 342 270" stroke="#39ff14" stroke-width="10" fill="none" stroke-linecap="round"/>
    <path d="M256 280 L256 340" stroke="#39ff14" stroke-width="10"/>
    <path d="M256 340 L256 355" stroke="#39ff14" stroke-width="16"/>
    <path d="M130 388 Q200 420 256 420 Q312 420 382 388" stroke="#39ff14" stroke-width="14" fill="none" stroke-linecap="round"/>
    <circle cx="175" cy="445" r="14" fill="none" stroke="#39ff14" stroke-width="9"/>
    <circle cx="337" cy="445" r="14" fill="none" stroke="#39ff14" stroke-width="9"/>
    <line x1="256" y1="420" x2="256" y2="428" stroke="#39ff14" stroke-width="10" stroke-linecap="round"/>
    <line x1="175" y1="428" x2="337" y2="428" stroke="#39ff14" stroke-width="10" stroke-linecap="round"/>
  </g>

  <text x="400" y="760" text-anchor="middle" font-family="'Helvetica Neue', Helvetica, Arial, sans-serif" font-size="64" font-weight="700" fill="#39ff14" letter-spacing="4">
    spotlist.online
  </text>
</svg>
