<svg xmlns="http://www.w3.org/2000/svg" width="800" height="1000" viewBox="0 0 800 1000">
<rect width="800" height="1000" rx="100" fill="#0a0a0f"/>
<rect x="395" y="-23" width="38" height="2" fill="#39ff14"/>
<rect x="387" y="-21" width="54" height="2" fill="#39ff14"/>
<rect x="381" y="-19" width="66" height="2" fill="#39ff14"/>
<rect x="377" y="-17" width="76" height="2" fill="#39ff14"/>
<rect x="371" y="-15" width="86" height="2" fill="#39ff14"/>
<rect x="367" y="-13" width="94" height="2" fill="#39ff14"/>
<rect x="365" y="-11" width="100" height="2" fill="#39ff14"/>
<rect x="361" y="-9" width="106" height="2" fill="#39ff14"/>
<rect x="359" y="-7" width="112" height="2" fill="#39ff14"/>
<rect x="355" y="-5" width="118" height="2" fill="#39ff14"/>
<rect x="353" y="-3" width="122" height="2" fill="#39ff14"/>
<rect x="351" y="-1" width="128" height="2" fill="#39ff14"/>
<rect x="349" y="1" width="62" height="2" fill="#39ff14"/>
<rect x="419" y="1" width="62" height="2" fill="#39ff14"/>
<rect x="347" y="3" width="50" height="2" fill="#39ff14"/>
<rect x="431" y="3" width="52" height="2" fill="#39ff14"/>
<rect x="345" y="5" width="46" height="2" fill="#39ff14"/>
<rect x="439" y="5" width="46" height="2" fill="#39ff14"/>
<rect x="343" y="7" width="42" height="2" fill="#39ff14"/>
<rect x="443" y="7" width="44" height="2" fill="#39ff14"/>
<rect x="341" y="9" width="40" height="2" fill="#39ff14"/>
<rect x="447" y="9" width="40" height="2" fill="#39ff14"/>
<rect x="339" y="11" width="40" height="2" fill="#39ff14"/>
<rect x="451" y="11" width="38" height="2" fill="#39ff14"/>
<rect x="337" y="13" width="38" height="2" fill="#39ff14"/>
<rect x="453" y="13" width="38" height="2" fill="#39ff14"/>
<rect x="337" y="15" width="36" height="2" fill="#39ff14"/>
<rect x="457" y="15" width="36" height="2" fill="#39ff14"/>
<rect x="335" y="17" width="34" height="2" fill="#39ff14"/>
<rect x="459" y="17" width="36" height="2" fill="#39ff14"/>
<rect x="333" y="19" width="34" height="2" fill="#39ff14"/>
<rect x="461" y="19" width="34" height="2" fill="#39ff14"/>
<rect x="333" y="21" width="32" height="2" fill="#39ff14"/>
<rect x="463" y="21" width="34" height="2" fill="#39ff14"/>
<rect x="331" y="23" width="32" height="2" fill="#39ff14"/>
<rect x="465" y="23" width="32" height="2" fill="#39ff14"/>
<rect x="331" y="25" width="30" height="2" fill="#39ff14"/>
<rect x="467" y="25" width="32" height="2" fill="#39ff14"/>
<rect x="329" y="27" width="30" height="2" fill="#39ff14"/>
<rect x="469" y="27" width="30" height="2" fill="#39ff14"/>
<rect x="329" y="29" width="30" height="2" fill="#39ff14"/>
<rect x="471" y="29" width="30" height="2" fill="#39ff14"/>
<rect x="327" y="31" width="30" height="2" fill="#39ff14"/>
<rect x="471" y="31" width="30" height="2" fill="#39ff14"/>
<rect x="327" y="33" width="28" height="2" fill="#39ff14"/>
<rect x="473" y="33" width="30" height="2" fill="#39ff14"/>
<rect x="325" y="35" width="30" height="2" fill="#39ff14"/>
<rect x="475" y="35" width="28" height="2" fill="#39ff14"/>
<rect x="325" y="37" width="28" height="2" fill="#39ff14"/>
<rect x="475" y="37" width="30" height="2" fill="#39ff14"/>
<rect x="323" y="39" width="30" height="2" fill="#39ff14"/>
<rect x="407" y="39" width="16" height="2" fill="#39ff14"/>
<rect x="477" y="39" width="28" height="2" fill="#39ff14"/>
<rect x="323" y="41" width="28" height="2" fill="#39ff14"/>
<rect x="401" y="41" width="28" height="2" fill="#39ff14"/>
<rect x="477" y="41" width="28" height="2" fill="#39ff14"/>
<rect x="323" y="43" width="28" height="2" fill="#39ff14"/>
<rect x="397" y="43" width="34" height="2" fill="#39ff14"/>
<rect x="479" y="43" width="28" height="2" fill="#39ff14"/>
<rect x="323" y="45" width="26" height="2" fill="#39ff14"/>
<rect x="395" y="45" width="40" height="2" fill="#39ff14"/>
<rect x="479" y="45" width="28" height="2" fill="#39ff14"/>
<rect x="321" y="47" width="28" height="2" fill="#39ff14"/>
<rect x="393" y="47" width="44" height="2" fill="#39ff14"/>
<rect x="479" y="47" width="28" height="2" fill="#39ff14"/>
<rect x="321" y="49" width="28" height="2" fill="#39ff14"/>
<rect x="391" y="49" width="48" height="2" fill="#39ff14"/>
<rect x="481" y="49" width="26" height="2" fill="#39ff14"/>
<rect x="321" y="51" width="26" height="2" fill="#39ff14"/>
<rect x="389" y="51" width="52" height="2" fill="#39ff14"/>
<rect x="481" y="51" width="28" height="2" fill="#39ff14"/>
<rect x="321" y="53" width="26" height="2" fill="#39ff14"/>
<rect x="387" y="53" width="54" height="2" fill="#39ff14"/>
<rect x="481" y="53" width="28" height="2" fill="#39ff14"/>
<rect x="321" y="55" width="26" height="2" fill="#39ff14"/>
<rect x="387" y="55" width="56" height="2" fill="#39ff14"/>
<rect x="483" y="55" width="26" height="2" fill="#39ff14"/>
<rect x="319" y="57" width="28" height="2" fill="#39ff14"/>
<rect x="385" y="57" width="58" height="2" fill="#39ff14"/>
<rect x="483" y="57" width="26" height="2" fill="#39ff14"/>
<rect x="319" y="59" width="28" height="2" fill="#39ff14"/>
<rect x="385" y="59" width="60" height="2" fill="#39ff14"/>
<rect x="483" y="59" width="26" height="2" fill="#39ff14"/>
<rect x="319" y="61" width="26" height="2" fill="#39ff14"/>
<rect x="385" y="61" width="60" height="2" fill="#39ff14"/>
<rect x="483" y="61" width="26" height="2" fill="#39ff14"/>
<rect x="319" y="63" width="26" height="2" fill="#39ff14"/>
<rect x="383" y="63" width="62" height="2" fill="#39ff14"/>
<rect x="483" y="63" width="26" height="2" fill="#39ff14"/>
<rect x="319" y="65" width="26" height="2" fill="#39ff14"/>
<rect x="383" y="65" width="62" height="2" fill="#39ff14"/>
<rect x="483" y="65" width="26" height="2" fill="#39ff14"/>
<rect x="319" y="67" width="26" height="2" fill="#39ff14"/>
<rect x="383" y="67" width="62" height="2" fill="#39ff14"/>
<rect x="483" y="67" width="26" height="2" fill="#39ff14"/>
<rect x="319" y="69" width="26" height="2" fill="#39ff14"/>
<rect x="383" y="69" width="62" height="2" fill="#39ff14"/>
<rect x="483" y="69" width="26" height="2" fill="#39ff14"/>
<rect x="319" y="71" width="26" height="2" fill="#39ff14"/>
<rect x="383" y="71" width="62" height="2" fill="#39ff14"/>
<rect x="483" y="71" width="26" height="2" fill="#39ff14"/>
<rect x="319" y="73" width="26" height="2" fill="#39ff14"/>
<rect x="383" y="73" width="62" height="2" fill="#39ff14"/>
<rect x="483" y="73" width="26" height="2" fill="#39ff14"/>
<rect x="319" y="75" width="26" height="2" fill="#39ff14"/>
<rect x="383" y="75" width="62" height="2" fill="#39ff14"/>
<rect x="483" y="75" width="26" height="2" fill="#39ff14"/>
<rect x="319" y="77" width="26" height="2" fill="#39ff14"/>
<rect x="385" y="77" width="60" height="2" fill="#39ff14"/>
<rect x="483" y="77" width="26" height="2" fill="#39ff14"/>
<rect x="319" y="79" width="28" height="2" fill="#39ff14"/>
<rect x="385" y="79" width="58" height="2" fill="#39ff14"/>
<rect x="483" y="79" width="26" height="2" fill="#39ff14"/>
<rect x="319" y="81" width="28" height="2" fill="#39ff14"/>
<rect x="385" y="81" width="58" height="2" fill="#39ff14"/>
<rect x="483" y="81" width="26" height="2" fill="#39ff14"/>
<rect x="321" y="83" width="26" height="2" fill="#39ff14"/>
<rect x="387" y="83" width="56" height="2" fill="#39ff14"/>
<rect x="481" y="83" width="28" height="2" fill="#39ff14"/>
<rect x="321" y="85" width="26" height="2" fill="#39ff14"/>
<rect x="389" y="85" width="52" height="2" fill="#39ff14"/>
<rect x="481" y="85" width="28" height="2" fill="#39ff14"/>
<rect x="321" y="87" width="26" height="2" fill="#39ff14"/>
<rect x="389" y="87" width="50" height="2" fill="#39ff14"/>
<rect x="481" y="87" width="28" height="2" fill="#39ff14"/>
<rect x="321" y="89" width="28" height="2" fill="#39ff14"/>
<rect x="391" y="89" width="46" height="2" fill="#39ff14"/>
<rect x="481" y="89" width="26" height="2" fill="#39ff14"/>
<rect x="321" y="91" width="28" height="2" fill="#39ff14"/>
<rect x="393" y="91" width="42" height="2" fill="#39ff14"/>
<rect x="479" y="91" width="28" height="2" fill="#39ff14"/>
<rect x="323" y="93" width="26" height="2" fill="#39ff14"/>
<rect x="395" y="93" width="38" height="2" fill="#39ff14"/>
<rect x="479" y="93" width="28" height="2" fill="#39ff14"/>
<rect x="323" y="95" width="28" height="2" fill="#39ff14"/>
<rect x="399" y="95" width="32" height="2" fill="#39ff14"/>
<rect x="479" y="95" width="26" height="2" fill="#39ff14"/>
<rect x="323" y="97" width="28" height="2" fill="#39ff14"/>
<rect x="403" y="97" width="24" height="2" fill="#39ff14"/>
<rect x="477" y="97" width="28" height="2" fill="#39ff14"/>
<rect x="325" y="99" width="28" height="2" fill="#39ff14"/>
<rect x="409" y="99" width="10" height="2" fill="#39ff14"/>
<rect x="477" y="99" width="28" height="2" fill="#39ff14"/>
<rect x="325" y="101" width="28" height="2" fill="#39ff14"/>
<rect x="475" y="101" width="28" height="2" fill="#39ff14"/>
<rect x="325" y="103" width="30" height="2" fill="#39ff14"/>
<rect x="473" y="103" width="30" height="2" fill="#39ff14"/>
<rect x="327" y="105" width="30" height="2" fill="#39ff14"/>
<rect x="473" y="105" width="30" height="2" fill="#39ff14"/>
<rect x="327" y="107" width="30" height="2" fill="#39ff14"/>
<rect x="471" y="107" width="30" height="2" fill="#39ff14"/>
<rect x="329" y="109" width="30" height="2" fill="#39ff14"/>
<rect x="469" y="109" width="32" height="2" fill="#39ff14"/>
<rect x="329" y="111" width="32" height="2" fill="#39ff14"/>
<rect x="469" y="111" width="30" height="2" fill="#39ff14"/>
<rect x="331" y="113" width="32" height="2" fill="#39ff14"/>
<rect x="467" y="113" width="32" height="2" fill="#39ff14"/>
<rect x="331" y="115" width="34" height="2" fill="#39ff14"/>
<rect x="465" y="115" width="32" height="2" fill="#39ff14"/>
<rect x="333" y="117" width="34" height="2" fill="#39ff14"/>
<rect x="463" y="117" width="34" height="2" fill="#39ff14"/>
<rect x="335" y="119" width="34" height="2" fill="#39ff14"/>
<rect x="461" y="119" width="34" height="2" fill="#39ff14"/>
<rect x="335" y="121" width="36" height="2" fill="#39ff14"/>
<rect x="459" y="121" width="34" height="2" fill="#39ff14"/>
<rect x="337" y="123" width="36" height="2" fill="#39ff14"/>
<rect x="455" y="123" width="38" height="2" fill="#39ff14"/>
<rect x="339" y="125" width="38" height="2" fill="#39ff14"/>
<rect x="453" y="125" width="38" height="2" fill="#39ff14"/>
<rect x="339" y="127" width="40" height="2" fill="#39ff14"/>
<rect x="449" y="127" width="40" height="2" fill="#39ff14"/>
<rect x="341" y="129" width="42" height="2" fill="#39ff14"/>
<rect x="445" y="129" width="42" height="2" fill="#39ff14"/>
<rect x="343" y="131" width="44" height="2" fill="#39ff14"/>
<rect x="441" y="131" width="44" height="2" fill="#39ff14"/>
<rect x="345" y="133" width="48" height="2" fill="#39ff14"/>
<rect x="435" y="133" width="48" height="2" fill="#39ff14"/>
<rect x="347" y="135" width="54" height="2" fill="#39ff14"/>
<rect x="427" y="135" width="54" height="2" fill="#39ff14"/>
<rect x="349" y="137" width="130" height="2" fill="#39ff14"/>
<rect x="351" y="139" width="126" height="2" fill="#39ff14"/>
<rect x="355" y="141" width="120" height="2" fill="#39ff14"/>
<rect x="357" y="143" width="116" height="2" fill="#39ff14"/>
<rect x="359" y="145" width="110" height="2" fill="#39ff14"/>
<rect x="363" y="147" width="104" height="2" fill="#39ff14"/>
<rect x="365" y="149" width="98" height="2" fill="#39ff14"/>
<rect x="369" y="151" width="90" height="2" fill="#39ff14"/>
<rect x="373" y="153" width="82" height="2" fill="#39ff14"/>
<rect x="379" y="155" width="72" height="2" fill="#39ff14"/>
<rect x="383" y="157" width="62" height="2" fill="#39ff14"/>
<rect x="391" y="159" width="48" height="2" fill="#39ff14"/>
<rect x="399" y="161" width="30" height="2" fill="#39ff14"/>
<rect x="401" y="163" width="26" height="2" fill="#39ff14"/>
<rect x="401" y="165" width="26" height="2" fill="#39ff14"/>
<rect x="401" y="167" width="26" height="2" fill="#39ff14"/>
<rect x="401" y="169" width="26" height="2" fill="#39ff14"/>
<rect x="401" y="171" width="26" height="2" fill="#39ff14"/>
<rect x="401" y="173" width="26" height="2" fill="#39ff14"/>
<rect x="401" y="175" width="26" height="2" fill="#39ff14"/>
<rect x="401" y="177" width="26" height="2" fill="#39ff14"/>
<rect x="401" y="179" width="26" height="2" fill="#39ff14"/>
<rect x="401" y="181" width="26" height="2" fill="#39ff14"/>
<rect x="401" y="183" width="26" height="2" fill="#39ff14"/>
<rect x="401" y="185" width="26" height="2" fill="#39ff14"/>
<rect x="401" y="187" width="26" height="2" fill="#39ff14"/>
<rect x="401" y="189" width="26" height="2" fill="#39ff14"/>
<rect x="401" y="191" width="26" height="2" fill="#39ff14"/>
<rect x="401" y="193" width="26" height="2" fill="#39ff14"/>
<rect x="401" y="195" width="26" height="2" fill="#39ff14"/>
<rect x="401" y="197" width="26" height="2" fill="#39ff14"/>
<rect x="401" y="199" width="26" height="2" fill="#39ff14"/>
<rect x="401" y="201" width="26" height="2" fill="#39ff14"/>
<rect x="401" y="203" width="26" height="2" fill="#39ff14"/>
<rect x="351" y="205" width="10" height="2" fill="#39ff14"/>
<rect x="401" y="205" width="26" height="2" fill="#39ff14"/>
<rect x="467" y="205" width="12" height="2" fill="#39ff14"/>
<rect x="349" y="207" width="16" height="2" fill="#39ff14"/>
<rect x="401" y="207" width="26" height="2" fill="#39ff14"/>
<rect x="465" y="207" width="16" height="2" fill="#39ff14"/>
<rect x="347" y="209" width="22" height="2" fill="#39ff14"/>
<rect x="401" y="209" width="26" height="2" fill="#39ff14"/>
<rect x="461" y="209" width="22" height="2" fill="#39ff14"/>
<rect x="345" y="211" width="26" height="2" fill="#39ff14"/>
<rect x="401" y="211" width="26" height="2" fill="#39ff14"/>
<rect x="459" y="211" width="24" height="2" fill="#39ff14"/>
<rect x="345" y="213" width="30" height="2" fill="#39ff14"/>
<rect x="401" y="213" width="26" height="2" fill="#39ff14"/>
<rect x="455" y="213" width="28" height="2" fill="#39ff14"/>
<rect x="345" y="215" width="32" height="2" fill="#39ff14"/>
<rect x="401" y="215" width="26" height="2" fill="#39ff14"/>
<rect x="451" y="215" width="32" height="2" fill="#39ff14"/>
<rect x="347" y="217" width="34" height="2" fill="#39ff14"/>
<rect x="401" y="217" width="26" height="2" fill="#39ff14"/>
<rect x="447" y="217" width="36" height="2" fill="#39ff14"/>
<rect x="347" y="219" width="38" height="2" fill="#39ff14"/>
<rect x="401" y="219" width="26" height="2" fill="#39ff14"/>
<rect x="443" y="219" width="40" height="2" fill="#39ff14"/>
<rect x="349" y="221" width="42" height="2" fill="#39ff14"/>
<rect x="401" y="221" width="26" height="2" fill="#39ff14"/>
<rect x="439" y="221" width="42" height="2" fill="#39ff14"/>
<rect x="351" y="223" width="46" height="2" fill="#39ff14"/>
<rect x="401" y="223" width="26" height="2" fill="#39ff14"/>
<rect x="431" y="223" width="48" height="2" fill="#39ff14"/>
<rect x="353" y="225" width="122" height="2" fill="#39ff14"/>
<rect x="357" y="227" width="116" height="2" fill="#39ff14"/>
<rect x="359" y="229" width="110" height="2" fill="#39ff14"/>
<rect x="363" y="231" width="104" height="2" fill="#39ff14"/>
<rect x="365" y="233" width="98" height="2" fill="#39ff14"/>
<rect x="369" y="235" width="92" height="2" fill="#39ff14"/>
<rect x="373" y="237" width="84" height="2" fill="#39ff14"/>
<rect x="377" y="239" width="74" height="2" fill="#39ff14"/>
<rect x="383" y="241" width="64" height="2" fill="#39ff14"/>
<rect x="389" y="243" width="52" height="2" fill="#39ff14"/>
<rect x="395" y="245" width="40" height="2" fill="#39ff14"/>
<rect x="401" y="247" width="26" height="2" fill="#39ff14"/>
<rect x="401" y="249" width="26" height="2" fill="#39ff14"/>
<rect x="401" y="251" width="26" height="2" fill="#39ff14"/>
<rect x="401" y="253" width="26" height="2" fill="#39ff14"/>
<rect x="401" y="255" width="26" height="2" fill="#39ff14"/>
<rect x="401" y="257" width="26" height="2" fill="#39ff14"/>
<rect x="401" y="259" width="26" height="2" fill="#39ff14"/>
<rect x="401" y="261" width="26" height="2" fill="#39ff14"/>
<rect x="401" y="263" width="26" height="2" fill="#39ff14"/>
<rect x="401" y="265" width="26" height="2" fill="#39ff14"/>
<rect x="401" y="267" width="26" height="2" fill="#39ff14"/>
<rect x="401" y="269" width="26" height="2" fill="#39ff14"/>
<rect x="401" y="271" width="26" height="2" fill="#39ff14"/>
<rect x="401" y="273" width="26" height="2" fill="#39ff14"/>
<rect x="401" y="275" width="26" height="2" fill="#39ff14"/>
<rect x="401" y="277" width="26" height="2" fill="#39ff14"/>
<rect x="401" y="279" width="26" height="2" fill="#39ff14"/>
<rect x="401" y="281" width="26" height="2" fill="#39ff14"/>
<rect x="401" y="283" width="26" height="2" fill="#39ff14"/>
<rect x="401" y="285" width="26" height="2" fill="#39ff14"/>
<rect x="401" y="287" width="26" height="2" fill="#39ff14"/>
<rect x="401" y="289" width="26" height="2" fill="#39ff14"/>
<rect x="401" y="291" width="26" height="2" fill="#39ff14"/>
<rect x="401" y="293" width="26" height="2" fill="#39ff14"/>
<rect x="401" y="295" width="26" height="2" fill="#39ff14"/>
<rect x="285" y="297" width="6" height="2" fill="#39ff14"/>
<rect x="401" y="297" width="26" height="2" fill="#39ff14"/>
<rect x="539" y="297" width="6" height="2" fill="#39ff14"/>
<rect x="283" y="299" width="14" height="2" fill="#39ff14"/>
<rect x="401" y="299" width="26" height="2" fill="#39ff14"/>
<rect x="533" y="299" width="14" height="2" fill="#39ff14"/>
<rect x="281" y="301" width="22" height="2" fill="#39ff14"/>
<rect x="401" y="301" width="26" height="2" fill="#39ff14"/>
<rect x="527" y="301" width="22" height="2" fill="#39ff14"/>
<rect x="281" y="303" width="28" height="2" fill="#39ff14"/>
<rect x="401" y="303" width="26" height="2" fill="#39ff14"/>
<rect x="521" y="303" width="28" height="2" fill="#39ff14"/>
<rect x="281" y="305" width="34" height="2" fill="#39ff14"/>
<rect x="401" y="305" width="26" height="2" fill="#39ff14"/>
<rect x="515" y="305" width="34" height="2" fill="#39ff14"/>
<rect x="281" y="307" width="40" height="2" fill="#39ff14"/>
<rect x="401" y="307" width="26" height="2" fill="#39ff14"/>
<rect x="509" y="307" width="38" height="2" fill="#39ff14"/>
<rect x="283" y="309" width="44" height="2" fill="#39ff14"/>
<rect x="401" y="309" width="26" height="2" fill="#39ff14"/>
<rect x="501" y="309" width="46" height="2" fill="#39ff14"/>
<rect x="287" y="311" width="48" height="2" fill="#39ff14"/>
<rect x="401" y="311" width="26" height="2" fill="#39ff14"/>
<rect x="493" y="311" width="50" height="2" fill="#39ff14"/>
<rect x="293" y="313" width="54" height="2" fill="#39ff14"/>
<rect x="399" y="313" width="30" height="2" fill="#39ff14"/>
<rect x="481" y="313" width="56" height="2" fill="#39ff14"/>
<rect x="299" y="315" width="232" height="2" fill="#39ff14"/>
<rect x="305" y="317" width="220" height="2" fill="#39ff14"/>
<rect x="311" y="319" width="208" height="2" fill="#39ff14"/>
<rect x="317" y="321" width="196" height="2" fill="#39ff14"/>
<rect x="325" y="323" width="180" height="2" fill="#39ff14"/>
<rect x="333" y="325" width="164" height="2" fill="#39ff14"/>
<rect x="343" y="327" width="144" height="2" fill="#39ff14"/>
<rect x="337" y="343" width="18" height="2" fill="#39ff14"/>
<rect x="475" y="343" width="16" height="2" fill="#39ff14"/>
<rect x="333" y="345" width="26" height="2" fill="#39ff14"/>
<rect x="471" y="345" width="24" height="2" fill="#39ff14"/>
<rect x="331" y="347" width="30" height="2" fill="#39ff14"/>
<rect x="469" y="347" width="28" height="2" fill="#39ff14"/>
<rect x="329" y="349" width="34" height="2" fill="#39ff14"/>
<rect x="467" y="349" width="32" height="2" fill="#39ff14"/>
<rect x="327" y="351" width="36" height="2" fill="#39ff14"/>
<rect x="465" y="351" width="36" height="2" fill="#39ff14"/>
<rect x="327" y="353" width="12" height="2" fill="#39ff14"/>
<rect x="353" y="353" width="12" height="2" fill="#39ff14"/>
<rect x="463" y="353" width="14" height="2" fill="#39ff14"/>
<rect x="489" y="353" width="14" height="2" fill="#39ff14"/>
<rect x="325" y="355" width="12" height="2" fill="#39ff14"/>
<rect x="355" y="355" width="10" height="2" fill="#39ff14"/>
<rect x="463" y="355" width="12" height="2" fill="#39ff14"/>
<rect x="491" y="355" width="12" height="2" fill="#39ff14"/>
<rect x="325" y="357" width="12" height="2" fill="#39ff14"/>
<rect x="355" y="357" width="12" height="2" fill="#39ff14"/>
<rect x="463" y="357" width="10" height="2" fill="#39ff14"/>
<rect x="493" y="357" width="10" height="2" fill="#39ff14"/>
<rect x="325" y="359" width="10" height="2" fill="#39ff14"/>
<rect x="357" y="359" width="10" height="2" fill="#39ff14"/>
<rect x="463" y="359" width="10" height="2" fill="#39ff14"/>
<rect x="493" y="359" width="10" height="2" fill="#39ff14"/>
<rect x="325" y="361" width="10" height="2" fill="#39ff14"/>
<rect x="357" y="361" width="10" height="2" fill="#39ff14"/>
<rect x="461" y="361" width="12" height="2" fill="#39ff14"/>
<rect x="493" y="361" width="12" height="2" fill="#39ff14"/>
<rect x="325" y="363" width="10" height="2" fill="#39ff14"/>
<rect x="357" y="363" width="10" height="2" fill="#39ff14"/>
<rect x="461" y="363" width="12" height="2" fill="#39ff14"/>
<rect x="493" y="363" width="12" height="2" fill="#39ff14"/>
<rect x="325" y="365" width="10" height="2" fill="#39ff14"/>
<rect x="357" y="365" width="10" height="2" fill="#39ff14"/>
<rect x="463" y="365" width="10" height="2" fill="#39ff14"/>
<rect x="493" y="365" width="10" height="2" fill="#39ff14"/>
<rect x="325" y="367" width="12" height="2" fill="#39ff14"/>
<rect x="355" y="367" width="12" height="2" fill="#39ff14"/>
<rect x="463" y="367" width="10" height="2" fill="#39ff14"/>
<rect x="493" y="367" width="10" height="2" fill="#39ff14"/>
<rect x="327" y="369" width="10" height="2" fill="#39ff14"/>
<rect x="353" y="369" width="12" height="2" fill="#39ff14"/>
<rect x="463" y="369" width="12" height="2" fill="#39ff14"/>
<rect x="491" y="369" width="12" height="2" fill="#39ff14"/>
<rect x="327" y="371" width="14" height="2" fill="#39ff14"/>
<rect x="351" y="371" width="14" height="2" fill="#39ff14"/>
<rect x="465" y="371" width="12" height="2" fill="#39ff14"/>
<rect x="489" y="371" width="12" height="2" fill="#39ff14"/>
<rect x="329" y="373" width="34" height="2" fill="#39ff14"/>
<rect x="465" y="373" width="36" height="2" fill="#39ff14"/>
<rect x="329" y="375" width="34" height="2" fill="#39ff14"/>
<rect x="467" y="375" width="32" height="2" fill="#39ff14"/>
<rect x="331" y="377" width="30" height="2" fill="#39ff14"/>
<rect x="469" y="377" width="28" height="2" fill="#39ff14"/>
<rect x="335" y="379" width="22" height="2" fill="#39ff14"/>
<rect x="471" y="379" width="24" height="2" fill="#39ff14"/>
<rect x="339" y="381" width="14" height="2" fill="#39ff14"/>
<rect x="475" y="381" width="16" height="2" fill="#39ff14"/>
<rect x="333" y="397" width="6" height="2" fill="#39ff14"/>
<rect x="351" y="397" width="8" height="2" fill="#39ff14"/>
<rect x="523" y="397" width="6" height="2" fill="#39ff14"/>
<rect x="543" y="397" width="6" height="2" fill="#39ff14"/>
<rect x="313" y="399" width="4" height="2" fill="#39ff14"/>
<rect x="333" y="399" width="6" height="2" fill="#39ff14"/>
<rect x="351" y="399" width="8" height="2" fill="#39ff14"/>
<rect x="409" y="399" width="4" height="2" fill="#39ff14"/>
<rect x="523" y="399" width="6" height="2" fill="#39ff14"/>
<rect x="543" y="399" width="6" height="2" fill="#39ff14"/>
<rect x="311" y="401" width="6" height="2" fill="#39ff14"/>
<rect x="333" y="401" width="6" height="2" fill="#39ff14"/>
<rect x="351" y="401" width="8" height="2" fill="#39ff14"/>
<rect x="407" y="401" width="6" height="2" fill="#39ff14"/>
<rect x="523" y="401" width="6" height="2" fill="#39ff14"/>
<rect x="543" y="401" width="6" height="2" fill="#39ff14"/>
<rect x="311" y="403" width="6" height="2" fill="#39ff14"/>
<rect x="333" y="403" width="6" height="2" fill="#39ff14"/>
<rect x="407" y="403" width="6" height="2" fill="#39ff14"/>
<rect x="523" y="403" width="6" height="2" fill="#39ff14"/>
<rect x="311" y="405" width="6" height="2" fill="#39ff14"/>
<rect x="333" y="405" width="6" height="2" fill="#39ff14"/>
<rect x="407" y="405" width="6" height="2" fill="#39ff14"/>
<rect x="523" y="405" width="6" height="2" fill="#39ff14"/>
<rect x="203" y="407" width="14" height="2" fill="#39ff14"/>
<rect x="235" y="407" width="6" height="2" fill="#39ff14"/>
<rect x="245" y="407" width="10" height="2" fill="#39ff14"/>
<rect x="281" y="407" width="10" height="2" fill="#39ff14"/>
<rect x="307" y="407" width="16" height="2" fill="#39ff14"/>
<rect x="333" y="407" width="6" height="2" fill="#39ff14"/>
<rect x="351" y="407" width="8" height="2" fill="#39ff14"/>
<rect x="375" y="407" width="12" height="2" fill="#39ff14"/>
<rect x="403" y="407" width="16" height="2" fill="#39ff14"/>
<rect x="455" y="407" width="10" height="2" fill="#39ff14"/>
<rect x="485" y="407" width="6" height="2" fill="#39ff14"/>
<rect x="497" y="407" width="8" height="2" fill="#39ff14"/>
<rect x="523" y="407" width="6" height="2" fill="#39ff14"/>
<rect x="543" y="407" width="6" height="2" fill="#39ff14"/>
<rect x="561" y="407" width="6" height="2" fill="#39ff14"/>
<rect x="573" y="407" width="8" height="2" fill="#39ff14"/>
<rect x="605" y="407" width="10" height="2" fill="#39ff14"/>
<rect x="201" y="409" width="20" height="2" fill="#39ff14"/>
<rect x="235" y="409" width="22" height="2" fill="#39ff14"/>
<rect x="277" y="409" width="18" height="2" fill="#39ff14"/>
<rect x="307" y="409" width="16" height="2" fill="#39ff14"/>
<rect x="333" y="409" width="6" height="2" fill="#39ff14"/>
<rect x="351" y="409" width="8" height="2" fill="#39ff14"/>
<rect x="371" y="409" width="20" height="2" fill="#39ff14"/>
<rect x="403" y="409" width="16" height="2" fill="#39ff14"/>
<rect x="451" y="409" width="18" height="2" fill="#39ff14"/>
<rect x="485" y="409" width="24" height="2" fill="#39ff14"/>
<rect x="523" y="409" width="6" height="2" fill="#39ff14"/>
<rect x="543" y="409" width="6" height="2" fill="#39ff14"/>
<rect x="561" y="409" width="24" height="2" fill="#39ff14"/>
<rect x="601" y="409" width="18" height="2" fill="#39ff14"/>
<rect x="199" y="411" width="22" height="2" fill="#39ff14"/>
<rect x="235" y="411" width="24" height="2" fill="#39ff14"/>
<rect x="273" y="411" width="24" height="2" fill="#39ff14"/>
<rect x="307" y="411" width="16" height="2" fill="#39ff14"/>
<rect x="333" y="411" width="6" height="2" fill="#39ff14"/>
<rect x="351" y="411" width="8" height="2" fill="#39ff14"/>
<rect x="369" y="411" width="24" height="2" fill="#39ff14"/>
<rect x="403" y="411" width="16" height="2" fill="#39ff14"/>
<rect x="449" y="411" width="22" height="2" fill="#39ff14"/>
<rect x="485" y="411" width="24" height="2" fill="#39ff14"/>
<rect x="523" y="411" width="6" height="2" fill="#39ff14"/>
<rect x="543" y="411" width="6" height="2" fill="#39ff14"/>
<rect x="561" y="411" width="24" height="2" fill="#39ff14"/>
<rect x="599" y="411" width="22" height="2" fill="#39ff14"/>
<rect x="197" y="413" width="8" height="2" fill="#39ff14"/>
<rect x="215" y="413" width="2" height="2" fill="#39ff14"/>
<rect x="235" y="413" width="10" height="2" fill="#39ff14"/>
<rect x="251" y="413" width="10" height="2" fill="#39ff14"/>
<rect x="273" y="413" width="8" height="2" fill="#39ff14"/>
<rect x="289" y="413" width="8" height="2" fill="#39ff14"/>
<rect x="311" y="413" width="6" height="2" fill="#39ff14"/>
<rect x="333" y="413" width="6" height="2" fill="#39ff14"/>
<rect x="351" y="413" width="8" height="2" fill="#39ff14"/>
<rect x="369" y="413" width="6" height="2" fill="#39ff14"/>
<rect x="385" y="413" width="4" height="2" fill="#39ff14"/>
<rect x="407" y="413" width="6" height="2" fill="#39ff14"/>
<rect x="447" y="413" width="8" height="2" fill="#39ff14"/>
<rect x="463" y="413" width="10" height="2" fill="#39ff14"/>
<rect x="485" y="413" width="10" height="2" fill="#39ff14"/>
<rect x="501" y="413" width="10" height="2" fill="#39ff14"/>
<rect x="523" y="413" width="6" height="2" fill="#39ff14"/>
<rect x="543" y="413" width="6" height="2" fill="#39ff14"/>
<rect x="561" y="413" width="10" height="2" fill="#39ff14"/>
<rect x="577" y="413" width="10" height="2" fill="#39ff14"/>
<rect x="599" y="413" width="8" height="2" fill="#39ff14"/>
<rect x="615" y="413" width="6" height="2" fill="#39ff14"/>
<rect x="197" y="415" width="8" height="2" fill="#39ff14"/>
<rect x="235" y="415" width="8" height="2" fill="#39ff14"/>
<rect x="253" y="415" width="8" height="2" fill="#39ff14"/>
<rect x="271" y="415" width="8" height="2" fill="#39ff14"/>
<rect x="291" y="415" width="8" height="2" fill="#39ff14"/>
<rect x="311" y="415" width="6" height="2" fill="#39ff14"/>
<rect x="333" y="415" width="6" height="2" fill="#39ff14"/>
<rect x="351" y="415" width="8" height="2" fill="#39ff14"/>
<rect x="369" y="415" width="6" height="2" fill="#39ff14"/>
<rect x="407" y="415" width="6" height="2" fill="#39ff14"/>
<rect x="447" y="415" width="6" height="2" fill="#39ff14"/>
<rect x="467" y="415" width="6" height="2" fill="#39ff14"/>
<rect x="485" y="415" width="8" height="2" fill="#39ff14"/>
<rect x="503" y="415" width="8" height="2" fill="#39ff14"/>
<rect x="523" y="415" width="6" height="2" fill="#39ff14"/>
<rect x="543" y="415" width="6" height="2" fill="#39ff14"/>
<rect x="561" y="415" width="8" height="2" fill="#39ff14"/>
<rect x="579" y="415" width="8" height="2" fill="#39ff14"/>
<rect x="597" y="415" width="8" height="2" fill="#39ff14"/>
<rect x="615" y="415" width="8" height="2" fill="#39ff14"/>
<rect x="199" y="417" width="10" height="2" fill="#39ff14"/>
<rect x="235" y="417" width="6" height="2" fill="#39ff14"/>
<rect x="255" y="417" width="6" height="2" fill="#39ff14"/>
<rect x="271" y="417" width="6" height="2" fill="#39ff14"/>
<rect x="293" y="417" width="6" height="2" fill="#39ff14"/>
<rect x="311" y="417" width="6" height="2" fill="#39ff14"/>
<rect x="333" y="417" width="6" height="2" fill="#39ff14"/>
<rect x="351" y="417" width="8" height="2" fill="#39ff14"/>
<rect x="369" y="417" width="10" height="2" fill="#39ff14"/>
<rect x="407" y="417" width="6" height="2" fill="#39ff14"/>
<rect x="445" y="417" width="8" height="2" fill="#39ff14"/>
<rect x="467" y="417" width="8" height="2" fill="#39ff14"/>
<rect x="485" y="417" width="8" height="2" fill="#39ff14"/>
<rect x="503" y="417" width="8" height="2" fill="#39ff14"/>
<rect x="523" y="417" width="6" height="2" fill="#39ff14"/>
<rect x="543" y="417" width="6" height="2" fill="#39ff14"/>
<rect x="561" y="417" width="8" height="2" fill="#39ff14"/>
<rect x="579" y="417" width="8" height="2" fill="#39ff14"/>
<rect x="597" y="417" width="6" height="2" fill="#39ff14"/>
<rect x="617" y="417" width="6" height="2" fill="#39ff14"/>
<rect x="199" y="419" width="18" height="2" fill="#39ff14"/>
<rect x="235" y="419" width="6" height="2" fill="#39ff14"/>
<rect x="255" y="419" width="6" height="2" fill="#39ff14"/>
<rect x="271" y="419" width="6" height="2" fill="#39ff14"/>
<rect x="293" y="419" width="6" height="2" fill="#39ff14"/>
<rect x="311" y="419" width="6" height="2" fill="#39ff14"/>
<rect x="333" y="419" width="6" height="2" fill="#39ff14"/>
<rect x="351" y="419" width="8" height="2" fill="#39ff14"/>
<rect x="371" y="419" width="16" height="2" fill="#39ff14"/>
<rect x="407" y="419" width="6" height="2" fill="#39ff14"/>
<rect x="445" y="419" width="8" height="2" fill="#39ff14"/>
<rect x="467" y="419" width="8" height="2" fill="#39ff14"/>
<rect x="485" y="419" width="8" height="2" fill="#39ff14"/>
<rect x="503" y="419" width="8" height="2" fill="#39ff14"/>
<rect x="523" y="419" width="6" height="2" fill="#39ff14"/>
<rect x="543" y="419" width="6" height="2" fill="#39ff14"/>
<rect x="561" y="419" width="8" height="2" fill="#39ff14"/>
<rect x="579" y="419" width="8" height="2" fill="#39ff14"/>
<rect x="597" y="419" width="26" height="2" fill="#39ff14"/>
<rect x="201" y="421" width="20" height="2" fill="#39ff14"/>
<rect x="235" y="421" width="6" height="2" fill="#39ff14"/>
<rect x="255" y="421" width="6" height="2" fill="#39ff14"/>
<rect x="271" y="421" width="6" height="2" fill="#39ff14"/>
<rect x="293" y="421" width="6" height="2" fill="#39ff14"/>
<rect x="311" y="421" width="6" height="2" fill="#39ff14"/>
<rect x="333" y="421" width="6" height="2" fill="#39ff14"/>
<rect x="351" y="421" width="8" height="2" fill="#39ff14"/>
<rect x="373" y="421" width="18" height="2" fill="#39ff14"/>
<rect x="407" y="421" width="6" height="2" fill="#39ff14"/>
<rect x="445" y="421" width="6" height="2" fill="#39ff14"/>
<rect x="467" y="421" width="8" height="2" fill="#39ff14"/>
<rect x="485" y="421" width="6" height="2" fill="#39ff14"/>
<rect x="503" y="421" width="8" height="2" fill="#39ff14"/>
<rect x="523" y="421" width="6" height="2" fill="#39ff14"/>
<rect x="543" y="421" width="6" height="2" fill="#39ff14"/>
<rect x="561" y="421" width="6" height="2" fill="#39ff14"/>
<rect x="579" y="421" width="8" height="2" fill="#39ff14"/>
<rect x="597" y="421" width="26" height="2" fill="#39ff14"/>
<rect x="207" y="423" width="16" height="2" fill="#39ff14"/>
<rect x="235" y="423" width="6" height="2" fill="#39ff14"/>
<rect x="255" y="423" width="6" height="2" fill="#39ff14"/>
<rect x="271" y="423" width="6" height="2" fill="#39ff14"/>
<rect x="293" y="423" width="6" height="2" fill="#39ff14"/>
<rect x="311" y="423" width="6" height="2" fill="#39ff14"/>
<rect x="333" y="423" width="6" height="2" fill="#39ff14"/>
<rect x="351" y="423" width="8" height="2" fill="#39ff14"/>
<rect x="377" y="423" width="16" height="2" fill="#39ff14"/>
<rect x="407" y="423" width="6" height="2" fill="#39ff14"/>
<rect x="445" y="423" width="8" height="2" fill="#39ff14"/>
<rect x="467" y="423" width="8" height="2" fill="#39ff14"/>
<rect x="485" y="423" width="6" height="2" fill="#39ff14"/>
<rect x="503" y="423" width="8" height="2" fill="#39ff14"/>
<rect x="523" y="423" width="6" height="2" fill="#39ff14"/>
<rect x="543" y="423" width="6" height="2" fill="#39ff14"/>
<rect x="561" y="423" width="6" height="2" fill="#39ff14"/>
<rect x="579" y="423" width="8" height="2" fill="#39ff14"/>
<rect x="597" y="423" width="26" height="2" fill="#39ff14"/>
<rect x="215" y="425" width="8" height="2" fill="#39ff14"/>
<rect x="235" y="425" width="6" height="2" fill="#39ff14"/>
<rect x="255" y="425" width="6" height="2" fill="#39ff14"/>
<rect x="271" y="425" width="6" height="2" fill="#39ff14"/>
<rect x="293" y="425" width="6" height="2" fill="#39ff14"/>
<rect x="311" y="425" width="6" height="2" fill="#39ff14"/>
<rect x="333" y="425" width="6" height="2" fill="#39ff14"/>
<rect x="351" y="425" width="8" height="2" fill="#39ff14"/>
<rect x="385" y="425" width="8" height="2" fill="#39ff14"/>
<rect x="407" y="425" width="6" height="2" fill="#39ff14"/>
<rect x="445" y="425" width="8" height="2" fill="#39ff14"/>
<rect x="467" y="425" width="8" height="2" fill="#39ff14"/>
<rect x="485" y="425" width="6" height="2" fill="#39ff14"/>
<rect x="503" y="425" width="8" height="2" fill="#39ff14"/>
<rect x="523" y="425" width="6" height="2" fill="#39ff14"/>
<rect x="543" y="425" width="6" height="2" fill="#39ff14"/>
<rect x="561" y="425" width="6" height="2" fill="#39ff14"/>
<rect x="579" y="425" width="8" height="2" fill="#39ff14"/>
<rect x="597" y="425" width="6" height="2" fill="#39ff14"/>
<rect x="215" y="427" width="8" height="2" fill="#39ff14"/>
<rect x="235" y="427" width="8" height="2" fill="#39ff14"/>
<rect x="253" y="427" width="8" height="2" fill="#39ff14"/>
<rect x="271" y="427" width="8" height="2" fill="#39ff14"/>
<rect x="291" y="427" width="8" height="2" fill="#39ff14"/>
<rect x="311" y="427" width="6" height="2" fill="#39ff14"/>
<rect x="333" y="427" width="6" height="2" fill="#39ff14"/>
<rect x="351" y="427" width="8" height="2" fill="#39ff14"/>
<rect x="387" y="427" width="6" height="2" fill="#39ff14"/>
<rect x="407" y="427" width="6" height="2" fill="#39ff14"/>
<rect x="447" y="427" width="6" height="2" fill="#39ff14"/>
<rect x="467" y="427" width="6" height="2" fill="#39ff14"/>
<rect x="485" y="427" width="6" height="2" fill="#39ff14"/>
<rect x="503" y="427" width="8" height="2" fill="#39ff14"/>
<rect x="523" y="427" width="6" height="2" fill="#39ff14"/>
<rect x="543" y="427" width="6" height="2" fill="#39ff14"/>
<rect x="561" y="427" width="6" height="2" fill="#39ff14"/>
<rect x="579" y="427" width="8" height="2" fill="#39ff14"/>
<rect x="597" y="427" width="8" height="2" fill="#39ff14"/>
<rect x="201" y="429" width="4" height="2" fill="#39ff14"/>
<rect x="215" y="429" width="8" height="2" fill="#39ff14"/>
<rect x="235" y="429" width="10" height="2" fill="#39ff14"/>
<rect x="251" y="429" width="10" height="2" fill="#39ff14"/>
<rect x="273" y="429" width="8" height="2" fill="#39ff14"/>
<rect x="289" y="429" width="8" height="2" fill="#39ff14"/>
<rect x="311" y="429" width="8" height="2" fill="#39ff14"/>
<rect x="333" y="429" width="6" height="2" fill="#39ff14"/>
<rect x="351" y="429" width="8" height="2" fill="#39ff14"/>
<rect x="373" y="429" width="2" height="2" fill="#39ff14"/>
<rect x="385" y="429" width="8" height="2" fill="#39ff14"/>
<rect x="407" y="429" width="6" height="2" fill="#39ff14"/>
<rect x="429" y="429" width="6" height="2" fill="#39ff14"/>
<rect x="447" y="429" width="8" height="2" fill="#39ff14"/>
<rect x="463" y="429" width="10" height="2" fill="#39ff14"/>
<rect x="485" y="429" width="6" height="2" fill="#39ff14"/>
<rect x="503" y="429" width="8" height="2" fill="#39ff14"/>
<rect x="523" y="429" width="6" height="2" fill="#39ff14"/>
<rect x="543" y="429" width="6" height="2" fill="#39ff14"/>
<rect x="561" y="429" width="6" height="2" fill="#39ff14"/>
<rect x="579" y="429" width="8" height="2" fill="#39ff14"/>
<rect x="599" y="429" width="8" height="2" fill="#39ff14"/>
<rect x="615" y="429" width="4" height="2" fill="#39ff14"/>
<rect x="197" y="431" width="24" height="2" fill="#39ff14"/>
<rect x="235" y="431" width="24" height="2" fill="#39ff14"/>
<rect x="273" y="431" width="24" height="2" fill="#39ff14"/>
<rect x="311" y="431" width="12" height="2" fill="#39ff14"/>
<rect x="333" y="431" width="6" height="2" fill="#39ff14"/>
<rect x="351" y="431" width="8" height="2" fill="#39ff14"/>
<rect x="369" y="431" width="24" height="2" fill="#39ff14"/>
<rect x="407" y="431" width="12" height="2" fill="#39ff14"/>
<rect x="429" y="431" width="6" height="2" fill="#39ff14"/>
<rect x="449" y="431" width="22" height="2" fill="#39ff14"/>
<rect x="485" y="431" width="6" height="2" fill="#39ff14"/>
<rect x="503" y="431" width="8" height="2" fill="#39ff14"/>
<rect x="523" y="431" width="6" height="2" fill="#39ff14"/>
<rect x="543" y="431" width="6" height="2" fill="#39ff14"/>
<rect x="561" y="431" width="6" height="2" fill="#39ff14"/>
<rect x="579" y="431" width="8" height="2" fill="#39ff14"/>
<rect x="599" y="431" width="24" height="2" fill="#39ff14"/>
<rect x="199" y="433" width="20" height="2" fill="#39ff14"/>
<rect x="235" y="433" width="22" height="2" fill="#39ff14"/>
<rect x="275" y="433" width="20" height="2" fill="#39ff14"/>
<rect x="311" y="433" width="12" height="2" fill="#39ff14"/>
<rect x="333" y="433" width="6" height="2" fill="#39ff14"/>
<rect x="351" y="433" width="8" height="2" fill="#39ff14"/>
<rect x="371" y="433" width="20" height="2" fill="#39ff14"/>
<rect x="407" y="433" width="12" height="2" fill="#39ff14"/>
<rect x="429" y="433" width="6" height="2" fill="#39ff14"/>
<rect x="451" y="433" width="18" height="2" fill="#39ff14"/>
<rect x="485" y="433" width="6" height="2" fill="#39ff14"/>
<rect x="503" y="433" width="8" height="2" fill="#39ff14"/>
<rect x="523" y="433" width="6" height="2" fill="#39ff14"/>
<rect x="543" y="433" width="6" height="2" fill="#39ff14"/>
<rect x="561" y="433" width="6" height="2" fill="#39ff14"/>
<rect x="579" y="433" width="8" height="2" fill="#39ff14"/>
<rect x="601" y="433" width="20" height="2" fill="#39ff14"/>
<rect x="203" y="435" width="14" height="2" fill="#39ff14"/>
<rect x="235" y="435" width="6" height="2" fill="#39ff14"/>
<rect x="247" y="435" width="8" height="2" fill="#39ff14"/>
<rect x="281" y="435" width="10" height="2" fill="#39ff14"/>
<rect x="315" y="435" width="8" height="2" fill="#39ff14"/>
<rect x="333" y="435" width="6" height="2" fill="#39ff14"/>
<rect x="351" y="435" width="8" height="2" fill="#39ff14"/>
<rect x="375" y="435" width="12" height="2" fill="#39ff14"/>
<rect x="409" y="435" width="10" height="2" fill="#39ff14"/>
<rect x="429" y="435" width="6" height="2" fill="#39ff14"/>
<rect x="455" y="435" width="10" height="2" fill="#39ff14"/>
<rect x="485" y="435" width="6" height="2" fill="#39ff14"/>
<rect x="503" y="435" width="8" height="2" fill="#39ff14"/>
<rect x="523" y="435" width="6" height="2" fill="#39ff14"/>
<rect x="543" y="435" width="6" height="2" fill="#39ff14"/>
<rect x="561" y="435" width="6" height="2" fill="#39ff14"/>
<rect x="579" y="435" width="8" height="2" fill="#39ff14"/>
<rect x="605" y="435" width="12" height="2" fill="#39ff14"/>
<rect x="235" y="437" width="6" height="2" fill="#39ff14"/>
<rect x="235" y="439" width="6" height="2" fill="#39ff14"/>
<rect x="235" y="441" width="6" height="2" fill="#39ff14"/>
<rect x="235" y="443" width="6" height="2" fill="#39ff14"/>
<rect x="235" y="445" width="6" height="2" fill="#39ff14"/>
<rect x="235" y="447" width="6" height="2" fill="#39ff14"/>
<text x="400" y="800" text-anchor="middle" font-family="'Helvetica Neue', Helvetica, Arial, sans-serif" font-size="64" font-weight="700" fill="#39ff14" letter-spacing="4">spotlist.online</text>
</svg>