<svg xmlns="http://www.w3.org/2000/svg" width="800" height="1000" viewBox="0 0 800 1000">
<rect width="800" height="1000" rx="100" fill="#0a0a0f"/>
<rect x="395" y="277" width="38" height="2" fill="#39ff14"/>
<rect x="387" y="279" width="54" height="2" fill="#39ff14"/>
<rect x="381" y="281" width="66" height="2" fill="#39ff14"/>
<rect x="377" y="283" width="76" height="2" fill="#39ff14"/>
<rect x="371" y="285" width="86" height="2" fill="#39ff14"/>
<rect x="367" y="287" width="94" height="2" fill="#39ff14"/>
<rect x="365" y="289" width="100" height="2" fill="#39ff14"/>
<rect x="361" y="291" width="106" height="2" fill="#39ff14"/>
<rect x="359" y="293" width="112" height="2" fill="#39ff14"/>
<rect x="355" y="295" width="118" height="2" fill="#39ff14"/>
<rect x="353" y="297" width="122" height="2" fill="#39ff14"/>
<rect x="351" y="299" width="128" height="2" fill="#39ff14"/>
<rect x="349" y="301" width="62" height="2" fill="#39ff14"/>
<rect x="419" y="301" width="62" height="2" fill="#39ff14"/>
<rect x="347" y="303" width="50" height="2" fill="#39ff14"/>
<rect x="431" y="303" width="52" height="2" fill="#39ff14"/>
<rect x="345" y="305" width="46" height="2" fill="#39ff14"/>
<rect x="439" y="305" width="46" height="2" fill="#39ff14"/>
<rect x="343" y="307" width="42" height="2" fill="#39ff14"/>
<rect x="443" y="307" width="44" height="2" fill="#39ff14"/>
<rect x="341" y="309" width="40" height="2" fill="#39ff14"/>
<rect x="447" y="309" width="40" height="2" fill="#39ff14"/>
<rect x="339" y="311" width="40" height="2" fill="#39ff14"/>
<rect x="451" y="311" width="38" height="2" fill="#39ff14"/>
<rect x="337" y="313" width="38" height="2" fill="#39ff14"/>
<rect x="453" y="313" width="38" height="2" fill="#39ff14"/>
<rect x="337" y="315" width="36" height="2" fill="#39ff14"/>
<rect x="457" y="315" width="36" height="2" fill="#39ff14"/>
<rect x="335" y="317" width="34" height="2" fill="#39ff14"/>
<rect x="459" y="317" width="36" height="2" fill="#39ff14"/>
<rect x="333" y="319" width="34" height="2" fill="#39ff14"/>
<rect x="461" y="319" width="34" height="2" fill="#39ff14"/>
<rect x="333" y="321" width="32" height="2" fill="#39ff14"/>
<rect x="463" y="321" width="34" height="2" fill="#39ff14"/>
<rect x="331" y="323" width="32" height="2" fill="#39ff14"/>
<rect x="465" y="323" width="32" height="2" fill="#39ff14"/>
<rect x="331" y="325" width="30" height="2" fill="#39ff14"/>
<rect x="467" y="325" width="32" height="2" fill="#39ff14"/>
<rect x="329" y="327" width="30" height="2" fill="#39ff14"/>
<rect x="469" y="327" width="30" height="2" fill="#39ff14"/>
<rect x="329" y="329" width="30" height="2" fill="#39ff14"/>
<rect x="471" y="329" width="30" height="2" fill="#39ff14"/>
<rect x="327" y="331" width="30" height="2" fill="#39ff14"/>
<rect x="471" y="331" width="30" height="2" fill="#39ff14"/>
<rect x="327" y="333" width="28" height="2" fill="#39ff14"/>
<rect x="473" y="333" width="30" height="2" fill="#39ff14"/>
<rect x="325" y="335" width="30" height="2" fill="#39ff14"/>
<rect x="475" y="335" width="28" height="2" fill="#39ff14"/>
<rect x="325" y="337" width="28" height="2" fill="#39ff14"/>
<rect x="475" y="337" width="30" height="2" fill="#39ff14"/>
<rect x="323" y="339" width="30" height="2" fill="#39ff14"/>
<rect x="407" y="339" width="16" height="2" fill="#39ff14"/>
<rect x="477" y="339" width="28" height="2" fill="#39ff14"/>
<rect x="323" y="341" width="28" height="2" fill="#39ff14"/>
<rect x="401" y="341" width="28" height="2" fill="#39ff14"/>
<rect x="477" y="341" width="28" height="2" fill="#39ff14"/>
<rect x="323" y="343" width="28" height="2" fill="#39ff14"/>
<rect x="397" y="343" width="34" height="2" fill="#39ff14"/>
<rect x="479" y="343" width="28" height="2" fill="#39ff14"/>
<rect x="323" y="345" width="26" height="2" fill="#39ff14"/>
<rect x="395" y="345" width="40" height="2" fill="#39ff14"/>
<rect x="479" y="345" width="28" height="2" fill="#39ff14"/>
<rect x="321" y="347" width="28" height="2" fill="#39ff14"/>
<rect x="393" y="347" width="44" height="2" fill="#39ff14"/>
<rect x="479" y="347" width="28" height="2" fill="#39ff14"/>
<rect x="321" y="349" width="28" height="2" fill="#39ff14"/>
<rect x="391" y="349" width="48" height="2" fill="#39ff14"/>
<rect x="481" y="349" width="26" height="2" fill="#39ff14"/>
<rect x="321" y="351" width="26" height="2" fill="#39ff14"/>
<rect x="389" y="351" width="52" height="2" fill="#39ff14"/>
<rect x="481" y="351" width="28" height="2" fill="#39ff14"/>
<rect x="321" y="353" width="26" height="2" fill="#39ff14"/>
<rect x="387" y="353" width="54" height="2" fill="#39ff14"/>
<rect x="481" y="353" width="28" height="2" fill="#39ff14"/>
<rect x="321" y="355" width="26" height="2" fill="#39ff14"/>
<rect x="387" y="355" width="56" height="2" fill="#39ff14"/>
<rect x="483" y="355" width="26" height="2" fill="#39ff14"/>
<rect x="319" y="357" width="28" height="2" fill="#39ff14"/>
<rect x="385" y="357" width="58" height="2" fill="#39ff14"/>
<rect x="483" y="357" width="26" height="2" fill="#39ff14"/>
<rect x="319" y="359" width="28" height="2" fill="#39ff14"/>
<rect x="385" y="359" width="60" height="2" fill="#39ff14"/>
<rect x="483" y="359" width="26" height="2" fill="#39ff14"/>
<rect x="319" y="361" width="26" height="2" fill="#39ff14"/>
<rect x="385" y="361" width="60" height="2" fill="#39ff14"/>
<rect x="483" y="361" width="26" height="2" fill="#39ff14"/>
<rect x="319" y="363" width="26" height="2" fill="#39ff14"/>
<rect x="383" y="363" width="62" height="2" fill="#39ff14"/>
<rect x="483" y="363" width="26" height="2" fill="#39ff14"/>
<rect x="319" y="365" width="26" height="2" fill="#39ff14"/>
<rect x="383" y="365" width="62" height="2" fill="#39ff14"/>
<rect x="483" y="365" width="26" height="2" fill="#39ff14"/>
<rect x="319" y="367" width="26" height="2" fill="#39ff14"/>
<rect x="383" y="367" width="62" height="2" fill="#39ff14"/>
<rect x="483" y="367" width="26" height="2" fill="#39ff14"/>
<rect x="319" y="369" width="26" height="2" fill="#39ff14"/>
<rect x="383" y="369" width="62" height="2" fill="#39ff14"/>
<rect x="483" y="369" width="26" height="2" fill="#39ff14"/>
<rect x="319" y="371" width="26" height="2" fill="#39ff14"/>
<rect x="383" y="371" width="62" height="2" fill="#39ff14"/>
<rect x="483" y="371" width="26" height="2" fill="#39ff14"/>
<rect x="319" y="373" width="26" height="2" fill="#39ff14"/>
<rect x="383" y="373" width="62" height="2" fill="#39ff14"/>
<rect x="483" y="373" width="26" height="2" fill="#39ff14"/>
<rect x="319" y="375" width="26" height="2" fill="#39ff14"/>
<rect x="383" y="375" width="62" height="2" fill="#39ff14"/>
<rect x="483" y="375" width="26" height="2" fill="#39ff14"/>
<rect x="319" y="377" width="26" height="2" fill="#39ff14"/>
<rect x="385" y="377" width="60" height="2" fill="#39ff14"/>
<rect x="483" y="377" width="26" height="2" fill="#39ff14"/>
<rect x="319" y="379" width="28" height="2" fill="#39ff14"/>
<rect x="385" y="379" width="58" height="2" fill="#39ff14"/>
<rect x="483" y="379" width="26" height="2" fill="#39ff14"/>
<rect x="319" y="381" width="28" height="2" fill="#39ff14"/>
<rect x="385" y="381" width="58" height="2" fill="#39ff14"/>
<rect x="483" y="381" width="26" height="2" fill="#39ff14"/>
<rect x="321" y="383" width="26" height="2" fill="#39ff14"/>
<rect x="387" y="383" width="56" height="2" fill="#39ff14"/>
<rect x="481" y="383" width="28" height="2" fill="#39ff14"/>
<rect x="321" y="385" width="26" height="2" fill="#39ff14"/>
<rect x="389" y="385" width="52" height="2" fill="#39ff14"/>
<rect x="481" y="385" width="28" height="2" fill="#39ff14"/>
<rect x="321" y="387" width="26" height="2" fill="#39ff14"/>
<rect x="389" y="387" width="50" height="2" fill="#39ff14"/>
<rect x="481" y="387" width="28" height="2" fill="#39ff14"/>
<rect x="321" y="389" width="28" height="2" fill="#39ff14"/>
<rect x="391" y="389" width="46" height="2" fill="#39ff14"/>
<rect x="481" y="389" width="26" height="2" fill="#39ff14"/>
<rect x="321" y="391" width="28" height="2" fill="#39ff14"/>
<rect x="393" y="391" width="42" height="2" fill="#39ff14"/>
<rect x="479" y="391" width="28" height="2" fill="#39ff14"/>
<rect x="323" y="393" width="26" height="2" fill="#39ff14"/>
<rect x="395" y="393" width="38" height="2" fill="#39ff14"/>
<rect x="479" y="393" width="28" height="2" fill="#39ff14"/>
<rect x="323" y="395" width="28" height="2" fill="#39ff14"/>
<rect x="399" y="395" width="32" height="2" fill="#39ff14"/>
<rect x="479" y="395" width="26" height="2" fill="#39ff14"/>
<rect x="323" y="397" width="28" height="2" fill="#39ff14"/>
<rect x="403" y="397" width="24" height="2" fill="#39ff14"/>
<rect x="477" y="397" width="28" height="2" fill="#39ff14"/>
<rect x="325" y="399" width="28" height="2" fill="#39ff14"/>
<rect x="409" y="399" width="10" height="2" fill="#39ff14"/>
<rect x="477" y="399" width="28" height="2" fill="#39ff14"/>
<rect x="325" y="401" width="28" height="2" fill="#39ff14"/>
<rect x="475" y="401" width="28" height="2" fill="#39ff14"/>
<rect x="325" y="403" width="30" height="2" fill="#39ff14"/>
<rect x="473" y="403" width="30" height="2" fill="#39ff14"/>
<rect x="327" y="405" width="30" height="2" fill="#39ff14"/>
<rect x="473" y="405" width="30" height="2" fill="#39ff14"/>
<rect x="327" y="407" width="30" height="2" fill="#39ff14"/>
<rect x="471" y="407" width="30" height="2" fill="#39ff14"/>
<rect x="329" y="409" width="30" height="2" fill="#39ff14"/>
<rect x="469" y="409" width="32" height="2" fill="#39ff14"/>
<rect x="329" y="411" width="32" height="2" fill="#39ff14"/>
<rect x="469" y="411" width="30" height="2" fill="#39ff14"/>
<rect x="331" y="413" width="32" height="2" fill="#39ff14"/>
<rect x="467" y="413" width="32" height="2" fill="#39ff14"/>
<rect x="331" y="415" width="34" height="2" fill="#39ff14"/>
<rect x="465" y="415" width="32" height="2" fill="#39ff14"/>
<rect x="333" y="417" width="34" height="2" fill="#39ff14"/>
<rect x="463" y="417" width="34" height="2" fill="#39ff14"/>
<rect x="335" y="419" width="34" height="2" fill="#39ff14"/>
<rect x="461" y="419" width="34" height="2" fill="#39ff14"/>
<rect x="335" y="421" width="36" height="2" fill="#39ff14"/>
<rect x="459" y="421" width="34" height="2" fill="#39ff14"/>
<rect x="337" y="423" width="36" height="2" fill="#39ff14"/>
<rect x="455" y="423" width="38" height="2" fill="#39ff14"/>
<rect x="339" y="425" width="38" height="2" fill="#39ff14"/>
<rect x="453" y="425" width="38" height="2" fill="#39ff14"/>
<rect x="339" y="427" width="40" height="2" fill="#39ff14"/>
<rect x="449" y="427" width="40" height="2" fill="#39ff14"/>
<rect x="341" y="429" width="42" height="2" fill="#39ff14"/>
<rect x="445" y="429" width="42" height="2" fill="#39ff14"/>
<rect x="343" y="431" width="44" height="2" fill="#39ff14"/>
<rect x="441" y="431" width="44" height="2" fill="#39ff14"/>
<rect x="345" y="433" width="48" height="2" fill="#39ff14"/>
<rect x="435" y="433" width="48" height="2" fill="#39ff14"/>
<rect x="347" y="435" width="54" height="2" fill="#39ff14"/>
<rect x="427" y="435" width="54" height="2" fill="#39ff14"/>
<rect x="349" y="437" width="130" height="2" fill="#39ff14"/>
<rect x="351" y="439" width="126" height="2" fill="#39ff14"/>
<rect x="355" y="441" width="120" height="2" fill="#39ff14"/>
<rect x="357" y="443" width="116" height="2" fill="#39ff14"/>
<rect x="359" y="445" width="110" height="2" fill="#39ff14"/>
<rect x="363" y="447" width="104" height="2" fill="#39ff14"/>
<rect x="365" y="449" width="98" height="2" fill="#39ff14"/>
<rect x="369" y="451" width="90" height="2" fill="#39ff14"/>
<rect x="373" y="453" width="82" height="2" fill="#39ff14"/>
<rect x="379" y="455" width="72" height="2" fill="#39ff14"/>
<rect x="383" y="457" width="62" height="2" fill="#39ff14"/>
<rect x="391" y="459" width="48" height="2" fill="#39ff14"/>
<rect x="399" y="461" width="30" height="2" fill="#39ff14"/>
<rect x="401" y="463" width="26" height="2" fill="#39ff14"/>
<rect x="401" y="465" width="26" height="2" fill="#39ff14"/>
<rect x="401" y="467" width="26" height="2" fill="#39ff14"/>
<rect x="401" y="469" width="26" height="2" fill="#39ff14"/>
<rect x="401" y="471" width="26" height="2" fill="#39ff14"/>
<rect x="401" y="473" width="26" height="2" fill="#39ff14"/>
<rect x="401" y="475" width="26" height="2" fill="#39ff14"/>
<rect x="401" y="477" width="26" height="2" fill="#39ff14"/>
<rect x="401" y="479" width="26" height="2" fill="#39ff14"/>
<rect x="401" y="481" width="26" height="2" fill="#39ff14"/>
<rect x="401" y="483" width="26" height="2" fill="#39ff14"/>
<rect x="401" y="485" width="26" height="2" fill="#39ff14"/>
<rect x="401" y="487" width="26" height="2" fill="#39ff14"/>
<rect x="401" y="489" width="26" height="2" fill="#39ff14"/>
<rect x="401" y="491" width="26" height="2" fill="#39ff14"/>
<rect x="401" y="493" width="26" height="2" fill="#39ff14"/>
<rect x="401" y="495" width="26" height="2" fill="#39ff14"/>
<rect x="401" y="497" width="26" height="2" fill="#39ff14"/>
<rect x="401" y="499" width="26" height="2" fill="#39ff14"/>
<rect x="401" y="501" width="26" height="2" fill="#39ff14"/>
<rect x="401" y="503" width="26" height="2" fill="#39ff14"/>
<rect x="351" y="505" width="10" height="2" fill="#39ff14"/>
<rect x="401" y="505" width="26" height="2" fill="#39ff14"/>
<rect x="467" y="505" width="12" height="2" fill="#39ff14"/>
<rect x="349" y="507" width="16" height="2" fill="#39ff14"/>
<rect x="401" y="507" width="26" height="2" fill="#39ff14"/>
<rect x="465" y="507" width="16" height="2" fill="#39ff14"/>
<rect x="347" y="509" width="22" height="2" fill="#39ff14"/>
<rect x="401" y="509" width="26" height="2" fill="#39ff14"/>
<rect x="461" y="509" width="22" height="2" fill="#39ff14"/>
<rect x="345" y="511" width="26" height="2" fill="#39ff14"/>
<rect x="401" y="511" width="26" height="2" fill="#39ff14"/>
<rect x="459" y="511" width="24" height="2" fill="#39ff14"/>
<rect x="345" y="513" width="30" height="2" fill="#39ff14"/>
<rect x="401" y="513" width="26" height="2" fill="#39ff14"/>
<rect x="455" y="513" width="28" height="2" fill="#39ff14"/>
<rect x="345" y="515" width="32" height="2" fill="#39ff14"/>
<rect x="401" y="515" width="26" height="2" fill="#39ff14"/>
<rect x="451" y="515" width="32" height="2" fill="#39ff14"/>
<rect x="347" y="517" width="34" height="2" fill="#39ff14"/>
<rect x="401" y="517" width="26" height="2" fill="#39ff14"/>
<rect x="447" y="517" width="36" height="2" fill="#39ff14"/>
<rect x="347" y="519" width="38" height="2" fill="#39ff14"/>
<rect x="401" y="519" width="26" height="2" fill="#39ff14"/>
<rect x="443" y="519" width="40" height="2" fill="#39ff14"/>
<rect x="349" y="521" width="42" height="2" fill="#39ff14"/>
<rect x="401" y="521" width="26" height="2" fill="#39ff14"/>
<rect x="439" y="521" width="42" height="2" fill="#39ff14"/>
<rect x="351" y="523" width="46" height="2" fill="#39ff14"/>
<rect x="401" y="523" width="26" height="2" fill="#39ff14"/>
<rect x="431" y="523" width="48" height="2" fill="#39ff14"/>
<rect x="353" y="525" width="122" height="2" fill="#39ff14"/>
<rect x="357" y="527" width="116" height="2" fill="#39ff14"/>
<rect x="359" y="529" width="110" height="2" fill="#39ff14"/>
<rect x="363" y="531" width="104" height="2" fill="#39ff14"/>
<rect x="365" y="533" width="98" height="2" fill="#39ff14"/>
<rect x="369" y="535" width="92" height="2" fill="#39ff14"/>
<rect x="373" y="537" width="84" height="2" fill="#39ff14"/>
<rect x="377" y="539" width="74" height="2" fill="#39ff14"/>
<rect x="383" y="541" width="64" height="2" fill="#39ff14"/>
<rect x="389" y="543" width="52" height="2" fill="#39ff14"/>
<rect x="395" y="545" width="40" height="2" fill="#39ff14"/>
<rect x="401" y="547" width="26" height="2" fill="#39ff14"/>
<rect x="401" y="549" width="26" height="2" fill="#39ff14"/>
<rect x="401" y="551" width="26" height="2" fill="#39ff14"/>
<rect x="401" y="553" width="26" height="2" fill="#39ff14"/>
<rect x="401" y="555" width="26" height="2" fill="#39ff14"/>
<rect x="401" y="557" width="26" height="2" fill="#39ff14"/>
<rect x="401" y="559" width="26" height="2" fill="#39ff14"/>
<rect x="401" y="561" width="26" height="2" fill="#39ff14"/>
<rect x="401" y="563" width="26" height="2" fill="#39ff14"/>
<rect x="401" y="565" width="26" height="2" fill="#39ff14"/>
<rect x="401" y="567" width="26" height="2" fill="#39ff14"/>
<rect x="401" y="569" width="26" height="2" fill="#39ff14"/>
<rect x="401" y="571" width="26" height="2" fill="#39ff14"/>
<rect x="401" y="573" width="26" height="2" fill="#39ff14"/>
<rect x="401" y="575" width="26" height="2" fill="#39ff14"/>
<rect x="401" y="577" width="26" height="2" fill="#39ff14"/>
<rect x="401" y="579" width="26" height="2" fill="#39ff14"/>
<rect x="401" y="581" width="26" height="2" fill="#39ff14"/>
<rect x="401" y="583" width="26" height="2" fill="#39ff14"/>
<rect x="401" y="585" width="26" height="2" fill="#39ff14"/>
<rect x="401" y="587" width="26" height="2" fill="#39ff14"/>
<rect x="401" y="589" width="26" height="2" fill="#39ff14"/>
<rect x="401" y="591" width="26" height="2" fill="#39ff14"/>
<rect x="401" y="593" width="26" height="2" fill="#39ff14"/>
<rect x="401" y="595" width="26" height="2" fill="#39ff14"/>
<rect x="285" y="597" width="6" height="2" fill="#39ff14"/>
<rect x="401" y="597" width="26" height="2" fill="#39ff14"/>
<rect x="539" y="597" width="6" height="2" fill="#39ff14"/>
<rect x="283" y="599" width="14" height="2" fill="#39ff14"/>
<rect x="401" y="599" width="26" height="2" fill="#39ff14"/>
<rect x="533" y="599" width="14" height="2" fill="#39ff14"/>
<rect x="281" y="601" width="22" height="2" fill="#39ff14"/>
<rect x="401" y="601" width="26" height="2" fill="#39ff14"/>
<rect x="527" y="601" width="22" height="2" fill="#39ff14"/>
<rect x="281" y="603" width="28" height="2" fill="#39ff14"/>
<rect x="401" y="603" width="26" height="2" fill="#39ff14"/>
<rect x="521" y="603" width="28" height="2" fill="#39ff14"/>
<rect x="281" y="605" width="34" height="2" fill="#39ff14"/>
<rect x="401" y="605" width="26" height="2" fill="#39ff14"/>
<rect x="515" y="605" width="34" height="2" fill="#39ff14"/>
<rect x="281" y="607" width="40" height="2" fill="#39ff14"/>
<rect x="401" y="607" width="26" height="2" fill="#39ff14"/>
<rect x="509" y="607" width="38" height="2" fill="#39ff14"/>
<rect x="283" y="609" width="44" height="2" fill="#39ff14"/>
<rect x="401" y="609" width="26" height="2" fill="#39ff14"/>
<rect x="501" y="609" width="46" height="2" fill="#39ff14"/>
<rect x="287" y="611" width="48" height="2" fill="#39ff14"/>
<rect x="401" y="611" width="26" height="2" fill="#39ff14"/>
<rect x="493" y="611" width="50" height="2" fill="#39ff14"/>
<rect x="293" y="613" width="54" height="2" fill="#39ff14"/>
<rect x="399" y="613" width="30" height="2" fill="#39ff14"/>
<rect x="481" y="613" width="56" height="2" fill="#39ff14"/>
<rect x="299" y="615" width="232" height="2" fill="#39ff14"/>
<rect x="305" y="617" width="220" height="2" fill="#39ff14"/>
<rect x="311" y="619" width="208" height="2" fill="#39ff14"/>
<rect x="317" y="621" width="196" height="2" fill="#39ff14"/>
<rect x="325" y="623" width="180" height="2" fill="#39ff14"/>
<rect x="333" y="625" width="164" height="2" fill="#39ff14"/>
<rect x="343" y="627" width="144" height="2" fill="#39ff14"/>
<rect x="337" y="643" width="18" height="2" fill="#39ff14"/>
<rect x="475" y="643" width="16" height="2" fill="#39ff14"/>
<rect x="333" y="645" width="26" height="2" fill="#39ff14"/>
<rect x="471" y="645" width="24" height="2" fill="#39ff14"/>
<rect x="331" y="647" width="30" height="2" fill="#39ff14"/>
<rect x="469" y="647" width="28" height="2" fill="#39ff14"/>
<rect x="329" y="649" width="34" height="2" fill="#39ff14"/>
<rect x="467" y="649" width="32" height="2" fill="#39ff14"/>
<rect x="327" y="651" width="36" height="2" fill="#39ff14"/>
<rect x="465" y="651" width="36" height="2" fill="#39ff14"/>
<rect x="327" y="653" width="12" height="2" fill="#39ff14"/>
<rect x="353" y="653" width="12" height="2" fill="#39ff14"/>
<rect x="463" y="653" width="14" height="2" fill="#39ff14"/>
<rect x="489" y="653" width="14" height="2" fill="#39ff14"/>
<rect x="325" y="655" width="12" height="2" fill="#39ff14"/>
<rect x="355" y="655" width="10" height="2" fill="#39ff14"/>
<rect x="463" y="655" width="12" height="2" fill="#39ff14"/>
<rect x="491" y="655" width="12" height="2" fill="#39ff14"/>
<rect x="325" y="657" width="12" height="2" fill="#39ff14"/>
<rect x="355" y="657" width="12" height="2" fill="#39ff14"/>
<rect x="463" y="657" width="10" height="2" fill="#39ff14"/>
<rect x="493" y="657" width="10" height="2" fill="#39ff14"/>
<rect x="325" y="659" width="10" height="2" fill="#39ff14"/>
<rect x="357" y="659" width="10" height="2" fill="#39ff14"/>
<rect x="463" y="659" width="10" height="2" fill="#39ff14"/>
<rect x="493" y="659" width="10" height="2" fill="#39ff14"/>
<rect x="325" y="661" width="10" height="2" fill="#39ff14"/>
<rect x="357" y="661" width="10" height="2" fill="#39ff14"/>
<rect x="461" y="661" width="12" height="2" fill="#39ff14"/>
<rect x="493" y="661" width="12" height="2" fill="#39ff14"/>
<rect x="325" y="663" width="10" height="2" fill="#39ff14"/>
<rect x="357" y="663" width="10" height="2" fill="#39ff14"/>
<rect x="461" y="663" width="12" height="2" fill="#39ff14"/>
<rect x="493" y="663" width="12" height="2" fill="#39ff14"/>
<rect x="325" y="665" width="10" height="2" fill="#39ff14"/>
<rect x="357" y="665" width="10" height="2" fill="#39ff14"/>
<rect x="463" y="665" width="10" height="2" fill="#39ff14"/>
<rect x="493" y="665" width="10" height="2" fill="#39ff14"/>
<rect x="325" y="667" width="12" height="2" fill="#39ff14"/>
<rect x="355" y="667" width="12" height="2" fill="#39ff14"/>
<rect x="463" y="667" width="10" height="2" fill="#39ff14"/>
<rect x="493" y="667" width="10" height="2" fill="#39ff14"/>
<rect x="327" y="669" width="10" height="2" fill="#39ff14"/>
<rect x="353" y="669" width="12" height="2" fill="#39ff14"/>
<rect x="463" y="669" width="12" height="2" fill="#39ff14"/>
<rect x="491" y="669" width="12" height="2" fill="#39ff14"/>
<rect x="327" y="671" width="14" height="2" fill="#39ff14"/>
<rect x="351" y="671" width="14" height="2" fill="#39ff14"/>
<rect x="465" y="671" width="12" height="2" fill="#39ff14"/>
<rect x="489" y="671" width="12" height="2" fill="#39ff14"/>
<rect x="329" y="673" width="34" height="2" fill="#39ff14"/>
<rect x="465" y="673" width="36" height="2" fill="#39ff14"/>
<rect x="329" y="675" width="34" height="2" fill="#39ff14"/>
<rect x="467" y="675" width="32" height="2" fill="#39ff14"/>
<rect x="331" y="677" width="30" height="2" fill="#39ff14"/>
<rect x="469" y="677" width="28" height="2" fill="#39ff14"/>
<rect x="335" y="679" width="22" height="2" fill="#39ff14"/>
<rect x="471" y="679" width="24" height="2" fill="#39ff14"/>
<rect x="339" y="681" width="14" height="2" fill="#39ff14"/>
<rect x="475" y="681" width="16" height="2" fill="#39ff14"/>
<rect x="333" y="697" width="6" height="2" fill="#39ff14"/>
<rect x="351" y="697" width="8" height="2" fill="#39ff14"/>
<rect x="523" y="697" width="6" height="2" fill="#39ff14"/>
<rect x="543" y="697" width="6" height="2" fill="#39ff14"/>
<rect x="313" y="699" width="4" height="2" fill="#39ff14"/>
<rect x="333" y="699" width="6" height="2" fill="#39ff14"/>
<rect x="351" y="699" width="8" height="2" fill="#39ff14"/>
<rect x="409" y="699" width="4" height="2" fill="#39ff14"/>
<rect x="523" y="699" width="6" height="2" fill="#39ff14"/>
<rect x="543" y="699" width="6" height="2" fill="#39ff14"/>
<rect x="311" y="701" width="6" height="2" fill="#39ff14"/>
<rect x="333" y="701" width="6" height="2" fill="#39ff14"/>
<rect x="351" y="701" width="8" height="2" fill="#39ff14"/>
<rect x="407" y="701" width="6" height="2" fill="#39ff14"/>
<rect x="523" y="701" width="6" height="2" fill="#39ff14"/>
<rect x="543" y="701" width="6" height="2" fill="#39ff14"/>
<rect x="311" y="703" width="6" height="2" fill="#39ff14"/>
<rect x="333" y="703" width="6" height="2" fill="#39ff14"/>
<rect x="407" y="703" width="6" height="2" fill="#39ff14"/>
<rect x="523" y="703" width="6" height="2" fill="#39ff14"/>
<rect x="311" y="705" width="6" height="2" fill="#39ff14"/>
<rect x="333" y="705" width="6" height="2" fill="#39ff14"/>
<rect x="407" y="705" width="6" height="2" fill="#39ff14"/>
<rect x="523" y="705" width="6" height="2" fill="#39ff14"/>
<rect x="203" y="707" width="14" height="2" fill="#39ff14"/>
<rect x="235" y="707" width="6" height="2" fill="#39ff14"/>
<rect x="245" y="707" width="10" height="2" fill="#39ff14"/>
<rect x="281" y="707" width="10" height="2" fill="#39ff14"/>
<rect x="307" y="707" width="16" height="2" fill="#39ff14"/>
<rect x="333" y="707" width="6" height="2" fill="#39ff14"/>
<rect x="351" y="707" width="8" height="2" fill="#39ff14"/>
<rect x="375" y="707" width="12" height="2" fill="#39ff14"/>
<rect x="403" y="707" width="16" height="2" fill="#39ff14"/>
<rect x="455" y="707" width="10" height="2" fill="#39ff14"/>
<rect x="485" y="707" width="6" height="2" fill="#39ff14"/>
<rect x="497" y="707" width="8" height="2" fill="#39ff14"/>
<rect x="523" y="707" width="6" height="2" fill="#39ff14"/>
<rect x="543" y="707" width="6" height="2" fill="#39ff14"/>
<rect x="561" y="707" width="6" height="2" fill="#39ff14"/>
<rect x="573" y="707" width="8" height="2" fill="#39ff14"/>
<rect x="605" y="707" width="10" height="2" fill="#39ff14"/>
<rect x="201" y="709" width="20" height="2" fill="#39ff14"/>
<rect x="235" y="709" width="22" height="2" fill="#39ff14"/>
<rect x="277" y="709" width="18" height="2" fill="#39ff14"/>
<rect x="307" y="709" width="16" height="2" fill="#39ff14"/>
<rect x="333" y="709" width="6" height="2" fill="#39ff14"/>
<rect x="351" y="709" width="8" height="2" fill="#39ff14"/>
<rect x="371" y="709" width="20" height="2" fill="#39ff14"/>
<rect x="403" y="709" width="16" height="2" fill="#39ff14"/>
<rect x="451" y="709" width="18" height="2" fill="#39ff14"/>
<rect x="485" y="709" width="24" height="2" fill="#39ff14"/>
<rect x="523" y="709" width="6" height="2" fill="#39ff14"/>
<rect x="543" y="709" width="6" height="2" fill="#39ff14"/>
<rect x="561" y="709" width="24" height="2" fill="#39ff14"/>
<rect x="601" y="709" width="18" height="2" fill="#39ff14"/>
<rect x="199" y="711" width="22" height="2" fill="#39ff14"/>
<rect x="235" y="711" width="24" height="2" fill="#39ff14"/>
<rect x="273" y="711" width="24" height="2" fill="#39ff14"/>
<rect x="307" y="711" width="16" height="2" fill="#39ff14"/>
<rect x="333" y="711" width="6" height="2" fill="#39ff14"/>
<rect x="351" y="711" width="8" height="2" fill="#39ff14"/>
<rect x="369" y="711" width="24" height="2" fill="#39ff14"/>
<rect x="403" y="711" width="16" height="2" fill="#39ff14"/>
<rect x="449" y="711" width="22" height="2" fill="#39ff14"/>
<rect x="485" y="711" width="24" height="2" fill="#39ff14"/>
<rect x="523" y="711" width="6" height="2" fill="#39ff14"/>
<rect x="543" y="711" width="6" height="2" fill="#39ff14"/>
<rect x="561" y="711" width="24" height="2" fill="#39ff14"/>
<rect x="599" y="711" width="22" height="2" fill="#39ff14"/>
<rect x="197" y="713" width="8" height="2" fill="#39ff14"/>
<rect x="215" y="713" width="2" height="2" fill="#39ff14"/>
<rect x="235" y="713" width="10" height="2" fill="#39ff14"/>
<rect x="251" y="713" width="10" height="2" fill="#39ff14"/>
<rect x="273" y="713" width="8" height="2" fill="#39ff14"/>
<rect x="289" y="713" width="8" height="2" fill="#39ff14"/>
<rect x="311" y="713" width="6" height="2" fill="#39ff14"/>
<rect x="333" y="713" width="6" height="2" fill="#39ff14"/>
<rect x="351" y="713" width="8" height="2" fill="#39ff14"/>
<rect x="369" y="713" width="6" height="2" fill="#39ff14"/>
<rect x="385" y="713" width="4" height="2" fill="#39ff14"/>
<rect x="407" y="713" width="6" height="2" fill="#39ff14"/>
<rect x="447" y="713" width="8" height="2" fill="#39ff14"/>
<rect x="463" y="713" width="10" height="2" fill="#39ff14"/>
<rect x="485" y="713" width="10" height="2" fill="#39ff14"/>
<rect x="501" y="713" width="10" height="2" fill="#39ff14"/>
<rect x="523" y="713" width="6" height="2" fill="#39ff14"/>
<rect x="543" y="713" width="6" height="2" fill="#39ff14"/>
<rect x="561" y="713" width="10" height="2" fill="#39ff14"/>
<rect x="577" y="713" width="10" height="2" fill="#39ff14"/>
<rect x="599" y="713" width="8" height="2" fill="#39ff14"/>
<rect x="615" y="713" width="6" height="2" fill="#39ff14"/>
<rect x="197" y="715" width="8" height="2" fill="#39ff14"/>
<rect x="235" y="715" width="8" height="2" fill="#39ff14"/>
<rect x="253" y="715" width="8" height="2" fill="#39ff14"/>
<rect x="271" y="715" width="8" height="2" fill="#39ff14"/>
<rect x="291" y="715" width="8" height="2" fill="#39ff14"/>
<rect x="311" y="715" width="6" height="2" fill="#39ff14"/>
<rect x="333" y="715" width="6" height="2" fill="#39ff14"/>
<rect x="351" y="715" width="8" height="2" fill="#39ff14"/>
<rect x="369" y="715" width="6" height="2" fill="#39ff14"/>
<rect x="407" y="715" width="6" height="2" fill="#39ff14"/>
<rect x="447" y="715" width="6" height="2" fill="#39ff14"/>
<rect x="467" y="715" width="6" height="2" fill="#39ff14"/>
<rect x="485" y="715" width="8" height="2" fill="#39ff14"/>
<rect x="503" y="715" width="8" height="2" fill="#39ff14"/>
<rect x="523" y="715" width="6" height="2" fill="#39ff14"/>
<rect x="543" y="715" width="6" height="2" fill="#39ff14"/>
<rect x="561" y="715" width="8" height="2" fill="#39ff14"/>
<rect x="579" y="715" width="8" height="2" fill="#39ff14"/>
<rect x="597" y="715" width="8" height="2" fill="#39ff14"/>
<rect x="615" y="715" width="8" height="2" fill="#39ff14"/>
<rect x="199" y="717" width="10" height="2" fill="#39ff14"/>
<rect x="235" y="717" width="6" height="2" fill="#39ff14"/>
<rect x="255" y="717" width="6" height="2" fill="#39ff14"/>
<rect x="271" y="717" width="6" height="2" fill="#39ff14"/>
<rect x="293" y="717" width="6" height="2" fill="#39ff14"/>
<rect x="311" y="717" width="6" height="2" fill="#39ff14"/>
<rect x="333" y="717" width="6" height="2" fill="#39ff14"/>
<rect x="351" y="717" width="8" height="2" fill="#39ff14"/>
<rect x="369" y="717" width="10" height="2" fill="#39ff14"/>
<rect x="407" y="717" width="6" height="2" fill="#39ff14"/>
<rect x="445" y="717" width="8" height="2" fill="#39ff14"/>
<rect x="467" y="717" width="8" height="2" fill="#39ff14"/>
<rect x="485" y="717" width="8" height="2" fill="#39ff14"/>
<rect x="503" y="717" width="8" height="2" fill="#39ff14"/>
<rect x="523" y="717" width="6" height="2" fill="#39ff14"/>
<rect x="543" y="717" width="6" height="2" fill="#39ff14"/>
<rect x="561" y="717" width="8" height="2" fill="#39ff14"/>
<rect x="579" y="717" width="8" height="2" fill="#39ff14"/>
<rect x="597" y="717" width="6" height="2" fill="#39ff14"/>
<rect x="617" y="717" width="6" height="2" fill="#39ff14"/>
<rect x="199" y="719" width="18" height="2" fill="#39ff14"/>
<rect x="235" y="719" width="6" height="2" fill="#39ff14"/>
<rect x="255" y="719" width="6" height="2" fill="#39ff14"/>
<rect x="271" y="719" width="6" height="2" fill="#39ff14"/>
<rect x="293" y="719" width="6" height="2" fill="#39ff14"/>
<rect x="311" y="719" width="6" height="2" fill="#39ff14"/>
<rect x="333" y="719" width="6" height="2" fill="#39ff14"/>
<rect x="351" y="719" width="8" height="2" fill="#39ff14"/>
<rect x="371" y="719" width="16" height="2" fill="#39ff14"/>
<rect x="407" y="719" width="6" height="2" fill="#39ff14"/>
<rect x="445" y="719" width="8" height="2" fill="#39ff14"/>
<rect x="467" y="719" width="8" height="2" fill="#39ff14"/>
<rect x="485" y="719" width="8" height="2" fill="#39ff14"/>
<rect x="503" y="719" width="8" height="2" fill="#39ff14"/>
<rect x="523" y="719" width="6" height="2" fill="#39ff14"/>
<rect x="543" y="719" width="6" height="2" fill="#39ff14"/>
<rect x="561" y="719" width="8" height="2" fill="#39ff14"/>
<rect x="579" y="719" width="8" height="2" fill="#39ff14"/>
<rect x="597" y="719" width="26" height="2" fill="#39ff14"/>
<rect x="201" y="721" width="20" height="2" fill="#39ff14"/>
<rect x="235" y="721" width="6" height="2" fill="#39ff14"/>
<rect x="255" y="721" width="6" height="2" fill="#39ff14"/>
<rect x="271" y="721" width="6" height="2" fill="#39ff14"/>
<rect x="293" y="721" width="6" height="2" fill="#39ff14"/>
<rect x="311" y="721" width="6" height="2" fill="#39ff14"/>
<rect x="333" y="721" width="6" height="2" fill="#39ff14"/>
<rect x="351" y="721" width="8" height="2" fill="#39ff14"/>
<rect x="373" y="721" width="18" height="2" fill="#39ff14"/>
<rect x="407" y="721" width="6" height="2" fill="#39ff14"/>
<rect x="445" y="721" width="6" height="2" fill="#39ff14"/>
<rect x="467" y="721" width="8" height="2" fill="#39ff14"/>
<rect x="485" y="721" width="6" height="2" fill="#39ff14"/>
<rect x="503" y="721" width="8" height="2" fill="#39ff14"/>
<rect x="523" y="721" width="6" height="2" fill="#39ff14"/>
<rect x="543" y="721" width="6" height="2" fill="#39ff14"/>
<rect x="561" y="721" width="6" height="2" fill="#39ff14"/>
<rect x="579" y="721" width="8" height="2" fill="#39ff14"/>
<rect x="597" y="721" width="26" height="2" fill="#39ff14"/>
<rect x="207" y="723" width="16" height="2" fill="#39ff14"/>
<rect x="235" y="723" width="6" height="2" fill="#39ff14"/>
<rect x="255" y="723" width="6" height="2" fill="#39ff14"/>
<rect x="271" y="723" width="6" height="2" fill="#39ff14"/>
<rect x="293" y="723" width="6" height="2" fill="#39ff14"/>
<rect x="311" y="723" width="6" height="2" fill="#39ff14"/>
<rect x="333" y="723" width="6" height="2" fill="#39ff14"/>
<rect x="351" y="723" width="8" height="2" fill="#39ff14"/>
<rect x="377" y="723" width="16" height="2" fill="#39ff14"/>
<rect x="407" y="723" width="6" height="2" fill="#39ff14"/>
<rect x="445" y="723" width="8" height="2" fill="#39ff14"/>
<rect x="467" y="723" width="8" height="2" fill="#39ff14"/>
<rect x="485" y="723" width="6" height="2" fill="#39ff14"/>
<rect x="503" y="723" width="8" height="2" fill="#39ff14"/>
<rect x="523" y="723" width="6" height="2" fill="#39ff14"/>
<rect x="543" y="723" width="6" height="2" fill="#39ff14"/>
<rect x="561" y="723" width="6" height="2" fill="#39ff14"/>
<rect x="579" y="723" width="8" height="2" fill="#39ff14"/>
<rect x="597" y="723" width="26" height="2" fill="#39ff14"/>
<rect x="215" y="725" width="8" height="2" fill="#39ff14"/>
<rect x="235" y="725" width="6" height="2" fill="#39ff14"/>
<rect x="255" y="725" width="6" height="2" fill="#39ff14"/>
<rect x="271" y="725" width="6" height="2" fill="#39ff14"/>
<rect x="293" y="725" width="6" height="2" fill="#39ff14"/>
<rect x="311" y="725" width="6" height="2" fill="#39ff14"/>
<rect x="333" y="725" width="6" height="2" fill="#39ff14"/>
<rect x="351" y="725" width="8" height="2" fill="#39ff14"/>
<rect x="385" y="725" width="8" height="2" fill="#39ff14"/>
<rect x="407" y="725" width="6" height="2" fill="#39ff14"/>
<rect x="445" y="725" width="8" height="2" fill="#39ff14"/>
<rect x="467" y="725" width="8" height="2" fill="#39ff14"/>
<rect x="485" y="725" width="6" height="2" fill="#39ff14"/>
<rect x="503" y="725" width="8" height="2" fill="#39ff14"/>
<rect x="523" y="725" width="6" height="2" fill="#39ff14"/>
<rect x="543" y="725" width="6" height="2" fill="#39ff14"/>
<rect x="561" y="725" width="6" height="2" fill="#39ff14"/>
<rect x="579" y="725" width="8" height="2" fill="#39ff14"/>
<rect x="597" y="725" width="6" height="2" fill="#39ff14"/>
<rect x="215" y="727" width="8" height="2" fill="#39ff14"/>
<rect x="235" y="727" width="8" height="2" fill="#39ff14"/>
<rect x="253" y="727" width="8" height="2" fill="#39ff14"/>
<rect x="271" y="727" width="8" height="2" fill="#39ff14"/>
<rect x="291" y="727" width="8" height="2" fill="#39ff14"/>
<rect x="311" y="727" width="6" height="2" fill="#39ff14"/>
<rect x="333" y="727" width="6" height="2" fill="#39ff14"/>
<rect x="351" y="727" width="8" height="2" fill="#39ff14"/>
<rect x="387" y="727" width="6" height="2" fill="#39ff14"/>
<rect x="407" y="727" width="6" height="2" fill="#39ff14"/>
<rect x="447" y="727" width="6" height="2" fill="#39ff14"/>
<rect x="467" y="727" width="6" height="2" fill="#39ff14"/>
<rect x="485" y="727" width="6" height="2" fill="#39ff14"/>
<rect x="503" y="727" width="8" height="2" fill="#39ff14"/>
<rect x="523" y="727" width="6" height="2" fill="#39ff14"/>
<rect x="543" y="727" width="6" height="2" fill="#39ff14"/>
<rect x="561" y="727" width="6" height="2" fill="#39ff14"/>
<rect x="579" y="727" width="8" height="2" fill="#39ff14"/>
<rect x="597" y="727" width="8" height="2" fill="#39ff14"/>
<rect x="201" y="729" width="4" height="2" fill="#39ff14"/>
<rect x="215" y="729" width="8" height="2" fill="#39ff14"/>
<rect x="235" y="729" width="10" height="2" fill="#39ff14"/>
<rect x="251" y="729" width="10" height="2" fill="#39ff14"/>
<rect x="273" y="729" width="8" height="2" fill="#39ff14"/>
<rect x="289" y="729" width="8" height="2" fill="#39ff14"/>
<rect x="311" y="729" width="8" height="2" fill="#39ff14"/>
<rect x="333" y="729" width="6" height="2" fill="#39ff14"/>
<rect x="351" y="729" width="8" height="2" fill="#39ff14"/>
<rect x="373" y="729" width="2" height="2" fill="#39ff14"/>
<rect x="385" y="729" width="8" height="2" fill="#39ff14"/>
<rect x="407" y="729" width="6" height="2" fill="#39ff14"/>
<rect x="429" y="729" width="6" height="2" fill="#39ff14"/>
<rect x="447" y="729" width="8" height="2" fill="#39ff14"/>
<rect x="463" y="729" width="10" height="2" fill="#39ff14"/>
<rect x="485" y="729" width="6" height="2" fill="#39ff14"/>
<rect x="503" y="729" width="8" height="2" fill="#39ff14"/>
<rect x="523" y="729" width="6" height="2" fill="#39ff14"/>
<rect x="543" y="729" width="6" height="2" fill="#39ff14"/>
<rect x="561" y="729" width="6" height="2" fill="#39ff14"/>
<rect x="579" y="729" width="8" height="2" fill="#39ff14"/>
<rect x="599" y="729" width="8" height="2" fill="#39ff14"/>
<rect x="615" y="729" width="4" height="2" fill="#39ff14"/>
<rect x="197" y="731" width="24" height="2" fill="#39ff14"/>
<rect x="235" y="731" width="24" height="2" fill="#39ff14"/>
<rect x="273" y="731" width="24" height="2" fill="#39ff14"/>
<rect x="311" y="731" width="12" height="2" fill="#39ff14"/>
<rect x="333" y="731" width="6" height="2" fill="#39ff14"/>
<rect x="351" y="731" width="8" height="2" fill="#39ff14"/>
<rect x="369" y="731" width="24" height="2" fill="#39ff14"/>
<rect x="407" y="731" width="12" height="2" fill="#39ff14"/>
<rect x="429" y="731" width="6" height="2" fill="#39ff14"/>
<rect x="449" y="731" width="22" height="2" fill="#39ff14"/>
<rect x="485" y="731" width="6" height="2" fill="#39ff14"/>
<rect x="503" y="731" width="8" height="2" fill="#39ff14"/>
<rect x="523" y="731" width="6" height="2" fill="#39ff14"/>
<rect x="543" y="731" width="6" height="2" fill="#39ff14"/>
<rect x="561" y="731" width="6" height="2" fill="#39ff14"/>
<rect x="579" y="731" width="8" height="2" fill="#39ff14"/>
<rect x="599" y="731" width="24" height="2" fill="#39ff14"/>
<rect x="199" y="733" width="20" height="2" fill="#39ff14"/>
<rect x="235" y="733" width="22" height="2" fill="#39ff14"/>
<rect x="275" y="733" width="20" height="2" fill="#39ff14"/>
<rect x="311" y="733" width="12" height="2" fill="#39ff14"/>
<rect x="333" y="733" width="6" height="2" fill="#39ff14"/>
<rect x="351" y="733" width="8" height="2" fill="#39ff14"/>
<rect x="371" y="733" width="20" height="2" fill="#39ff14"/>
<rect x="407" y="733" width="12" height="2" fill="#39ff14"/>
<rect x="429" y="733" width="6" height="2" fill="#39ff14"/>
<rect x="451" y="733" width="18" height="2" fill="#39ff14"/>
<rect x="485" y="733" width="6" height="2" fill="#39ff14"/>
<rect x="503" y="733" width="8" height="2" fill="#39ff14"/>
<rect x="523" y="733" width="6" height="2" fill="#39ff14"/>
<rect x="543" y="733" width="6" height="2" fill="#39ff14"/>
<rect x="561" y="733" width="6" height="2" fill="#39ff14"/>
<rect x="579" y="733" width="8" height="2" fill="#39ff14"/>
<rect x="601" y="733" width="20" height="2" fill="#39ff14"/>
<rect x="203" y="735" width="14" height="2" fill="#39ff14"/>
<rect x="235" y="735" width="6" height="2" fill="#39ff14"/>
<rect x="247" y="735" width="8" height="2" fill="#39ff14"/>
<rect x="281" y="735" width="10" height="2" fill="#39ff14"/>
<rect x="315" y="735" width="8" height="2" fill="#39ff14"/>
<rect x="333" y="735" width="6" height="2" fill="#39ff14"/>
<rect x="351" y="735" width="8" height="2" fill="#39ff14"/>
<rect x="375" y="735" width="12" height="2" fill="#39ff14"/>
<rect x="409" y="735" width="10" height="2" fill="#39ff14"/>
<rect x="429" y="735" width="6" height="2" fill="#39ff14"/>
<rect x="455" y="735" width="10" height="2" fill="#39ff14"/>
<rect x="485" y="735" width="6" height="2" fill="#39ff14"/>
<rect x="503" y="735" width="8" height="2" fill="#39ff14"/>
<rect x="523" y="735" width="6" height="2" fill="#39ff14"/>
<rect x="543" y="735" width="6" height="2" fill="#39ff14"/>
<rect x="561" y="735" width="6" height="2" fill="#39ff14"/>
<rect x="579" y="735" width="8" height="2" fill="#39ff14"/>
<rect x="605" y="735" width="12" height="2" fill="#39ff14"/>
<rect x="235" y="737" width="6" height="2" fill="#39ff14"/>
<rect x="235" y="739" width="6" height="2" fill="#39ff14"/>
<rect x="235" y="741" width="6" height="2" fill="#39ff14"/>
<rect x="235" y="743" width="6" height="2" fill="#39ff14"/>
<rect x="235" y="745" width="6" height="2" fill="#39ff14"/>
<rect x="235" y="747" width="6" height="2" fill="#39ff14"/>
</svg>